  0
SECTION
  2
HEADER
  0
ENDSEC
  0
SECTION
  2
BLOCKS
  0
BLOCK
  8
0
  2
CAP-C14-ANNOT_12
 70
64
 10
0.0000
 20
0.0000
  0
TEXT
  8
1
 10
7.4673
 20
16.4517
 40
0.250
 50
0.0000
  1
Piece Name: CAP-C14-ANNOT
  7
STANDARD
  0
TEXT
  8
1
 10
7.4673
 20
16.5917
 40
0.250
 50
0.0000
  1
Quantity: 1,0
  7
STANDARD
  0
TEXT
  8
1
 10
7.4673
 20
16.7317
 40
0.250
 50
0.0000
  1
ANNOTATION: collar
  7
STANDARD
  0
TEXT
  8
1
 10
7.4673
 20
16.8717
 40
0.250
 50
0.0000
  1
CATEGORY: CAP-C14-ANNOT
  7
STANDARD
  0
TEXT
  8
1
 10
7.4673
 20
17.0117
 40
0.250
 50
0.0000
  1
SIZE: 12
  7
STANDARD
  0
POLYLINE
  8
1
 66
1
 70
0
  0
VERTEX
  8
1
 10
5.4988
 20
14.4832
  0
VERTEX
  8
1
 10
5.4988
 20
18.4202
  0
SEQEND
  8
1
  0
POLYLINE
  8
84
 66
1
 70
0
  0
VERTEX
  8
84
 10
5.4988
 20
14.4832
  0
VERTEX
  8
84
 10
5.4988
 20
18.4202
  0
SEQEND
  8
84
  0
POINT
  8
2
 10
5.4988
 20
14.4832
  0
POINT
  8
2
 10
5.4988
 20
18.4202
  0
POLYLINE
  8
1
 66
1
 70
0
  0
VERTEX
  8
1
 10
5.4988
 20
18.4202
  0
VERTEX
  8
1
 10
9.4358
 20
18.4202
  0
SEQEND
  8
1
  0
POLYLINE
  8
84
 66
1
 70
0
  0
VERTEX
  8
84
 10
5.4988
 20
18.4202
  0
VERTEX
  8
84
 10
9.4358
 20
18.4202
  0
SEQEND
  8
84
  0
POINT
  8
2
 10
5.4988
 20
18.4202
  0
POINT
  8
2
 10
9.4358
 20
18.4202
  0
POLYLINE
  8
1
 66
1
 70
0
  0
VERTEX
  8
1
 10
9.4358
 20
18.4202
  0
VERTEX
  8
1
 10
9.4358
 20
14.4832
  0
SEQEND
  8
1
  0
POLYLINE
  8
84
 66
1
 70
0
  0
VERTEX
  8
84
 10
9.4358
 20
18.4202
  0
VERTEX
  8
84
 10
9.4358
 20
14.4832
  0
SEQEND
  8
84
  0
POINT
  8
2
 10
9.4358
 20
18.4202
  0
POINT
  8
2
 10
9.4358
 20
14.4832
  0
POLYLINE
  8
1
 66
1
 70
0
  0
VERTEX
  8
1
 10
9.4358
 20
14.4832
  0
VERTEX
  8
1
 10
7.4673
 20
14.4832
  0
VERTEX
  8
1
 10
5.4988
 20
14.4832
  0
SEQEND
  8
1
  0
POLYLINE
  8
84
 66
1
 70
0
  0
VERTEX
  8
84
 10
9.4358
 20
14.4832
  0
VERTEX
  8
84
 10
7.4673
 20
14.4832
  0
VERTEX
  8
84
 10
5.4988
 20
14.4832
  0
SEQEND
  8
84
  0
POINT
  8
2
 10
9.4358
 20
14.4832
  0
POINT
  8
3
 10
7.4673
 20
14.4832
  0
POINT
  8
2
 10
5.4988
 20
14.4832
  0
LINE
  8
7
 10
6.4830
 20
16.4517
 11
8.4515
 21
16.4517
  0
LINE
  8
5
 10
6.4830
 20
16.4517
 11
8.4515
 21
16.4517
  0
POINT
  8
2
 10
6.4830
 20
16.4517
  0
POINT
  8
2
 10
8.4515
 20
16.4517
  0
ENDBLK
  0
ENDSEC
  0
SECTION
  2
ENTITIES
  0
TEXT
  8
1
 10
0.0000
 20
0.0000
 40
0.250
 50
0.0000
  1
Style Name: CAP-C14-ANNOT
  7
STANDARD
  0
TEXT
  8
1
 10
0.0000
 20
0.1400
 40
0.250
 50
0.0000
  1
Creation Date:  8-09-2026
  7
STANDARD
  0
TEXT
  8
1
 10
0.0000
 20
0.2800
 40
0.250
 50
0.0000
  1
Creation Time: 20:58
  7
STANDARD
  0
TEXT
  8
1
 10
0.0000
 20
0.4200
 40
0.250
 50
0.0000
  1
Author: GERBER TECHNOLOGY ; ACCUMARK ; 17.1.0
  7
STANDARD
  0
TEXT
  8
1
 10
0.0000
 20
0.5600
 40
0.250
 50
0.0000
  1
Grade Rule Table: A1-LADIES
  7
STANDARD
  0
TEXT
  8
1
 10
0.0000
 20
0.7000
 40
0.250
 50
0.0000
  1
Sample Size: 12
  7
STANDARD
  0
TEXT
  8
1
 10
0.0000
 20
0.8400
 40
0.250
 50
0.0000
  1
Units: ENGLISH
  7
STANDARD
  0
TEXT
  8
1
 10
0.0000
 20
0.9800
 40
0.250
 50
0.0000
  1
Curve Tolerance: .006
  7
STANDARD
  0
TEXT
  8
1
 10
0.0000
 20
1.1200
 40
0.250
 50
0.0000
  1
ASTM/D13Proposal 1 Version: D 6673-04
  7
STANDARD
  0
INSERT
  8
1
  2
CAP-C14-ANNOT_12
 10
0.0000
 20
0.0000
  0
ENDSEC
  0
EOF
