  0
SECTION
  2
HEADER
  0
ENDSEC
  0
SECTION
  2
BLOCKS
  0
BLOCK
  8
0
  2
CAP-C30-SEAM-UNEVEN_12
 70
64
 10
0.0000
 20
0.0000
  0
TEXT
  8
1
 10
-54.8468
 20
34.5407
 40
0.250
 50
0.0000
  1
Piece Name: CAP-C30-SEAM-UNEVEN
  7
STANDARD
  0
TEXT
  8
1
 10
-54.8468
 20
34.6807
 40
0.250
 50
0.0000
  1
Quantity: 1,0
  7
STANDARD
  0
TEXT
  8
1
 10
-54.8468
 20
34.8207
 40
0.250
 50
0.0000
  1
ANNOTATION: RECTANGLE
  7
STANDARD
  0
TEXT
  8
1
 10
-54.8468
 20
34.9607
 40
0.250
 50
0.0000
  1
CATEGORY: TASK1-CUTQTY3
  7
STANDARD
  0
TEXT
  8
1
 10
-54.8468
 20
35.1007
 40
0.250
 50
0.0000
  1
SIZE: 12
  7
STANDARD
  0
POLYLINE
  8
1
 66
1
 70
0
  0
VERTEX
  8
1
 10
-60.6013
 20
30.5016
  0
VERTEX
  8
1
 10
-60.9946
 20
38.3764
  0
SEQEND
  8
1
  0
POLYLINE
  8
84
 66
1
 70
0
  0
VERTEX
  8
84
 10
-60.6013
 20
30.5016
  0
VERTEX
  8
84
 10
-60.9946
 20
38.3764
  0
SEQEND
  8
84
  0
POINT
  8
2
 10
-60.6013
 20
30.5016
  0
POINT
  8
2
 10
-60.9946
 20
38.3764
  0
POLYLINE
  8
1
 66
1
 70
0
  0
VERTEX
  8
1
 10
-60.9946
 20
38.3764
  0
VERTEX
  8
1
 10
-48.7998
 20
38.5798
  0
SEQEND
  8
1
  0
POLYLINE
  8
84
 66
1
 70
0
  0
VERTEX
  8
84
 10
-60.9946
 20
38.3764
  0
VERTEX
  8
84
 10
-48.7998
 20
38.5798
  0
SEQEND
  8
84
  0
POINT
  8
2
 10
-60.9946
 20
38.3764
  0
POINT
  8
2
 10
-48.7998
 20
38.5798
  0
POLYLINE
  8
1
 66
1
 70
0
  0
VERTEX
  8
1
 10
-48.7998
 20
38.5798
  0
VERTEX
  8
1
 10
-48.6990
 20
30.5016
  0
SEQEND
  8
1
  0
POLYLINE
  8
84
 66
1
 70
0
  0
VERTEX
  8
84
 10
-48.7998
 20
38.5798
  0
VERTEX
  8
84
 10
-48.6990
 20
30.5016
  0
SEQEND
  8
84
  0
POINT
  8
2
 10
-48.7998
 20
38.5798
  0
POINT
  8
2
 10
-48.6990
 20
30.5016
  0
POLYLINE
  8
1
 66
1
 70
0
  0
VERTEX
  8
1
 10
-48.6990
 20
30.5016
  0
VERTEX
  8
1
 10
-60.6013
 20
30.5016
  0
SEQEND
  8
1
  0
POLYLINE
  8
84
 66
1
 70
0
  0
VERTEX
  8
84
 10
-48.6990
 20
30.5016
  0
VERTEX
  8
84
 10
-60.6013
 20
30.5016
  0
SEQEND
  8
84
  0
POINT
  8
2
 10
-48.6990
 20
30.5016
  0
POINT
  8
2
 10
-60.6013
 20
30.5016
  0
LINE
  8
7
 10
-57.6503
 20
34.4423
 11
-51.7484
 21
34.4423
  0
LINE
  8
5
 10
-57.6503
 20
34.4423
 11
-51.7484
 21
34.4423
  0
POINT
  8
2
 10
-57.6503
 20
34.4423
  0
POINT
  8
2
 10
-51.7484
 20
34.4423
  0
POLYLINE
  8
14
 66
1
 70
0
  0
VERTEX
  8
14
 10
-60.6013
 20
30.5016
  0
VERTEX
  8
14
 10
-60.6013
 20
38.3830
  0
SEQEND
  8
14
  0
POLYLINE
  8
87
 66
1
 70
0
  0
VERTEX
  8
87
 10
-60.6013
 20
30.5016
  0
VERTEX
  8
87
 10
-60.6013
 20
38.3830
  0
SEQEND
  8
87
  0
POINT
  8
2
 10
-60.6013
 20
30.5016
  0
POINT
  8
2
 10
-60.6013
 20
38.3830
  0
POLYLINE
  8
14
 66
1
 70
0
  0
VERTEX
  8
14
 10
-60.6013
 20
38.3830
  0
VERTEX
  8
14
 10
-48.7974
 20
38.3830
  0
SEQEND
  8
14
  0
POLYLINE
  8
87
 66
1
 70
0
  0
VERTEX
  8
87
 10
-60.6013
 20
38.3830
  0
VERTEX
  8
87
 10
-48.7974
 20
38.3830
  0
SEQEND
  8
87
  0
POINT
  8
2
 10
-60.6013
 20
38.3830
  0
POINT
  8
2
 10
-48.7974
 20
38.3830
  0
POLYLINE
  8
14
 66
1
 70
0
  0
VERTEX
  8
14
 10
-48.7974
 20
38.3830
  0
VERTEX
  8
14
 10
-48.7974
 20
30.5016
  0
SEQEND
  8
14
  0
POLYLINE
  8
87
 66
1
 70
0
  0
VERTEX
  8
87
 10
-48.7974
 20
38.3830
  0
VERTEX
  8
87
 10
-48.7974
 20
30.5016
  0
SEQEND
  8
87
  0
POINT
  8
2
 10
-48.7974
 20
38.3830
  0
POINT
  8
2
 10
-48.7974
 20
30.5016
  0
ENDBLK
  0
ENDSEC
  0
SECTION
  2
ENTITIES
  0
TEXT
  8
1
 10
0.0000
 20
0.0000
 40
0.250
 50
0.0000
  1
Style Name: CAP-C30-SEAM-UNEVEN
  7
STANDARD
  0
TEXT
  8
1
 10
0.0000
 20
0.1400
 40
0.250
 50
0.0000
  1
Creation Date:  7-09-2026
  7
STANDARD
  0
TEXT
  8
1
 10
0.0000
 20
0.2800
 40
0.250
 50
0.0000
  1
Creation Time: 11:35
  7
STANDARD
  0
TEXT
  8
1
 10
0.0000
 20
0.4200
 40
0.250
 50
0.0000
  1
Author: GERBER TECHNOLOGY ; ACCUMARK ; 17.1.0
  7
STANDARD
  0
TEXT
  8
1
 10
0.0000
 20
0.5600
 40
0.250
 50
0.0000
  1
Grade Rule Table: A1-LADIES
  7
STANDARD
  0
TEXT
  8
1
 10
0.0000
 20
0.7000
 40
0.250
 50
0.0000
  1
Sample Size: 12
  7
STANDARD
  0
TEXT
  8
1
 10
0.0000
 20
0.8400
 40
0.250
 50
0.0000
  1
Units: ENGLISH
  7
STANDARD
  0
TEXT
  8
1
 10
0.0000
 20
0.9800
 40
0.250
 50
0.0000
  1
Curve Tolerance: .006
  7
STANDARD
  0
TEXT
  8
1
 10
0.0000
 20
1.1200
 40
0.250
 50
0.0000
  1
ASTM/D13Proposal 1 Version: D 6673-04
  7
STANDARD
  0
INSERT
  8
1
  2
CAP-C30-SEAM-UNEVEN_12
 10
0.0000
 20
0.0000
  0
ENDSEC
  0
EOF
