  0
SECTION
  2
HEADER
  0
ENDSEC
  0
SECTION
  2
BLOCKS
  0
BLOCK
  8
0
  2
TASK5-GRADED_8
 70
64
 10
0.0000
 20
0.0000
  0
TEXT
  8
1
 10
3.9214
 20
19.5097
 40
0.250
 50
0.0000
  1
Piece Name: TASK5-GRADED
  7
STANDARD
  0
TEXT
  8
1
 10
3.9214
 20
19.6497
 40
0.250
 50
0.0000
  1
Quantity: 1,0
  7
STANDARD
  0
TEXT
  8
1
 10
3.9214
 20
19.7897
 40
0.250
 50
0.0000
  1
ANNOTATION: RECTANGLE
  7
STANDARD
  0
TEXT
  8
1
 10
3.9214
 20
19.9297
 40
0.250
 50
0.0000
  1
CATEGORY: TASK1-CUTQTY3
  7
STANDARD
  0
TEXT
  8
1
 10
3.9214
 20
20.0697
 40
0.250
 50
0.0000
  1
SIZE: 8
  7
STANDARD
  0
POLYLINE
  8
1
 66
1
 70
0
  0
VERTEX
  8
1
 10
-1.9805
 20
15.5690
  0
VERTEX
  8
1
 10
-1.9805
 20
23.4504
  0
SEQEND
  8
1
  0
POLYLINE
  8
84
 66
1
 70
0
  0
VERTEX
  8
84
 10
-1.9805
 20
15.5690
  0
VERTEX
  8
84
 10
-1.9805
 20
23.4504
  0
SEQEND
  8
84
  0
POINT
  8
2
 10
-1.9805
 20
15.5690
  0
POINT
  8
2
 10
-1.9805
 20
23.4504
  0
POLYLINE
  8
1
 66
1
 70
0
  0
VERTEX
  8
1
 10
-1.9805
 20
23.4504
  0
VERTEX
  8
1
 10
9.8234
 20
23.4504
  0
SEQEND
  8
1
  0
POLYLINE
  8
84
 66
1
 70
0
  0
VERTEX
  8
84
 10
-1.9805
 20
23.4504
  0
VERTEX
  8
84
 10
9.8234
 20
23.4504
  0
SEQEND
  8
84
  0
POINT
  8
2
 10
-1.9805
 20
23.4504
  0
TEXT
  8
1
 10
9.8234
 20
23.4504
 40
0.250
 50
0.0000
  1
# 1
  7
STANDARD
  0
POINT
  8
2
 10
9.8234
 20
23.4504
  0
POLYLINE
  8
1
 66
1
 70
0
  0
VERTEX
  8
1
 10
9.8234
 20
23.4504
  0
VERTEX
  8
1
 10
9.8234
 20
15.5690
  0
SEQEND
  8
1
  0
POLYLINE
  8
84
 66
1
 70
0
  0
VERTEX
  8
84
 10
9.8234
 20
23.4504
  0
VERTEX
  8
84
 10
9.8234
 20
15.5690
  0
SEQEND
  8
84
  0
TEXT
  8
1
 10
9.8234
 20
23.4504
 40
0.250
 50
0.0000
  1
# 1
  7
STANDARD
  0
POINT
  8
2
 10
9.8234
 20
23.4504
  0
TEXT
  8
1
 10
9.8234
 20
15.5690
 40
0.250
 50
0.0000
  1
# 1
  7
STANDARD
  0
POINT
  8
2
 10
9.8234
 20
15.5690
  0
POLYLINE
  8
1
 66
1
 70
0
  0
VERTEX
  8
1
 10
9.8234
 20
15.5690
  0
VERTEX
  8
1
 10
-1.9805
 20
15.5690
  0
SEQEND
  8
1
  0
POLYLINE
  8
84
 66
1
 70
0
  0
VERTEX
  8
84
 10
9.8234
 20
15.5690
  0
VERTEX
  8
84
 10
-1.9805
 20
15.5690
  0
SEQEND
  8
84
  0
TEXT
  8
1
 10
9.8234
 20
15.5690
 40
0.250
 50
0.0000
  1
# 1
  7
STANDARD
  0
POINT
  8
2
 10
9.8234
 20
15.5690
  0
POINT
  8
2
 10
-1.9805
 20
15.5690
  0
LINE
  8
7
 10
0.9705
 20
19.5097
 11
6.8724
 21
19.5097
  0
LINE
  8
5
 10
0.9705
 20
19.5097
 11
6.8724
 21
19.5097
  0
POINT
  8
2
 10
0.9705
 20
19.5097
  0
POINT
  8
2
 10
6.8724
 20
19.5097
  0
ENDBLK
  0
ENDSEC
  0
SECTION
  2
ENTITIES
  0
TEXT
  8
1
 10
0.0000
 20
0.0000
 40
0.250
 50
0.0000
  1
Style Name: TASK5-GRADED
  7
STANDARD
  0
TEXT
  8
1
 10
0.0000
 20
0.1400
 40
0.250
 50
0.0000
  1
Creation Date:  7-09-2026
  7
STANDARD
  0
TEXT
  8
1
 10
0.0000
 20
0.2800
 40
0.250
 50
0.0000
  1
Creation Time:  8:23
  7
STANDARD
  0
TEXT
  8
1
 10
0.0000
 20
0.4200
 40
0.250
 50
0.0000
  1
Author: GERBER TECHNOLOGY ; ACCUMARK ; 17.1.0
  7
STANDARD
  0
TEXT
  8
1
 10
0.0000
 20
0.5600
 40
0.250
 50
0.0000
  1
Grade Rule Table: TASK5-RULES
  7
STANDARD
  0
TEXT
  8
1
 10
0.0000
 20
0.7000
 40
0.250
 50
0.0000
  1
Sample Size: 8
  7
STANDARD
  0
TEXT
  8
1
 10
0.0000
 20
0.8400
 40
0.250
 50
0.0000
  1
Units: ENGLISH
  7
STANDARD
  0
TEXT
  8
1
 10
0.0000
 20
0.9800
 40
0.250
 50
0.0000
  1
Curve Tolerance: .006
  7
STANDARD
  0
TEXT
  8
1
 10
0.0000
 20
1.1200
 40
0.250
 50
0.0000
  1
ASTM/D13Proposal 1 Version: D 6673-04
  7
STANDARD
  0
INSERT
  8
1
  2
TASK5-GRADED_8
 10
0.0000
 20
0.0000
  0
ENDSEC
  0
EOF
