  0
SECTION
  2
HEADER
  0
ENDSEC
  0
SECTION
  2
BLOCKS
  0
BLOCK
  8
0
  2
CAP-C61-MIRROR_12
 70
64
 10
0.0000
 20
0.0000
  0
TEXT
  8
1
 10
43.3765
 20
25.1154
 40
0.250
 50
0.0000
  1
Piece Name: CAP-C61-MIRROR
  7
STANDARD
  0
TEXT
  8
1
 10
43.3765
 20
25.2554
 40
0.250
 50
0.0000
  1
Quantity: 1,0
  7
STANDARD
  0
TEXT
  8
1
 10
43.3765
 20
25.3954
 40
0.250
 50
0.0000
  1
ANNOTATION: RECTANGLE
  7
STANDARD
  0
TEXT
  8
1
 10
43.3765
 20
25.5354
 40
0.250
 50
0.0000
  1
CATEGORY: CAP-C61-MIRROR
  7
STANDARD
  0
TEXT
  8
1
 10
43.3765
 20
25.6754
 40
0.250
 50
0.0000
  1
SIZE: 12
  7
STANDARD
  0
POLYLINE
  8
1
 66
1
 70
0
  0
VERTEX
  8
1
 10
44.9941
 20
23.4945
  0
VERTEX
  8
1
 10
41.7589
 20
23.4945
  0
SEQEND
  8
1
  0
POLYLINE
  8
84
 66
1
 70
0
  0
VERTEX
  8
84
 10
44.9941
 20
23.4945
  0
VERTEX
  8
84
 10
41.7589
 20
23.4945
  0
SEQEND
  8
84
  0
POINT
  8
2
 10
44.9941
 20
23.4945
  0
POINT
  8
2
 10
41.7589
 20
23.4945
  0
POLYLINE
  8
1
 66
1
 70
0
  0
VERTEX
  8
1
 10
41.7589
 20
23.4945
  0
VERTEX
  8
1
 10
41.7589
 20
26.7363
  0
SEQEND
  8
1
  0
POLYLINE
  8
84
 66
1
 70
0
  0
VERTEX
  8
84
 10
41.7589
 20
23.4945
  0
VERTEX
  8
84
 10
41.7589
 20
26.7363
  0
SEQEND
  8
84
  0
POINT
  8
2
 10
41.7589
 20
23.4945
  0
POINT
  8
2
 10
41.7589
 20
26.7363
  0
POLYLINE
  8
1
 66
1
 70
0
  0
VERTEX
  8
1
 10
41.7589
 20
26.7363
  0
VERTEX
  8
1
 10
44.9941
 20
26.7363
  0
SEQEND
  8
1
  0
POLYLINE
  8
84
 66
1
 70
0
  0
VERTEX
  8
84
 10
41.7589
 20
26.7363
  0
VERTEX
  8
84
 10
44.9941
 20
26.7363
  0
SEQEND
  8
84
  0
POINT
  8
2
 10
41.7589
 20
26.7363
  0
POINT
  8
2
 10
44.9941
 20
26.7363
  0
POLYLINE
  8
1
 66
1
 70
0
  0
VERTEX
  8
1
 10
44.9941
 20
26.7363
  0
VERTEX
  8
1
 10
44.9941
 20
23.4945
  0
SEQEND
  8
1
  0
POLYLINE
  8
84
 66
1
 70
0
  0
VERTEX
  8
84
 10
44.9941
 20
26.7363
  0
VERTEX
  8
84
 10
44.9941
 20
23.4945
  0
SEQEND
  8
84
  0
POINT
  8
2
 10
44.9941
 20
26.7363
  0
LINE
  8
7
 10
43.3798
 20
25.1154
 11
44.9941
 21
25.1154
  0
LINE
  8
5
 10
43.3798
 20
25.1154
 11
44.9941
 21
25.1154
  0
POINT
  8
2
 10
43.3798
 20
25.1154
  0
POINT
  8
2
 10
44.9941
 20
25.1154
  0
LINE
  8
6
 10
44.9941
 20
26.7363
 11
44.9941
 21
23.4945
  0
ENDBLK
  0
ENDSEC
  0
SECTION
  2
ENTITIES
  0
TEXT
  8
1
 10
0.0000
 20
0.0000
 40
0.250
 50
0.0000
  1
Style Name: CAP-C61-MIRROR
  7
STANDARD
  0
TEXT
  8
1
 10
0.0000
 20
0.1400
 40
0.250
 50
0.0000
  1
Creation Date:  8-09-2026
  7
STANDARD
  0
TEXT
  8
1
 10
0.0000
 20
0.2800
 40
0.250
 50
0.0000
  1
Creation Time:  1:31
  7
STANDARD
  0
TEXT
  8
1
 10
0.0000
 20
0.4200
 40
0.250
 50
0.0000
  1
Author: GERBER TECHNOLOGY ; ACCUMARK ; 17.1.0
  7
STANDARD
  0
TEXT
  8
1
 10
0.0000
 20
0.5600
 40
0.250
 50
0.0000
  1
Grade Rule Table: A1-LADIES
  7
STANDARD
  0
TEXT
  8
1
 10
0.0000
 20
0.7000
 40
0.250
 50
0.0000
  1
Sample Size: 12
  7
STANDARD
  0
TEXT
  8
1
 10
0.0000
 20
0.8400
 40
0.250
 50
0.0000
  1
Units: ENGLISH
  7
STANDARD
  0
TEXT
  8
1
 10
0.0000
 20
0.9800
 40
0.250
 50
0.0000
  1
Curve Tolerance: .006
  7
STANDARD
  0
TEXT
  8
1
 10
0.0000
 20
1.1200
 40
0.250
 50
0.0000
  1
ASTM/D13Proposal 1 Version: D 6673-04
  7
STANDARD
  0
INSERT
  8
1
  2
CAP-C61-MIRROR_12
 10
0.0000
 20
0.0000
  0
ENDSEC
  0
EOF
