  0
SECTION
  2
HEADER
  0
ENDSEC
  0
SECTION
  2
BLOCKS
  0
BLOCK
  8
0
  2
CAP-C70-PASTED_12
 70
64
 10
0.0000
 20
0.0000
  0
TEXT
  8
1
 10
14.2700
 20
12.6131
 40
0.250
 50
0.0000
  1
Piece Name: CAP-C70-PASTED
  7
STANDARD
  0
TEXT
  8
1
 10
14.2700
 20
12.7531
 40
0.250
 50
0.0000
  1
Quantity: 1,0
  7
STANDARD
  0
TEXT
  8
1
 10
14.2700
 20
12.8931
 40
0.250
 50
0.0000
  1
ANNOTATION: RECTANGLE
  7
STANDARD
  0
TEXT
  8
1
 10
14.2700
 20
13.0331
 40
0.250
 50
0.0000
  1
CATEGORY: CAP-C00-BASE
  7
STANDARD
  0
TEXT
  8
1
 10
14.2700
 20
13.1731
 40
0.250
 50
0.0000
  1
SIZE: 12
  7
STANDARD
  0
POLYLINE
  8
1
 66
1
 70
0
  0
VERTEX
  8
1
 10
8.3539
 20
8.6789
  0
VERTEX
  8
1
 10
8.3539
 20
16.5473
  0
SEQEND
  8
1
  0
POLYLINE
  8
84
 66
1
 70
0
  0
VERTEX
  8
84
 10
8.3539
 20
8.6789
  0
VERTEX
  8
84
 10
8.3539
 20
16.5473
  0
SEQEND
  8
84
  0
POINT
  8
2
 10
8.3539
 20
8.6789
  0
POINT
  8
2
 10
8.3539
 20
16.5473
  0
POLYLINE
  8
1
 66
1
 70
0
  0
VERTEX
  8
1
 10
8.3539
 20
16.5473
  0
VERTEX
  8
1
 10
20.1861
 20
16.5473
  0
SEQEND
  8
1
  0
POLYLINE
  8
84
 66
1
 70
0
  0
VERTEX
  8
84
 10
8.3539
 20
16.5473
  0
VERTEX
  8
84
 10
20.1861
 20
16.5473
  0
SEQEND
  8
84
  0
POINT
  8
2
 10
8.3539
 20
16.5473
  0
POINT
  8
2
 10
20.1861
 20
16.5473
  0
POLYLINE
  8
1
 66
1
 70
0
  0
VERTEX
  8
1
 10
20.1861
 20
16.5473
  0
VERTEX
  8
1
 10
20.1861
 20
8.6789
  0
SEQEND
  8
1
  0
POLYLINE
  8
84
 66
1
 70
0
  0
VERTEX
  8
84
 10
20.1861
 20
16.5473
  0
VERTEX
  8
84
 10
20.1861
 20
8.6789
  0
SEQEND
  8
84
  0
POINT
  8
2
 10
20.1861
 20
16.5473
  0
POINT
  8
2
 10
20.1861
 20
8.6789
  0
POLYLINE
  8
1
 66
1
 70
0
  0
VERTEX
  8
1
 10
20.1861
 20
8.6789
  0
VERTEX
  8
1
 10
8.3539
 20
8.6789
  0
SEQEND
  8
1
  0
POLYLINE
  8
84
 66
1
 70
0
  0
VERTEX
  8
84
 10
20.1861
 20
8.6789
  0
VERTEX
  8
84
 10
8.3539
 20
8.6789
  0
SEQEND
  8
84
  0
POINT
  8
2
 10
20.1861
 20
8.6789
  0
POINT
  8
2
 10
8.3539
 20
8.6789
  0
LINE
  8
7
 10
11.3119
 20
12.6131
 11
17.2280
 21
12.6131
  0
LINE
  8
5
 10
11.3119
 20
12.6131
 11
17.2280
 21
12.6131
  0
POINT
  8
2
 10
11.3119
 20
12.6131
  0
POINT
  8
2
 10
17.2280
 20
12.6131
  0
ENDBLK
  0
ENDSEC
  0
SECTION
  2
ENTITIES
  0
TEXT
  8
1
 10
0.0000
 20
0.0000
 40
0.250
 50
0.0000
  1
Style Name: CAP-C70-PASTED
  7
STANDARD
  0
TEXT
  8
1
 10
0.0000
 20
0.1400
 40
0.250
 50
0.0000
  1
Creation Date:  8-09-2026
  7
STANDARD
  0
TEXT
  8
1
 10
0.0000
 20
0.2800
 40
0.250
 50
0.0000
  1
Creation Time: 13:43
  7
STANDARD
  0
TEXT
  8
1
 10
0.0000
 20
0.4200
 40
0.250
 50
0.0000
  1
Author: GERBER TECHNOLOGY ; ACCUMARK ; 17.1.0
  7
STANDARD
  0
TEXT
  8
1
 10
0.0000
 20
0.5600
 40
0.250
 50
0.0000
  1
Grade Rule Table: A1-LADIES
  7
STANDARD
  0
TEXT
  8
1
 10
0.0000
 20
0.7000
 40
0.250
 50
0.0000
  1
Sample Size: 12
  7
STANDARD
  0
TEXT
  8
1
 10
0.0000
 20
0.8400
 40
0.250
 50
0.0000
  1
Units: ENGLISH
  7
STANDARD
  0
TEXT
  8
1
 10
0.0000
 20
0.9800
 40
0.250
 50
0.0000
  1
Curve Tolerance: .006
  7
STANDARD
  0
TEXT
  8
1
 10
0.0000
 20
1.1200
 40
0.250
 50
0.0000
  1
ASTM/D13Proposal 1 Version: D 6673-04
  7
STANDARD
  0
INSERT
  8
1
  2
CAP-C70-PASTED_12
 10
0.0000
 20
0.0000
  0
ENDSEC
  0
EOF
