  0
SECTION
  2
HEADER
  0
ENDSEC
  0
SECTION
  2
BLOCKS
  0
BLOCK
  8
0
  2
CAP-C22-RULE-NONE_8
 70
64
 10
0.0000
 20
0.0000
  0
TEXT
  8
1
 10
15.1849
 20
32.4612
 40
0.250
 50
0.0000
  1
Piece Name: CAP-C22-RULE-NONE
  7
STANDARD
  0
TEXT
  8
1
 10
15.1849
 20
32.6012
 40
0.250
 50
0.0000
  1
Quantity: 1,0
  7
STANDARD
  0
TEXT
  8
1
 10
15.1849
 20
32.7412
 40
0.250
 50
0.0000
  1
ANNOTATION: RECTANGLE
  7
STANDARD
  0
TEXT
  8
1
 10
15.1849
 20
32.8812
 40
0.250
 50
0.0000
  1
CATEGORY: CAP-C00-BASE
  7
STANDARD
  0
TEXT
  8
1
 10
15.1849
 20
33.0212
 40
0.250
 50
0.0000
  1
SIZE: 8
  7
STANDARD
  0
POLYLINE
  8
1
 66
1
 70
0
  0
VERTEX
  8
1
 10
9.2688
 20
28.5270
  0
VERTEX
  8
1
 10
9.2688
 20
36.3954
  0
SEQEND
  8
1
  0
POLYLINE
  8
84
 66
1
 70
0
  0
VERTEX
  8
84
 10
9.2688
 20
28.5270
  0
VERTEX
  8
84
 10
9.2688
 20
36.3954
  0
SEQEND
  8
84
  0
POINT
  8
2
 10
9.2688
 20
28.5270
  0
POINT
  8
2
 10
9.2688
 20
36.3954
  0
POLYLINE
  8
1
 66
1
 70
0
  0
VERTEX
  8
1
 10
9.2688
 20
36.3954
  0
VERTEX
  8
1
 10
21.1010
 20
36.3954
  0
SEQEND
  8
1
  0
POLYLINE
  8
84
 66
1
 70
0
  0
VERTEX
  8
84
 10
9.2688
 20
36.3954
  0
VERTEX
  8
84
 10
21.1010
 20
36.3954
  0
SEQEND
  8
84
  0
POINT
  8
2
 10
9.2688
 20
36.3954
  0
POINT
  8
2
 10
21.1010
 20
36.3954
  0
POLYLINE
  8
1
 66
1
 70
0
  0
VERTEX
  8
1
 10
21.1010
 20
36.3954
  0
VERTEX
  8
1
 10
21.1010
 20
28.5270
  0
SEQEND
  8
1
  0
POLYLINE
  8
84
 66
1
 70
0
  0
VERTEX
  8
84
 10
21.1010
 20
36.3954
  0
VERTEX
  8
84
 10
21.1010
 20
28.5270
  0
SEQEND
  8
84
  0
POINT
  8
2
 10
21.1010
 20
36.3954
  0
POINT
  8
2
 10
21.1010
 20
28.5270
  0
POLYLINE
  8
1
 66
1
 70
0
  0
VERTEX
  8
1
 10
21.1010
 20
28.5270
  0
VERTEX
  8
1
 10
9.2688
 20
28.5270
  0
SEQEND
  8
1
  0
POLYLINE
  8
84
 66
1
 70
0
  0
VERTEX
  8
84
 10
21.1010
 20
28.5270
  0
VERTEX
  8
84
 10
9.2688
 20
28.5270
  0
SEQEND
  8
84
  0
POINT
  8
2
 10
21.1010
 20
28.5270
  0
POINT
  8
2
 10
9.2688
 20
28.5270
  0
LINE
  8
7
 10
12.2268
 20
32.4612
 11
18.1429
 21
32.4612
  0
LINE
  8
5
 10
12.2268
 20
32.4612
 11
18.1429
 21
32.4612
  0
POINT
  8
2
 10
12.2268
 20
32.4612
  0
POINT
  8
2
 10
18.1429
 20
32.4612
  0
ENDBLK
  0
ENDSEC
  0
SECTION
  2
ENTITIES
  0
TEXT
  8
1
 10
0.0000
 20
0.0000
 40
0.250
 50
0.0000
  1
Style Name: CAP-C22-RULE-NONE
  7
STANDARD
  0
TEXT
  8
1
 10
0.0000
 20
0.1400
 40
0.250
 50
0.0000
  1
Creation Date:  7-09-2026
  7
STANDARD
  0
TEXT
  8
1
 10
0.0000
 20
0.2800
 40
0.250
 50
0.0000
  1
Creation Time: 12:52
  7
STANDARD
  0
TEXT
  8
1
 10
0.0000
 20
0.4200
 40
0.250
 50
0.0000
  1
Author: GERBER TECHNOLOGY ; ACCUMARK ; 17.1.0
  7
STANDARD
  0
TEXT
  8
1
 10
0.0000
 20
0.5600
 40
0.250
 50
0.0000
  1
Grade Rule Table: CAP-RULES-A
  7
STANDARD
  0
TEXT
  8
1
 10
0.0000
 20
0.7000
 40
0.250
 50
0.0000
  1
Sample Size: 8
  7
STANDARD
  0
TEXT
  8
1
 10
0.0000
 20
0.8400
 40
0.250
 50
0.0000
  1
Units: ENGLISH
  7
STANDARD
  0
TEXT
  8
1
 10
0.0000
 20
0.9800
 40
0.250
 50
0.0000
  1
Curve Tolerance: .006
  7
STANDARD
  0
TEXT
  8
1
 10
0.0000
 20
1.1200
 40
0.250
 50
0.0000
  1
ASTM/D13Proposal 1 Version: D 6673-04
  7
STANDARD
  0
INSERT
  8
1
  2
CAP-C22-RULE-NONE_8
 10
0.0000
 20
0.0000
  0
ENDSEC
  0
EOF
