  0
SECTION
  2
HEADER
  0
ENDSEC
  0
SECTION
  2
BLOCKS
  0
BLOCK
  8
0
  2
CAP-C13-LONGNAME-1234567890ABC_12
 70
64
 10
0.0000
 20
0.0000
  0
TEXT
  8
1
 10
3.6015
 20
19.2073
 40
0.250
 50
0.0000
  1
Piece Name: CAP-C13-LONGNAME-1234567890ABC
  7
STANDARD
  0
TEXT
  8
1
 10
3.6015
 20
19.3473
 40
0.250
 50
0.0000
  1
Quantity: 1,0
  7
STANDARD
  0
TEXT
  8
1
 10
3.6015
 20
19.4873
 40
0.250
 50
0.0000
  1
ANNOTATION: RECTANGLE
  7
STANDARD
  0
TEXT
  8
1
 10
3.6015
 20
19.6273
 40
0.250
 50
0.0000
  1
CATEGORY: CAP-C13-LONGNAME-1234567890ABC
  7
STANDARD
  0
TEXT
  8
1
 10
3.6015
 20
19.7673
 40
0.250
 50
0.0000
  1
SIZE: 12
  7
STANDARD
  0
POLYLINE
  8
1
 66
1
 70
0
  0
VERTEX
  8
1
 10
3.1081
 20
18.8866
  0
VERTEX
  8
1
 10
3.1081
 20
19.5280
  0
SEQEND
  8
1
  0
POLYLINE
  8
84
 66
1
 70
0
  0
VERTEX
  8
84
 10
3.1081
 20
18.8866
  0
VERTEX
  8
84
 10
3.1081
 20
19.5280
  0
SEQEND
  8
84
  0
POINT
  8
2
 10
3.1081
 20
18.8866
  0
POINT
  8
2
 10
3.1081
 20
19.5280
  0
POLYLINE
  8
1
 66
1
 70
0
  0
VERTEX
  8
1
 10
3.1081
 20
19.5280
  0
VERTEX
  8
1
 10
4.0949
 20
19.5280
  0
SEQEND
  8
1
  0
POLYLINE
  8
84
 66
1
 70
0
  0
VERTEX
  8
84
 10
3.1081
 20
19.5280
  0
VERTEX
  8
84
 10
4.0949
 20
19.5280
  0
SEQEND
  8
84
  0
POINT
  8
2
 10
3.1081
 20
19.5280
  0
POINT
  8
2
 10
4.0949
 20
19.5280
  0
POLYLINE
  8
1
 66
1
 70
0
  0
VERTEX
  8
1
 10
4.0949
 20
19.5280
  0
VERTEX
  8
1
 10
4.0949
 20
18.8866
  0
SEQEND
  8
1
  0
POLYLINE
  8
84
 66
1
 70
0
  0
VERTEX
  8
84
 10
4.0949
 20
19.5280
  0
VERTEX
  8
84
 10
4.0949
 20
18.8866
  0
SEQEND
  8
84
  0
POINT
  8
2
 10
4.0949
 20
19.5280
  0
POINT
  8
2
 10
4.0949
 20
18.8866
  0
POLYLINE
  8
1
 66
1
 70
0
  0
VERTEX
  8
1
 10
4.0949
 20
18.8866
  0
VERTEX
  8
1
 10
3.1081
 20
18.8866
  0
SEQEND
  8
1
  0
POLYLINE
  8
84
 66
1
 70
0
  0
VERTEX
  8
84
 10
4.0949
 20
18.8866
  0
VERTEX
  8
84
 10
3.1081
 20
18.8866
  0
SEQEND
  8
84
  0
POINT
  8
2
 10
4.0949
 20
18.8866
  0
POINT
  8
2
 10
3.1081
 20
18.8866
  0
LINE
  8
7
 10
3.3548
 20
19.2073
 11
3.8482
 21
19.2073
  0
LINE
  8
5
 10
3.3548
 20
19.2073
 11
3.8482
 21
19.2073
  0
POINT
  8
2
 10
3.3548
 20
19.2073
  0
POINT
  8
2
 10
3.8482
 20
19.2073
  0
ENDBLK
  0
ENDSEC
  0
SECTION
  2
ENTITIES
  0
TEXT
  8
1
 10
0.0000
 20
0.0000
 40
0.250
 50
0.0000
  1
Style Name: CAP-C13-LONGNAME-1234567890ABC
  7
STANDARD
  0
TEXT
  8
1
 10
0.0000
 20
0.1400
 40
0.250
 50
0.0000
  1
Creation Date:  8-09-2026
  7
STANDARD
  0
TEXT
  8
1
 10
0.0000
 20
0.2800
 40
0.250
 50
0.0000
  1
Creation Time: 20:34
  7
STANDARD
  0
TEXT
  8
1
 10
0.0000
 20
0.4200
 40
0.250
 50
0.0000
  1
Author: GERBER TECHNOLOGY ; ACCUMARK ; 17.1.0
  7
STANDARD
  0
TEXT
  8
1
 10
0.0000
 20
0.5600
 40
0.250
 50
0.0000
  1
Grade Rule Table: A1-LADIES
  7
STANDARD
  0
TEXT
  8
1
 10
0.0000
 20
0.7000
 40
0.250
 50
0.0000
  1
Sample Size: 12
  7
STANDARD
  0
TEXT
  8
1
 10
0.0000
 20
0.8400
 40
0.250
 50
0.0000
  1
Units: ENGLISH
  7
STANDARD
  0
TEXT
  8
1
 10
0.0000
 20
0.9800
 40
0.250
 50
0.0000
  1
Curve Tolerance: .006
  7
STANDARD
  0
TEXT
  8
1
 10
0.0000
 20
1.1200
 40
0.250
 50
0.0000
  1
ASTM/D13Proposal 1 Version: D 6673-04
  7
STANDARD
  0
INSERT
  8
1
  2
CAP-C13-LONGNAME-1234567890ABC_12
 10
0.0000
 20
0.0000
  0
ENDSEC
  0
EOF
