  0
SECTION
  2
HEADER
  0
ENDSEC
  0
SECTION
  2
BLOCKS
  0
BLOCK
  8
0
  2
CAP-C62-DART_12
 70
64
 10
0.0000
 20
0.0000
  0
TEXT
  8
1
 10
-6.9263
 20
25.9944
 40
0.250
 50
0.0000
  1
Piece Name: CAP-C62-DART
  7
STANDARD
  0
TEXT
  8
1
 10
-6.9263
 20
26.1344
 40
0.250
 50
0.0000
  1
Quantity: 1,0
  7
STANDARD
  0
TEXT
  8
1
 10
-6.9263
 20
26.2744
 40
0.250
 50
0.0000
  1
ANNOTATION: RECTANGLE
  7
STANDARD
  0
TEXT
  8
1
 10
-6.9263
 20
26.4144
 40
0.250
 50
0.0000
  1
CATEGORY: CAP-C62-DART
  7
STANDARD
  0
TEXT
  8
1
 10
-6.9263
 20
26.5544
 40
0.250
 50
0.0000
  1
SIZE: 12
  7
STANDARD
  0
POLYLINE
  8
1
 66
1
 70
0
  0
VERTEX
  8
1
 10
-14.2281
 20
20.7789
  0
VERTEX
  8
1
 10
-14.2281
 20
31.2100
  0
SEQEND
  8
1
  0
POLYLINE
  8
84
 66
1
 70
0
  0
VERTEX
  8
84
 10
-14.2281
 20
20.7789
  0
VERTEX
  8
84
 10
-14.2281
 20
31.2100
  0
SEQEND
  8
84
  0
POINT
  8
2
 10
-14.2281
 20
20.7789
  0
POINT
  8
2
 10
-14.2281
 20
31.2100
  0
POLYLINE
  8
1
 66
1
 70
0
  0
VERTEX
  8
1
 10
-14.2281
 20
31.2100
  0
VERTEX
  8
1
 10
0.3755
 20
31.2100
  0
SEQEND
  8
1
  0
POLYLINE
  8
84
 66
1
 70
0
  0
VERTEX
  8
84
 10
-14.2281
 20
31.2100
  0
VERTEX
  8
84
 10
0.3755
 20
31.2100
  0
SEQEND
  8
84
  0
POINT
  8
2
 10
-14.2281
 20
31.2100
  0
POINT
  8
2
 10
0.3755
 20
31.2100
  0
POLYLINE
  8
1
 66
1
 70
0
  0
VERTEX
  8
1
 10
0.3755
 20
31.2100
  0
VERTEX
  8
1
 10
0.3755
 20
20.7789
  0
SEQEND
  8
1
  0
POLYLINE
  8
84
 66
1
 70
0
  0
VERTEX
  8
84
 10
0.3755
 20
31.2100
  0
VERTEX
  8
84
 10
0.3755
 20
20.7789
  0
SEQEND
  8
84
  0
POINT
  8
2
 10
0.3755
 20
31.2100
  0
POINT
  8
2
 10
0.3755
 20
20.7789
  0
POLYLINE
  8
1
 66
1
 70
0
  0
VERTEX
  8
1
 10
0.3755
 20
20.7789
  0
VERTEX
  8
1
 10
-6.9081
 20
20.7789
  0
SEQEND
  8
1
  0
POLYLINE
  8
84
 66
1
 70
0
  0
VERTEX
  8
84
 10
0.3755
 20
20.7789
  0
VERTEX
  8
84
 10
-6.9081
 20
20.7789
  0
SEQEND
  8
84
  0
POINT
  8
2
 10
0.3755
 20
20.7789
  0
POINT
  8
2
 10
-6.9081
 20
20.7789
  0
POLYLINE
  8
1
 66
1
 70
0
  0
VERTEX
  8
1
 10
-6.9081
 20
20.7789
  0
VERTEX
  8
1
 10
-7.3018
 20
24.1586
  0
VERTEX
  8
1
 10
-7.6955
 20
20.7789
  0
SEQEND
  8
1
  0
POLYLINE
  8
84
 66
1
 70
0
  0
VERTEX
  8
84
 10
-6.9081
 20
20.7789
  0
VERTEX
  8
84
 10
-7.3018
 20
24.1586
  0
VERTEX
  8
84
 10
-7.6955
 20
20.7789
  0
SEQEND
  8
84
  0
POINT
  8
2
 10
-6.9081
 20
20.7789
  0
POINT
  8
2
 10
-7.3018
 20
24.1586
  0
POINT
  8
2
 10
-7.6955
 20
20.7789
  0
POLYLINE
  8
1
 66
1
 70
0
  0
VERTEX
  8
1
 10
-7.6955
 20
20.7789
  0
VERTEX
  8
1
 10
-14.2281
 20
20.7789
  0
SEQEND
  8
1
  0
POLYLINE
  8
84
 66
1
 70
0
  0
VERTEX
  8
84
 10
-7.6955
 20
20.7789
  0
VERTEX
  8
84
 10
-14.2281
 20
20.7789
  0
SEQEND
  8
84
  0
POINT
  8
2
 10
-7.6955
 20
20.7789
  0
POINT
  8
2
 10
-14.2281
 20
20.7789
  0
LINE
  8
7
 10
-10.5772
 20
25.9945
 11
-3.2754
 21
25.9945
  0
LINE
  8
5
 10
-10.5772
 20
25.9945
 11
-3.2754
 21
25.9945
  0
POINT
  8
2
 10
-10.5772
 20
25.9945
  0
POINT
  8
2
 10
-3.2754
 20
25.9945
  0
ENDBLK
  0
ENDSEC
  0
SECTION
  2
ENTITIES
  0
TEXT
  8
1
 10
0.0000
 20
0.0000
 40
0.250
 50
0.0000
  1
Style Name: CAP-C62-DART
  7
STANDARD
  0
TEXT
  8
1
 10
0.0000
 20
0.1400
 40
0.250
 50
0.0000
  1
Creation Date:  8-09-2026
  7
STANDARD
  0
TEXT
  8
1
 10
0.0000
 20
0.2800
 40
0.250
 50
0.0000
  1
Creation Time: 10:04
  7
STANDARD
  0
TEXT
  8
1
 10
0.0000
 20
0.4200
 40
0.250
 50
0.0000
  1
Author: GERBER TECHNOLOGY ; ACCUMARK ; 17.1.0
  7
STANDARD
  0
TEXT
  8
1
 10
0.0000
 20
0.5600
 40
0.250
 50
0.0000
  1
Grade Rule Table: A1-LADIES
  7
STANDARD
  0
TEXT
  8
1
 10
0.0000
 20
0.7000
 40
0.250
 50
0.0000
  1
Sample Size: 12
  7
STANDARD
  0
TEXT
  8
1
 10
0.0000
 20
0.8400
 40
0.250
 50
0.0000
  1
Units: ENGLISH
  7
STANDARD
  0
TEXT
  8
1
 10
0.0000
 20
0.9800
 40
0.250
 50
0.0000
  1
Curve Tolerance: .006
  7
STANDARD
  0
TEXT
  8
1
 10
0.0000
 20
1.1200
 40
0.250
 50
0.0000
  1
ASTM/D13Proposal 1 Version: D 6673-04
  7
STANDARD
  0
INSERT
  8
1
  2
CAP-C62-DART_12
 10
0.0000
 20
0.0000
  0
ENDSEC
  0
EOF
