  0
SECTION
  2
HEADER
  0
ENDSEC
  0
SECTION
  2
BLOCKS
  0
BLOCK
  8
0
  2
TASK6-CURVE_8
 70
64
 10
0.0000
 20
0.0000
  0
TEXT
  8
1
 10
43.0267
 20
3.2405
 40
0.250
 50
0.0000
  1
Piece Name: TASK6-CURVE
  7
STANDARD
  0
TEXT
  8
1
 10
43.0267
 20
3.3805
 40
0.250
 50
0.0000
  1
Quantity: 1,0
  7
STANDARD
  0
TEXT
  8
1
 10
43.0267
 20
3.5205
 40
0.250
 50
0.0000
  1
ANNOTATION: CIRCLE
  7
STANDARD
  0
TEXT
  8
1
 10
43.0267
 20
3.6605
 40
0.250
 50
0.0000
  1
CATEGORY: TASK6-CURVE
  7
STANDARD
  0
TEXT
  8
1
 10
43.0267
 20
3.8005
 40
0.250
 50
0.0000
  1
SIZE: 8
  7
STANDARD
  0
POLYLINE
  8
1
 66
1
 70
0
  0
VERTEX
  8
1
 10
35.3358
 20
3.2405
  0
VERTEX
  8
1
 10
35.5979
 20
5.2310
  0
VERTEX
  8
1
 10
35.9138
 20
6.1590
  0
VERTEX
  8
1
 10
36.3662
 20
7.0859
  0
VERTEX
  8
1
 10
37.5630
 20
8.6516
  0
VERTEX
  8
1
 10
37.5884
 20
8.6788
  0
VERTEX
  8
1
 10
39.1812
 20
9.9010
  0
VERTEX
  8
1
 10
40.0425
 20
10.3257
  0
VERTEX
  8
1
 10
41.0361
 20
10.6693
  0
VERTEX
  8
1
 10
43.0267
 20
10.9314
  0
SEQEND
  8
1
  0
POLYLINE
  8
84
 66
1
 70
0
  0
VERTEX
  8
84
 10
35.3358
 20
3.2405
  0
VERTEX
  8
84
 10
35.3573
 20
3.7424
  0
VERTEX
  8
84
 10
35.4109
 20
4.2422
  0
VERTEX
  8
84
 10
35.4915
 20
4.7390
  0
VERTEX
  8
84
 10
35.5979
 20
5.2310
  0
VERTEX
  8
84
 10
35.7374
 20
5.7009
  0
VERTEX
  8
84
 10
35.9138
 20
6.1590
  0
VERTEX
  8
84
 10
36.1218
 20
6.6318
  0
VERTEX
  8
84
 10
36.2384
 20
6.8619
  0
VERTEX
  8
84
 10
36.3662
 20
7.0859
  0
VERTEX
  8
84
 10
36.6412
 20
7.4945
  0
VERTEX
  8
84
 10
36.9356
 20
7.8898
  0
VERTEX
  8
84
 10
37.2430
 20
8.2759
  0
VERTEX
  8
84
 10
37.5630
 20
8.6516
  0
VERTEX
  8
84
 10
37.5884
 20
8.6788
  0
VERTEX
  8
84
 10
37.9649
 20
9.0119
  0
VERTEX
  8
84
 10
38.3581
 20
9.3253
  0
VERTEX
  8
84
 10
38.7626
 20
9.6233
  0
VERTEX
  8
84
 10
39.1812
 20
9.9010
  0
VERTEX
  8
84
 10
39.6032
 20
10.1301
  0
VERTEX
  8
84
 10
40.0425
 20
10.3257
  0
VERTEX
  8
84
 10
40.5328
 20
10.5175
  0
VERTEX
  8
84
 10
41.0361
 20
10.6693
  0
VERTEX
  8
84
 10
41.5280
 20
10.7763
  0
VERTEX
  8
84
 10
42.0248
 20
10.8569
  0
VERTEX
  8
84
 10
42.5247
 20
10.9102
  0
VERTEX
  8
84
 10
43.0267
 20
10.9314
  0
SEQEND
  8
84
  0
POINT
  8
3
 10
35.3358
 20
3.2405
  0
POINT
  8
3
 10
35.5979
 20
5.2310
  0
POINT
  8
3
 10
35.9138
 20
6.1590
  0
POINT
  8
3
 10
36.3662
 20
7.0859
  0
POINT
  8
3
 10
37.5630
 20
8.6516
  0
POINT
  8
3
 10
37.5884
 20
8.6788
  0
POINT
  8
3
 10
39.1812
 20
9.9010
  0
POINT
  8
3
 10
40.0425
 20
10.3257
  0
POINT
  8
3
 10
41.0361
 20
10.6693
  0
POINT
  8
3
 10
43.0267
 20
10.9314
  0
POLYLINE
  8
1
 66
1
 70
0
  0
VERTEX
  8
1
 10
43.0267
 20
10.9314
  0
VERTEX
  8
1
 10
45.0173
 20
10.6693
  0
VERTEX
  8
1
 10
45.9129
 20
10.3655
  0
VERTEX
  8
1
 10
46.8722
 20
9.9010
  0
VERTEX
  8
1
 10
48.4356
 20
8.7061
  0
VERTEX
  8
1
 10
48.4650
 20
8.6788
  0
VERTEX
  8
1
 10
49.6872
 20
7.0859
  0
VERTEX
  8
1
 10
50.1241
 20
6.1977
  0
VERTEX
  8
1
 10
50.4555
 20
5.2310
  0
VERTEX
  8
1
 10
50.7176
 20
3.2405
  0
SEQEND
  8
1
  0
POLYLINE
  8
84
 66
1
 70
0
  0
VERTEX
  8
84
 10
43.0267
 20
10.9314
  0
VERTEX
  8
84
 10
43.5286
 20
10.9098
  0
VERTEX
  8
84
 10
44.0284
 20
10.8562
  0
VERTEX
  8
84
 10
44.5253
 20
10.7756
  0
VERTEX
  8
84
 10
45.0173
 20
10.6693
  0
VERTEX
  8
84
 10
45.4707
 20
10.5350
  0
VERTEX
  8
84
 10
45.9129
 20
10.3655
  0
VERTEX
  8
84
 10
46.4022
 20
10.1522
  0
VERTEX
  8
84
 10
46.6404
 20
10.0325
  0
VERTEX
  8
84
 10
46.8722
 20
9.9010
  0
VERTEX
  8
84
 10
47.2803
 20
9.6266
  0
VERTEX
  8
84
 10
47.6749
 20
9.3326
  0
VERTEX
  8
84
 10
48.0603
 20
9.0255
  0
VERTEX
  8
84
 10
48.4356
 20
8.7061
  0
VERTEX
  8
84
 10
48.4650
 20
8.6788
  0
VERTEX
  8
84
 10
48.7984
 20
8.3026
  0
VERTEX
  8
84
 10
49.1119
 20
7.9094
  0
VERTEX
  8
84
 10
49.4098
 20
7.5047
  0
VERTEX
  8
84
 10
49.6872
 20
7.0859
  0
VERTEX
  8
84
 10
49.9231
 20
6.6508
  0
VERTEX
  8
84
 10
50.1241
 20
6.1977
  0
VERTEX
  8
84
 10
50.3092
 20
5.7206
  0
VERTEX
  8
84
 10
50.4555
 20
5.2310
  0
VERTEX
  8
84
 10
50.5622
 20
4.7391
  0
VERTEX
  8
84
 10
50.6428
 20
4.2423
  0
VERTEX
  8
84
 10
50.6958
 20
3.7424
  0
VERTEX
  8
84
 10
50.7176
 20
3.2405
  0
SEQEND
  8
84
  0
POINT
  8
3
 10
43.0267
 20
10.9314
  0
POINT
  8
3
 10
45.0173
 20
10.6693
  0
POINT
  8
3
 10
45.9129
 20
10.3655
  0
POINT
  8
3
 10
46.8722
 20
9.9010
  0
POINT
  8
3
 10
48.4356
 20
8.7061
  0
POINT
  8
3
 10
48.4650
 20
8.6788
  0
POINT
  8
3
 10
49.6872
 20
7.0859
  0
POINT
  8
3
 10
50.1241
 20
6.1977
  0
POINT
  8
3
 10
50.4555
 20
5.2310
  0
POINT
  8
3
 10
50.7176
 20
3.2405
  0
POLYLINE
  8
1
 66
1
 70
0
  0
VERTEX
  8
1
 10
50.7176
 20
3.2405
  0
VERTEX
  8
1
 10
50.4555
 20
1.2499
  0
VERTEX
  8
1
 10
49.6872
 20
-0.6050
  0
VERTEX
  8
1
 10
48.4650
 20
-2.1978
  0
VERTEX
  8
1
 10
48.4356
 20
-2.2252
  0
VERTEX
  8
1
 10
46.8722
 20
-3.4200
  0
VERTEX
  8
1
 10
45.0173
 20
-4.1884
  0
VERTEX
  8
1
 10
43.0267
 20
-4.4504
  0
SEQEND
  8
1
  0
POLYLINE
  8
84
 66
1
 70
0
  0
VERTEX
  8
84
 10
50.7176
 20
3.2405
  0
VERTEX
  8
84
 10
50.7005
 20
2.7376
  0
VERTEX
  8
84
 10
50.6502
 20
2.2368
  0
VERTEX
  8
84
 10
50.5687
 20
1.7402
  0
VERTEX
  8
84
 10
50.4555
 20
1.2499
  0
VERTEX
  8
84
 10
50.3083
 20
0.7687
  0
VERTEX
  8
84
 10
50.1307
 20
0.2979
  0
VERTEX
  8
84
 10
49.9240
 20
-0.1610
  0
VERTEX
  8
84
 10
49.6872
 20
-0.6050
  0
VERTEX
  8
84
 10
49.4156
 20
-1.0273
  0
VERTEX
  8
84
 10
49.1185
 20
-1.4324
  0
VERTEX
  8
84
 10
48.8020
 20
-1.8238
  0
VERTEX
  8
84
 10
48.4650
 20
-2.1978
  0
VERTEX
  8
84
 10
48.4356
 20
-2.2252
  0
VERTEX
  8
84
 10
48.0625
 20
-2.5481
  0
VERTEX
  8
84
 10
47.6786
 20
-2.8578
  0
VERTEX
  8
84
 10
47.2835
 20
-3.1509
  0
VERTEX
  8
84
 10
46.8722
 20
-3.4200
  0
VERTEX
  8
84
 10
46.4284
 20
-3.6571
  0
VERTEX
  8
84
 10
45.9692
 20
-3.8633
  0
VERTEX
  8
84
 10
45.4984
 20
-4.0411
  0
VERTEX
  8
84
 10
45.0173
 20
-4.1884
  0
VERTEX
  8
84
 10
44.5270
 20
-4.3016
  0
VERTEX
  8
84
 10
44.0304
 20
-4.3831
  0
VERTEX
  8
84
 10
43.5296
 20
-4.4333
  0
VERTEX
  8
84
 10
43.0267
 20
-4.4504
  0
SEQEND
  8
84
  0
POINT
  8
3
 10
50.7176
 20
3.2405
  0
POINT
  8
3
 10
50.4555
 20
1.2499
  0
POINT
  8
3
 10
49.6872
 20
-0.6050
  0
POINT
  8
3
 10
48.4650
 20
-2.1978
  0
POINT
  8
3
 10
48.4356
 20
-2.2252
  0
POINT
  8
3
 10
46.8722
 20
-3.4200
  0
POINT
  8
3
 10
45.0173
 20
-4.1884
  0
POINT
  8
3
 10
43.0267
 20
-4.4504
  0
POLYLINE
  8
1
 66
1
 70
0
  0
VERTEX
  8
1
 10
43.0267
 20
-4.4504
  0
VERTEX
  8
1
 10
41.0361
 20
-4.1884
  0
VERTEX
  8
1
 10
40.0425
 20
-3.8448
  0
VERTEX
  8
1
 10
39.1812
 20
-3.4200
  0
VERTEX
  8
1
 10
37.5884
 20
-2.1978
  0
VERTEX
  8
1
 10
37.5630
 20
-2.1706
  0
VERTEX
  8
1
 10
36.3662
 20
-0.6050
  0
VERTEX
  8
1
 10
35.9138
 20
0.3220
  0
VERTEX
  8
1
 10
35.5979
 20
1.2499
  0
VERTEX
  8
1
 10
35.3358
 20
3.2405
  0
SEQEND
  8
1
  0
POLYLINE
  8
84
 66
1
 70
0
  0
VERTEX
  8
84
 10
43.0267
 20
-4.4504
  0
VERTEX
  8
84
 10
42.5247
 20
-4.4288
  0
VERTEX
  8
84
 10
42.0248
 20
-4.3759
  0
VERTEX
  8
84
 10
41.5280
 20
-4.2954
  0
VERTEX
  8
84
 10
41.0361
 20
-4.1884
  0
VERTEX
  8
84
 10
40.5328
 20
-4.0366
  0
VERTEX
  8
84
 10
40.0425
 20
-3.8448
  0
VERTEX
  8
84
 10
39.6032
 20
-3.6492
  0
VERTEX
  8
84
 10
39.1812
 20
-3.4200
  0
VERTEX
  8
84
 10
38.7626
 20
-3.1423
  0
VERTEX
  8
84
 10
38.3581
 20
-2.8443
  0
VERTEX
  8
84
 10
37.9649
 20
-2.5309
  0
VERTEX
  8
84
 10
37.5884
 20
-2.1978
  0
VERTEX
  8
84
 10
37.5630
 20
-2.1706
  0
VERTEX
  8
84
 10
37.2430
 20
-1.7949
  0
VERTEX
  8
84
 10
36.9356
 20
-1.4088
  0
VERTEX
  8
84
 10
36.6412
 20
-1.0136
  0
VERTEX
  8
84
 10
36.3662
 20
-0.6050
  0
VERTEX
  8
84
 10
36.2384
 20
-0.3810
  0
VERTEX
  8
84
 10
36.1218
 20
-0.1508
  0
VERTEX
  8
84
 10
35.9138
 20
0.3220
  0
VERTEX
  8
84
 10
35.7374
 20
0.7800
  0
VERTEX
  8
84
 10
35.5979
 20
1.2499
  0
VERTEX
  8
84
 10
35.4914
 20
1.7419
  0
VERTEX
  8
84
 10
35.4109
 20
2.2387
  0
VERTEX
  8
84
 10
35.3573
 20
2.7386
  0
VERTEX
  8
84
 10
35.3358
 20
3.2405
  0
SEQEND
  8
84
  0
POINT
  8
3
 10
43.0267
 20
-4.4504
  0
POINT
  8
3
 10
41.0361
 20
-4.1884
  0
POINT
  8
3
 10
40.0425
 20
-3.8448
  0
POINT
  8
3
 10
39.1812
 20
-3.4200
  0
POINT
  8
3
 10
37.5884
 20
-2.1978
  0
POINT
  8
3
 10
37.5630
 20
-2.1706
  0
POINT
  8
3
 10
36.3662
 20
-0.6050
  0
POINT
  8
3
 10
35.9138
 20
0.3220
  0
POINT
  8
3
 10
35.5979
 20
1.2499
  0
POINT
  8
3
 10
35.3358
 20
3.2405
  0
POINT
  8
2
 10
35.3358
 20
3.2405
  0
LINE
  8
7
 10
39.1812
 20
3.2405
 11
46.8722
 21
3.2405
  0
LINE
  8
5
 10
39.1812
 20
3.2405
 11
46.8722
 21
3.2405
  0
POINT
  8
2
 10
39.1812
 20
3.2405
  0
POINT
  8
2
 10
46.8722
 20
3.2405
  0
ENDBLK
  0
ENDSEC
  0
SECTION
  2
ENTITIES
  0
TEXT
  8
1
 10
0.0000
 20
0.0000
 40
0.250
 50
0.0000
  1
Style Name: TASK6-CURVE
  7
STANDARD
  0
TEXT
  8
1
 10
0.0000
 20
0.1400
 40
0.250
 50
0.0000
  1
Creation Date:  7-09-2026
  7
STANDARD
  0
TEXT
  8
1
 10
0.0000
 20
0.2800
 40
0.250
 50
0.0000
  1
Creation Time:  9:19
  7
STANDARD
  0
TEXT
  8
1
 10
0.0000
 20
0.4200
 40
0.250
 50
0.0000
  1
Author: GERBER TECHNOLOGY ; ACCUMARK ; 17.1.0
  7
STANDARD
  0
TEXT
  8
1
 10
0.0000
 20
0.5600
 40
0.250
 50
0.0000
  1
Grade Rule Table: TASK6-RULES
  7
STANDARD
  0
TEXT
  8
1
 10
0.0000
 20
0.7000
 40
0.250
 50
0.0000
  1
Sample Size: 8
  7
STANDARD
  0
TEXT
  8
1
 10
0.0000
 20
0.8400
 40
0.250
 50
0.0000
  1
Units: ENGLISH
  7
STANDARD
  0
TEXT
  8
1
 10
0.0000
 20
0.9800
 40
0.250
 50
0.0000
  1
Curve Tolerance: .006
  7
STANDARD
  0
TEXT
  8
1
 10
0.0000
 20
1.1200
 40
0.250
 50
0.0000
  1
ASTM/D13Proposal 1 Version: D 6673-04
  7
STANDARD
  0
INSERT
  8
1
  2
TASK6-CURVE_8
 10
0.0000
 20
0.0000
  0
ENDSEC
  0
EOF
