  0
SECTION
  2
HEADER
  0
ENDSEC
  0
SECTION
  2
BLOCKS
  0
BLOCK
  8
0
  2
CAP-C11-HEX_12
 70
64
 10
0.0000
 20
0.0000
  0
TEXT
  8
1
 10
58.7504
 20
20.0240
 40
0.250
 50
0.0000
  1
Piece Name: CAP-C11-HEX
  7
STANDARD
  0
TEXT
  8
1
 10
58.7504
 20
20.1640
 40
0.250
 50
0.0000
  1
Quantity: 1,0
  7
STANDARD
  0
TEXT
  8
1
 10
58.7504
 20
20.3040
 40
0.250
 50
0.0000
  1
ANNOTATION: RECTANGLE
  7
STANDARD
  0
TEXT
  8
1
 10
58.7504
 20
20.4440
 40
0.250
 50
0.0000
  1
CATEGORY: CAP-C11-HEX
  7
STANDARD
  0
TEXT
  8
1
 10
58.7504
 20
20.5840
 40
0.250
 50
0.0000
  1
SIZE: 12
  7
STANDARD
  0
POLYLINE
  8
1
 66
1
 70
0
  0
VERTEX
  8
1
 10
49.5125
 20
13.3266
  0
VERTEX
  8
1
 10
49.5125
 20
27.1834
  0
SEQEND
  8
1
  0
POLYLINE
  8
84
 66
1
 70
0
  0
VERTEX
  8
84
 10
49.5125
 20
13.3266
  0
VERTEX
  8
84
 10
49.5125
 20
27.1834
  0
SEQEND
  8
84
  0
POINT
  8
2
 10
49.5125
 20
13.3266
  0
POINT
  8
2
 10
49.5125
 20
27.1834
  0
POLYLINE
  8
1
 66
1
 70
0
  0
VERTEX
  8
1
 10
49.5125
 20
27.1834
  0
VERTEX
  8
1
 10
58.7504
 20
30.4167
  0
SEQEND
  8
1
  0
POLYLINE
  8
84
 66
1
 70
0
  0
VERTEX
  8
84
 10
49.5125
 20
27.1834
  0
VERTEX
  8
84
 10
58.7504
 20
30.4167
  0
SEQEND
  8
84
  0
POINT
  8
2
 10
49.5125
 20
27.1834
  0
POINT
  8
2
 10
58.7504
 20
30.4167
  0
POLYLINE
  8
1
 66
1
 70
0
  0
VERTEX
  8
1
 10
58.7504
 20
30.4167
  0
VERTEX
  8
1
 10
67.9883
 20
27.1834
  0
SEQEND
  8
1
  0
POLYLINE
  8
84
 66
1
 70
0
  0
VERTEX
  8
84
 10
58.7504
 20
30.4167
  0
VERTEX
  8
84
 10
67.9883
 20
27.1834
  0
SEQEND
  8
84
  0
POINT
  8
2
 10
58.7504
 20
30.4167
  0
POINT
  8
2
 10
67.9883
 20
27.1834
  0
POLYLINE
  8
1
 66
1
 70
0
  0
VERTEX
  8
1
 10
67.9883
 20
27.1834
  0
VERTEX
  8
1
 10
67.9883
 20
13.3266
  0
SEQEND
  8
1
  0
POLYLINE
  8
84
 66
1
 70
0
  0
VERTEX
  8
84
 10
67.9883
 20
27.1834
  0
VERTEX
  8
84
 10
67.9883
 20
13.3266
  0
SEQEND
  8
84
  0
POINT
  8
2
 10
67.9883
 20
27.1834
  0
POINT
  8
2
 10
67.9883
 20
13.3266
  0
POLYLINE
  8
1
 66
1
 70
0
  0
VERTEX
  8
1
 10
67.9883
 20
13.3266
  0
VERTEX
  8
1
 10
58.7504
 20
9.6314
  0
SEQEND
  8
1
  0
POLYLINE
  8
84
 66
1
 70
0
  0
VERTEX
  8
84
 10
67.9883
 20
13.3266
  0
VERTEX
  8
84
 10
58.7504
 20
9.6314
  0
SEQEND
  8
84
  0
POINT
  8
2
 10
67.9883
 20
13.3266
  0
POINT
  8
2
 10
58.7504
 20
9.6314
  0
POLYLINE
  8
1
 66
1
 70
0
  0
VERTEX
  8
1
 10
58.7504
 20
9.6314
  0
VERTEX
  8
1
 10
49.5125
 20
13.3266
  0
SEQEND
  8
1
  0
POLYLINE
  8
84
 66
1
 70
0
  0
VERTEX
  8
84
 10
58.7504
 20
9.6314
  0
VERTEX
  8
84
 10
49.5125
 20
13.3266
  0
SEQEND
  8
84
  0
POINT
  8
2
 10
58.7504
 20
9.6314
  0
POINT
  8
2
 10
49.5125
 20
13.3266
  0
LINE
  8
7
 10
54.1314
 20
20.2550
 11
63.3693
 21
20.2550
  0
LINE
  8
5
 10
54.1314
 20
20.2550
 11
63.3693
 21
20.2550
  0
POINT
  8
2
 10
54.1314
 20
20.2550
  0
POINT
  8
2
 10
63.3693
 20
20.2550
  0
ENDBLK
  0
ENDSEC
  0
SECTION
  2
ENTITIES
  0
TEXT
  8
1
 10
0.0000
 20
0.0000
 40
0.250
 50
0.0000
  1
Style Name: CAP-C11-HEX
  7
STANDARD
  0
TEXT
  8
1
 10
0.0000
 20
0.1400
 40
0.250
 50
0.0000
  1
Creation Date:  7-09-2026
  7
STANDARD
  0
TEXT
  8
1
 10
0.0000
 20
0.2800
 40
0.250
 50
0.0000
  1
Creation Time: 14:09
  7
STANDARD
  0
TEXT
  8
1
 10
0.0000
 20
0.4200
 40
0.250
 50
0.0000
  1
Author: GERBER TECHNOLOGY ; ACCUMARK ; 17.1.0
  7
STANDARD
  0
TEXT
  8
1
 10
0.0000
 20
0.5600
 40
0.250
 50
0.0000
  1
Grade Rule Table: A1-LADIES
  7
STANDARD
  0
TEXT
  8
1
 10
0.0000
 20
0.7000
 40
0.250
 50
0.0000
  1
Sample Size: 12
  7
STANDARD
  0
TEXT
  8
1
 10
0.0000
 20
0.8400
 40
0.250
 50
0.0000
  1
Units: ENGLISH
  7
STANDARD
  0
TEXT
  8
1
 10
0.0000
 20
0.9800
 40
0.250
 50
0.0000
  1
Curve Tolerance: .006
  7
STANDARD
  0
TEXT
  8
1
 10
0.0000
 20
1.1200
 40
0.250
 50
0.0000
  1
ASTM/D13Proposal 1 Version: D 6673-04
  7
STANDARD
  0
INSERT
  8
1
  2
CAP-C11-HEX_12
 10
0.0000
 20
0.0000
  0
ENDSEC
  0
EOF
