  0
SECTION
  2
HEADER
  0
ENDSEC
  0
SECTION
  2
BLOCKS
  0
BLOCK
  8
0
  2
2303-B1-A1- OUCF-SP24_34A
 70
64
 10
0.0000
 20
0.0000
  0
TEXT
  8
1
 10
28.3991
 20
9.1569
 40
0.250
 50
0.0000
  1
Piece Name: 2303-B1-A1- OUCF-SP24
  7
STANDARD
  0
TEXT
  8
1
 10
28.3991
 20
9.2969
 40
0.250
 50
0.0000
  1
Quantity: 1,0
  7
STANDARD
  0
TEXT
  8
1
 10
28.3991
 20
9.4369
 40
0.250
 50
0.0000
  1
ANNOTATION: CUT 1
  7
STANDARD
  0
TEXT
  8
1
 10
28.3991
 20
9.5769
 40
0.250
 50
0.0000
  1
CATEGORY: OUCF
  7
STANDARD
  0
TEXT
  8
1
 10
28.3991
 20
9.7169
 40
0.250
 50
0.0000
  1
SIZE: 34A
  7
STANDARD
  0
POLYLINE
  8
1
 66
1
 70
0
  0
VERTEX
  8
1
 10
28.9402
 20
9.7518
  0
VERTEX
  8
1
 10
28.9481
 20
9.5305
  0
SEQEND
  8
1
  0
POLYLINE
  8
84
 66
1
 70
0
  0
VERTEX
  8
84
 10
28.9402
 20
9.7518
  0
VERTEX
  8
84
 10
28.9481
 20
9.5305
  0
SEQEND
  8
84
  0
POINT
  8
2
 10
28.9402
 20
9.7518
  0
POINT
  8
2
 10
28.9481
 20
9.5305
  0
POLYLINE
  8
1
 66
1
 70
0
  0
VERTEX
  8
1
 10
28.9481
 20
9.5305
  0
VERTEX
  8
1
 10
28.5583
 20
9.1103
  0
VERTEX
  8
1
 10
28.1221
 20
8.5620
  0
SEQEND
  8
1
  0
POLYLINE
  8
84
 66
1
 70
0
  0
VERTEX
  8
84
 10
28.9481
 20
9.5305
  0
VERTEX
  8
84
 10
28.5583
 20
9.1103
  0
VERTEX
  8
84
 10
28.1221
 20
8.5620
  0
SEQEND
  8
84
  0
POINT
  8
2
 10
28.9481
 20
9.5305
  0
POINT
  8
3
 10
28.5583
 20
9.1103
  0
POINT
  8
2
 10
28.1221
 20
8.5620
  0
POLYLINE
  8
1
 66
1
 70
0
  0
VERTEX
  8
1
 10
28.1221
 20
8.5620
  0
VERTEX
  8
1
 10
27.8501
 20
8.6775
  0
SEQEND
  8
1
  0
POLYLINE
  8
84
 66
1
 70
0
  0
VERTEX
  8
84
 10
28.1221
 20
8.5620
  0
VERTEX
  8
84
 10
27.8501
 20
8.6775
  0
SEQEND
  8
84
  0
POINT
  8
2
 10
28.1221
 20
8.5620
  0
POINT
  8
2
 10
27.8501
 20
8.6775
  0
POLYLINE
  8
1
 66
1
 70
0
  0
VERTEX
  8
1
 10
27.8501
 20
8.6775
  0
VERTEX
  8
1
 10
27.9074
 20
9.1109
  0
VERTEX
  8
1
 10
27.9297
 20
9.3465
  0
VERTEX
  8
1
 10
27.9487
 20
9.5678
  0
VERTEX
  8
1
 10
27.9569
 20
9.7518
  0
SEQEND
  8
1
  0
POLYLINE
  8
84
 66
1
 70
0
  0
VERTEX
  8
84
 10
27.8501
 20
8.6775
  0
VERTEX
  8
84
 10
27.9074
 20
9.1109
  0
VERTEX
  8
84
 10
27.9297
 20
9.3465
  0
VERTEX
  8
84
 10
27.9487
 20
9.5678
  0
VERTEX
  8
84
 10
27.9569
 20
9.7518
  0
SEQEND
  8
84
  0
POINT
  8
2
 10
27.8501
 20
8.6775
  0
POINT
  8
3
 10
27.9074
 20
9.1109
  0
POINT
  8
3
 10
27.9297
 20
9.3465
  0
POINT
  8
3
 10
27.9487
 20
9.5678
  0
POINT
  8
2
 10
27.9569
 20
9.7518
  0
POLYLINE
  8
1
 66
1
 70
0
  0
VERTEX
  8
1
 10
27.9569
 20
9.7518
  0
VERTEX
  8
1
 10
28.9402
 20
9.7518
  0
SEQEND
  8
1
  0
POLYLINE
  8
84
 66
1
 70
0
  0
VERTEX
  8
84
 10
27.9569
 20
9.7518
  0
VERTEX
  8
84
 10
28.9402
 20
9.7518
  0
SEQEND
  8
84
  0
POINT
  8
2
 10
27.9569
 20
9.7518
  0
LINE
  8
7
 10
28.1218
 20
9.1425
 11
28.6727
 21
9.1425
  0
LINE
  8
5
 10
28.1218
 20
9.1425
 11
28.6727
 21
9.1425
  0
POINT
  8
2
 10
28.1218
 20
9.1425
  0
POINT
  8
2
 10
28.6727
 20
9.1425
  0
POLYLINE
  8
14
 66
1
 70
0
  0
VERTEX
  8
14
 10
28.7431
 20
9.7518
  0
VERTEX
  8
14
 10
28.7464
 20
9.6604
  0
SEQEND
  8
14
  0
POLYLINE
  8
87
 66
1
 70
0
  0
VERTEX
  8
87
 10
28.7431
 20
9.7518
  0
VERTEX
  8
87
 10
28.7464
 20
9.6604
  0
SEQEND
  8
87
  0
POINT
  8
2
 10
28.7431
 20
9.7518
  0
POINT
  8
2
 10
28.7464
 20
9.6604
  0
POLYLINE
  8
14
 66
1
 70
0
  0
VERTEX
  8
14
 10
28.7464
 20
9.6604
  0
VERTEX
  8
14
 10
28.7464
 20
9.6604
  0
SEQEND
  8
14
  0
POLYLINE
  8
87
 66
1
 70
0
  0
VERTEX
  8
87
 10
28.7464
 20
9.6604
  0
VERTEX
  8
87
 10
28.7464
 20
9.6604
  0
SEQEND
  8
87
  0
POLYLINE
  8
14
 66
1
 70
0
  0
VERTEX
  8
14
 10
28.7464
 20
9.6604
  0
VERTEX
  8
14
 10
28.3790
 20
9.2644
  0
VERTEX
  8
14
 10
28.0759
 20
8.8833
  0
SEQEND
  8
14
  0
POLYLINE
  8
87
 66
1
 70
0
  0
VERTEX
  8
87
 10
28.7464
 20
9.6604
  0
VERTEX
  8
87
 10
28.3790
 20
9.2644
  0
VERTEX
  8
87
 10
28.0759
 20
8.8833
  0
SEQEND
  8
87
  0
POINT
  8
2
 10
28.7464
 20
9.6604
  0
POINT
  8
3
 10
28.3790
 20
9.2644
  0
POINT
  8
2
 10
28.0759
 20
8.8833
  0
POLYLINE
  8
14
 66
1
 70
0
  0
VERTEX
  8
14
 10
28.0759
 20
8.8833
  0
VERTEX
  8
14
 10
28.0759
 20
8.8833
  0
SEQEND
  8
14
  0
POLYLINE
  8
87
 66
1
 70
0
  0
VERTEX
  8
87
 10
28.0759
 20
8.8833
  0
VERTEX
  8
87
 10
28.0759
 20
8.8833
  0
SEQEND
  8
87
  0
POLYLINE
  8
14
 66
1
 70
0
  0
VERTEX
  8
14
 10
28.0759
 20
8.8833
  0
VERTEX
  8
14
 10
28.1030
 20
9.0887
  0
VERTEX
  8
14
 10
28.1258
 20
9.3288
  0
VERTEX
  8
14
 10
28.1452
 20
9.5550
  0
VERTEX
  8
14
 10
28.1539
 20
9.7518
  0
SEQEND
  8
14
  0
POLYLINE
  8
87
 66
1
 70
0
  0
VERTEX
  8
87
 10
28.0759
 20
8.8833
  0
VERTEX
  8
87
 10
28.1030
 20
9.0887
  0
VERTEX
  8
87
 10
28.1258
 20
9.3288
  0
VERTEX
  8
87
 10
28.1452
 20
9.5550
  0
VERTEX
  8
87
 10
28.1539
 20
9.7518
  0
SEQEND
  8
87
  0
POINT
  8
2
 10
28.0759
 20
8.8833
  0
POINT
  8
3
 10
28.1030
 20
9.0887
  0
POINT
  8
3
 10
28.1258
 20
9.3288
  0
POINT
  8
3
 10
28.1452
 20
9.5550
  0
POINT
  8
2
 10
28.1539
 20
9.7518
  0
LINE
  8
6
 10
27.9569
 20
9.7518
 11
28.9402
 21
9.7518
  0
ENDBLK
  0
ENDSEC
  0
SECTION
  2
ENTITIES
  0
TEXT
  8
1
 10
0.0000
 20
0.0000
 40
0.250
 50
0.0000
  1
Style Name: 2303-B1-A1- OUCF-SP24
  7
STANDARD
  0
TEXT
  8
1
 10
0.0000
 20
0.1400
 40
0.250
 50
0.0000
  1
Creation Date:  9-09-2026
  7
STANDARD
  0
TEXT
  8
1
 10
0.0000
 20
0.2800
 40
0.250
 50
0.0000
  1
Creation Time: 14:34
  7
STANDARD
  0
TEXT
  8
1
 10
0.0000
 20
0.4200
 40
0.250
 50
0.0000
  1
Author: GERBER TECHNOLOGY ; ACCUMARK ; 17.1.0
  7
STANDARD
  0
TEXT
  8
1
 10
0.0000
 20
0.5600
 40
0.250
 50
0.0000
  1
Grade Rule Table: 34D-32D-42D
  7
STANDARD
  0
TEXT
  8
1
 10
0.0000
 20
0.7000
 40
0.250
 50
0.0000
  1
Sample Size: 34A
  7
STANDARD
  0
TEXT
  8
1
 10
0.0000
 20
0.8400
 40
0.250
 50
0.0000
  1
Units: ENGLISH
  7
STANDARD
  0
TEXT
  8
1
 10
0.0000
 20
0.9800
 40
0.250
 50
0.0000
  1
Curve Tolerance: .006
  7
STANDARD
  0
TEXT
  8
1
 10
0.0000
 20
1.1200
 40
0.250
 50
0.0000
  1
ASTM/D13Proposal 1 Version: D 6673-04
  7
STANDARD
  0
INSERT
  8
1
  2
2303-B1-A1- OUCF-SP24_34A
 10
0.0000
 20
0.0000
  0
ENDSEC
  0
EOF
