  0
SECTION
  2
HEADER
  0
ENDSEC
  0
SECTION
  2
BLOCKS
  0
BLOCK
  8
0
  2
CAP-C12-TWOINTLINES_12
 70
64
 10
0.0000
 20
0.0000
  0
TEXT
  8
1
 10
4.2232
 20
19.5872
 40
0.250
 50
0.0000
  1
Piece Name: CAP-C12-TWOINTLINES
  7
STANDARD
  0
TEXT
  8
1
 10
4.2232
 20
19.7272
 40
0.250
 50
0.0000
  1
Quantity: 1,0
  7
STANDARD
  0
TEXT
  8
1
 10
4.2232
 20
19.8672
 40
0.250
 50
0.0000
  1
ANNOTATION: RECTANGLE
  7
STANDARD
  0
TEXT
  8
1
 10
4.2232
 20
20.0072
 40
0.250
 50
0.0000
  1
CATEGORY: CAP-C12-TWOINTLINES
  7
STANDARD
  0
TEXT
  8
1
 10
4.2232
 20
20.1472
 40
0.250
 50
0.0000
  1
SIZE: 12
  7
STANDARD
  0
POLYLINE
  8
1
 66
1
 70
0
  0
VERTEX
  8
1
 10
2.6144
 20
18.3806
  0
VERTEX
  8
1
 10
2.6144
 20
20.7938
  0
SEQEND
  8
1
  0
POLYLINE
  8
84
 66
1
 70
0
  0
VERTEX
  8
84
 10
2.6144
 20
18.3806
  0
VERTEX
  8
84
 10
2.6144
 20
20.7938
  0
SEQEND
  8
84
  0
POINT
  8
2
 10
2.6144
 20
18.3806
  0
POINT
  8
2
 10
2.6144
 20
20.7938
  0
POLYLINE
  8
1
 66
1
 70
0
  0
VERTEX
  8
1
 10
2.6144
 20
20.7938
  0
VERTEX
  8
1
 10
5.8320
 20
20.7938
  0
SEQEND
  8
1
  0
POLYLINE
  8
84
 66
1
 70
0
  0
VERTEX
  8
84
 10
2.6144
 20
20.7938
  0
VERTEX
  8
84
 10
5.8320
 20
20.7938
  0
SEQEND
  8
84
  0
POINT
  8
2
 10
2.6144
 20
20.7938
  0
POINT
  8
2
 10
5.8320
 20
20.7938
  0
POLYLINE
  8
1
 66
1
 70
0
  0
VERTEX
  8
1
 10
5.8320
 20
20.7938
  0
VERTEX
  8
1
 10
5.8320
 20
18.3806
  0
SEQEND
  8
1
  0
POLYLINE
  8
84
 66
1
 70
0
  0
VERTEX
  8
84
 10
5.8320
 20
20.7938
  0
VERTEX
  8
84
 10
5.8320
 20
18.3806
  0
SEQEND
  8
84
  0
POINT
  8
2
 10
5.8320
 20
20.7938
  0
POINT
  8
2
 10
5.8320
 20
18.3806
  0
POLYLINE
  8
1
 66
1
 70
0
  0
VERTEX
  8
1
 10
5.8320
 20
18.3806
  0
VERTEX
  8
1
 10
2.6144
 20
18.3806
  0
SEQEND
  8
1
  0
POLYLINE
  8
84
 66
1
 70
0
  0
VERTEX
  8
84
 10
5.8320
 20
18.3806
  0
VERTEX
  8
84
 10
2.6144
 20
18.3806
  0
SEQEND
  8
84
  0
POINT
  8
2
 10
5.8320
 20
18.3806
  0
POINT
  8
2
 10
2.6144
 20
18.3806
  0
LINE
  8
7
 10
3.4188
 20
19.5872
 11
5.0276
 21
19.5872
  0
LINE
  8
5
 10
3.4188
 20
19.5872
 11
5.0276
 21
19.5872
  0
POINT
  8
2
 10
3.4188
 20
19.5872
  0
POINT
  8
2
 10
5.0276
 20
19.5872
  0
LINE
  8
8
 10
3.1426
 20
20.4506
 11
4.3761
 21
20.4506
  0
POLYLINE
  8
85
 66
1
 70
0
  0
VERTEX
  8
85
 10
3.1426
 20
20.4506
  0
VERTEX
  8
85
 10
4.3761
 20
20.4506
  0
SEQEND
  8
85
  0
TEXT
  8
8
 10
3.1426
 20
20.4506
 40
0.250
 50
0.0000
  1
NM
  7
STANDARD
  0
TEXT
  8
85
 10
3.1426
 20
20.4506
 40
0.250
 50
0.0000
  1
NM
  7
STANDARD
  0
POINT
  8
2
 10
3.1426
 20
20.4506
  0
POINT
  8
2
 10
4.3761
 20
20.4506
  0
ENDBLK
  0
ENDSEC
  0
SECTION
  2
ENTITIES
  0
TEXT
  8
1
 10
0.0000
 20
0.0000
 40
0.250
 50
0.0000
  1
Style Name: CAP-C12-TWOINTLINES
  7
STANDARD
  0
TEXT
  8
1
 10
0.0000
 20
0.1400
 40
0.250
 50
0.0000
  1
Creation Date:  8-09-2026
  7
STANDARD
  0
TEXT
  8
1
 10
0.0000
 20
0.2800
 40
0.250
 50
0.0000
  1
Creation Time: 20:14
  7
STANDARD
  0
TEXT
  8
1
 10
0.0000
 20
0.4200
 40
0.250
 50
0.0000
  1
Author: GERBER TECHNOLOGY ; ACCUMARK ; 17.1.0
  7
STANDARD
  0
TEXT
  8
1
 10
0.0000
 20
0.5600
 40
0.250
 50
0.0000
  1
Grade Rule Table: A1-LADIES
  7
STANDARD
  0
TEXT
  8
1
 10
0.0000
 20
0.7000
 40
0.250
 50
0.0000
  1
Sample Size: 12
  7
STANDARD
  0
TEXT
  8
1
 10
0.0000
 20
0.8400
 40
0.250
 50
0.0000
  1
Units: ENGLISH
  7
STANDARD
  0
TEXT
  8
1
 10
0.0000
 20
0.9800
 40
0.250
 50
0.0000
  1
Curve Tolerance: .006
  7
STANDARD
  0
TEXT
  8
1
 10
0.0000
 20
1.1200
 40
0.250
 50
0.0000
  1
ASTM/D13Proposal 1 Version: D 6673-04
  7
STANDARD
  0
INSERT
  8
1
  2
CAP-C12-TWOINTLINES_12
 10
0.0000
 20
0.0000
  0
ENDSEC
  0
EOF
