  0
SECTION
  2
HEADER
  0
ENDSEC
  0
SECTION
  2
BLOCKS
  0
BLOCK
  8
0
  2
CAP-C60-CUTOUT_12
 70
64
 10
0.0000
 20
0.0000
  0
TEXT
  8
1
 10
40.6154
 20
30.0544
 40
0.250
 50
0.0000
  1
Piece Name: CAP-C60-CUTOUT
  7
STANDARD
  0
TEXT
  8
1
 10
40.6154
 20
30.1944
 40
0.250
 50
0.0000
  1
Quantity: 1,0
  7
STANDARD
  0
TEXT
  8
1
 10
40.6154
 20
30.3344
 40
0.250
 50
0.0000
  1
ANNOTATION: RECTANGLE
  7
STANDARD
  0
TEXT
  8
1
 10
40.6154
 20
30.4744
 40
0.250
 50
0.0000
  1
CATEGORY: CAP-C60-CUTOUT
  7
STANDARD
  0
TEXT
  8
1
 10
40.6154
 20
30.6144
 40
0.250
 50
0.0000
  1
SIZE: 12
  7
STANDARD
  0
POLYLINE
  8
1
 66
1
 70
0
  0
VERTEX
  8
1
 10
37.3736
 20
28.4335
  0
VERTEX
  8
1
 10
37.3736
 20
31.6753
  0
SEQEND
  8
1
  0
POLYLINE
  8
84
 66
1
 70
0
  0
VERTEX
  8
84
 10
37.3736
 20
28.4335
  0
VERTEX
  8
84
 10
37.3736
 20
31.6753
  0
SEQEND
  8
84
  0
POINT
  8
2
 10
37.3736
 20
28.4335
  0
POINT
  8
2
 10
37.3736
 20
31.6753
  0
POLYLINE
  8
1
 66
1
 70
0
  0
VERTEX
  8
1
 10
37.3736
 20
31.6753
  0
VERTEX
  8
1
 10
43.8572
 20
31.6753
  0
SEQEND
  8
1
  0
POLYLINE
  8
84
 66
1
 70
0
  0
VERTEX
  8
84
 10
37.3736
 20
31.6753
  0
VERTEX
  8
84
 10
43.8572
 20
31.6753
  0
SEQEND
  8
84
  0
POINT
  8
2
 10
37.3736
 20
31.6753
  0
POINT
  8
2
 10
43.8572
 20
31.6753
  0
POLYLINE
  8
1
 66
1
 70
0
  0
VERTEX
  8
1
 10
43.8572
 20
31.6753
  0
VERTEX
  8
1
 10
43.8572
 20
28.4335
  0
SEQEND
  8
1
  0
POLYLINE
  8
84
 66
1
 70
0
  0
VERTEX
  8
84
 10
43.8572
 20
31.6753
  0
VERTEX
  8
84
 10
43.8572
 20
28.4335
  0
SEQEND
  8
84
  0
POINT
  8
2
 10
43.8572
 20
31.6753
  0
POINT
  8
2
 10
43.8572
 20
28.4335
  0
POLYLINE
  8
1
 66
1
 70
0
  0
VERTEX
  8
1
 10
43.8572
 20
28.4335
  0
VERTEX
  8
1
 10
37.3736
 20
28.4335
  0
SEQEND
  8
1
  0
POLYLINE
  8
84
 66
1
 70
0
  0
VERTEX
  8
84
 10
43.8572
 20
28.4335
  0
VERTEX
  8
84
 10
37.3736
 20
28.4335
  0
SEQEND
  8
84
  0
POINT
  8
2
 10
43.8572
 20
28.4335
  0
POINT
  8
2
 10
37.3736
 20
28.4335
  0
LINE
  8
7
 10
38.9945
 20
30.0544
 11
42.2363
 21
30.0544
  0
LINE
  8
5
 10
38.9945
 20
30.0544
 11
42.2363
 21
30.0544
  0
POINT
  8
2
 10
38.9945
 20
30.0544
  0
POINT
  8
2
 10
42.2363
 20
30.0544
  0
POLYLINE
  8
8
 66
1
 70
1
  0
VERTEX
  8
8
 10
41.3312
 20
30.0544
  0
VERTEX
  8
8
 10
41.3035
 20
30.2648
  0
VERTEX
  8
8
 10
41.2222
 20
30.4609
  0
VERTEX
  8
8
 10
41.0930
 20
30.6293
  0
VERTEX
  8
8
 10
40.9246
 20
30.7585
  0
VERTEX
  8
8
 10
40.7286
 20
30.8397
  0
VERTEX
  8
8
 10
40.5181
 20
30.8674
  0
VERTEX
  8
8
 10
40.3077
 20
30.8397
  0
VERTEX
  8
8
 10
40.1116
 20
30.7585
  0
VERTEX
  8
8
 10
39.9432
 20
30.6293
  0
VERTEX
  8
8
 10
39.8140
 20
30.4609
  0
VERTEX
  8
8
 10
39.7328
 20
30.2648
  0
VERTEX
  8
8
 10
39.7051
 20
30.0544
  0
VERTEX
  8
8
 10
39.7328
 20
29.8439
  0
VERTEX
  8
8
 10
39.8140
 20
29.6479
  0
VERTEX
  8
8
 10
39.9432
 20
29.4795
  0
VERTEX
  8
8
 10
40.1116
 20
29.3503
  0
VERTEX
  8
8
 10
40.3077
 20
29.2690
  0
VERTEX
  8
8
 10
40.5181
 20
29.2413
  0
VERTEX
  8
8
 10
40.7286
 20
29.2690
  0
VERTEX
  8
8
 10
40.9246
 20
29.3503
  0
VERTEX
  8
8
 10
41.0930
 20
29.4795
  0
VERTEX
  8
8
 10
41.2222
 20
29.6479
  0
VERTEX
  8
8
 10
41.3035
 20
29.8439
  0
VERTEX
  8
8
 10
41.3312
 20
30.0544
  0
SEQEND
  8
8
  0
POLYLINE
  8
85
 66
1
 70
1
  0
VERTEX
  8
85
 10
41.3312
 20
30.0544
  0
VERTEX
  8
85
 10
41.3241
 20
30.1605
  0
VERTEX
  8
85
 10
41.3035
 20
30.2648
  0
VERTEX
  8
85
 10
41.2691
 20
30.3654
  0
VERTEX
  8
85
 10
41.2222
 20
30.4609
  0
VERTEX
  8
85
 10
41.1630
 20
30.5492
  0
VERTEX
  8
85
 10
41.0930
 20
30.6293
  0
VERTEX
  8
85
 10
41.0129
 20
30.6993
  0
VERTEX
  8
85
 10
40.9246
 20
30.7585
  0
VERTEX
  8
85
 10
40.8292
 20
30.8054
  0
VERTEX
  8
85
 10
40.7286
 20
30.8397
  0
VERTEX
  8
85
 10
40.6242
 20
30.8603
  0
VERTEX
  8
85
 10
40.5181
 20
30.8674
  0
VERTEX
  8
85
 10
40.4120
 20
30.8603
  0
VERTEX
  8
85
 10
40.3077
 20
30.8397
  0
VERTEX
  8
85
 10
40.2071
 20
30.8054
  0
VERTEX
  8
85
 10
40.1116
 20
30.7585
  0
VERTEX
  8
85
 10
40.0233
 20
30.6993
  0
VERTEX
  8
85
 10
39.9432
 20
30.6293
  0
VERTEX
  8
85
 10
39.8732
 20
30.5492
  0
VERTEX
  8
85
 10
39.8140
 20
30.4609
  0
VERTEX
  8
85
 10
39.7671
 20
30.3654
  0
VERTEX
  8
85
 10
39.7328
 20
30.2648
  0
VERTEX
  8
85
 10
39.7122
 20
30.1605
  0
VERTEX
  8
85
 10
39.7051
 20
30.0544
  0
VERTEX
  8
85
 10
39.7122
 20
29.9483
  0
VERTEX
  8
85
 10
39.7328
 20
29.8439
  0
VERTEX
  8
85
 10
39.7671
 20
29.7433
  0
VERTEX
  8
85
 10
39.8140
 20
29.6479
  0
VERTEX
  8
85
 10
39.8732
 20
29.5596
  0
VERTEX
  8
85
 10
39.9432
 20
29.4795
  0
VERTEX
  8
85
 10
40.0233
 20
29.4095
  0
VERTEX
  8
85
 10
40.1116
 20
29.3503
  0
VERTEX
  8
85
 10
40.2071
 20
29.3034
  0
VERTEX
  8
85
 10
40.3077
 20
29.2690
  0
VERTEX
  8
85
 10
40.4120
 20
29.2484
  0
VERTEX
  8
85
 10
40.5181
 20
29.2413
  0
VERTEX
  8
85
 10
40.6242
 20
29.2484
  0
VERTEX
  8
85
 10
40.7286
 20
29.2690
  0
VERTEX
  8
85
 10
40.8292
 20
29.3034
  0
VERTEX
  8
85
 10
40.9246
 20
29.3503
  0
VERTEX
  8
85
 10
41.0129
 20
29.4095
  0
VERTEX
  8
85
 10
41.0930
 20
29.4795
  0
VERTEX
  8
85
 10
41.1630
 20
29.5596
  0
VERTEX
  8
85
 10
41.2222
 20
29.6479
  0
VERTEX
  8
85
 10
41.2691
 20
29.7433
  0
VERTEX
  8
85
 10
41.3035
 20
29.8439
  0
VERTEX
  8
85
 10
41.3241
 20
29.9483
  0
VERTEX
  8
85
 10
41.3312
 20
30.0544
  0
SEQEND
  8
85
  0
TEXT
  8
8
 10
41.3312
 20
30.0544
 40
0.250
 50
0.0000
  1
NM
  7
STANDARD
  0
TEXT
  8
85
 10
41.3312
 20
30.0544
 40
0.250
 50
0.0000
  1
NM
  7
STANDARD
  0
POINT
  8
2
 10
41.3312
 20
30.0544
  0
POINT
  8
3
 10
41.3035
 20
30.2648
  0
POINT
  8
3
 10
41.2222
 20
30.4609
  0
POINT
  8
3
 10
41.0930
 20
30.6293
  0
POINT
  8
3
 10
40.9246
 20
30.7585
  0
POINT
  8
3
 10
40.7286
 20
30.8397
  0
POINT
  8
3
 10
40.5181
 20
30.8674
  0
POINT
  8
3
 10
40.3077
 20
30.8397
  0
POINT
  8
3
 10
40.1116
 20
30.7585
  0
POINT
  8
3
 10
39.9432
 20
30.6293
  0
POINT
  8
3
 10
39.8140
 20
30.4609
  0
POINT
  8
3
 10
39.7328
 20
30.2648
  0
POINT
  8
3
 10
39.7051
 20
30.0544
  0
POINT
  8
3
 10
39.7328
 20
29.8439
  0
POINT
  8
3
 10
39.8140
 20
29.6479
  0
POINT
  8
3
 10
39.9432
 20
29.4795
  0
POINT
  8
3
 10
40.1116
 20
29.3503
  0
POINT
  8
3
 10
40.3077
 20
29.2690
  0
POINT
  8
3
 10
40.5181
 20
29.2413
  0
POINT
  8
3
 10
40.7286
 20
29.2690
  0
POINT
  8
3
 10
40.9246
 20
29.3503
  0
POINT
  8
3
 10
41.0930
 20
29.4795
  0
POINT
  8
3
 10
41.2222
 20
29.6479
  0
POINT
  8
3
 10
41.3035
 20
29.8439
  0
POINT
  8
2
 10
41.3312
 20
30.0544
  0
ENDBLK
  0
ENDSEC
  0
SECTION
  2
ENTITIES
  0
TEXT
  8
1
 10
0.0000
 20
0.0000
 40
0.250
 50
0.0000
  1
Style Name: CAP-C60-CUTOUT
  7
STANDARD
  0
TEXT
  8
1
 10
0.0000
 20
0.1400
 40
0.250
 50
0.0000
  1
Creation Date:  8-09-2026
  7
STANDARD
  0
TEXT
  8
1
 10
0.0000
 20
0.2800
 40
0.250
 50
0.0000
  1
Creation Time:  0:38
  7
STANDARD
  0
TEXT
  8
1
 10
0.0000
 20
0.4200
 40
0.250
 50
0.0000
  1
Author: GERBER TECHNOLOGY ; ACCUMARK ; 17.1.0
  7
STANDARD
  0
TEXT
  8
1
 10
0.0000
 20
0.5600
 40
0.250
 50
0.0000
  1
Grade Rule Table: A1-LADIES
  7
STANDARD
  0
TEXT
  8
1
 10
0.0000
 20
0.7000
 40
0.250
 50
0.0000
  1
Sample Size: 12
  7
STANDARD
  0
TEXT
  8
1
 10
0.0000
 20
0.8400
 40
0.250
 50
0.0000
  1
Units: ENGLISH
  7
STANDARD
  0
TEXT
  8
1
 10
0.0000
 20
0.9800
 40
0.250
 50
0.0000
  1
Curve Tolerance: .006
  7
STANDARD
  0
TEXT
  8
1
 10
0.0000
 20
1.1200
 40
0.250
 50
0.0000
  1
ASTM/D13Proposal 1 Version: D 6673-04
  7
STANDARD
  0
INSERT
  8
1
  2
CAP-C60-CUTOUT_12
 10
0.0000
 20
0.0000
  0
ENDSEC
  0
EOF
