  0
SECTION
  2
HEADER
  0
ENDSEC
  0
SECTION
  2
BLOCKS
  0
BLOCK
  8
0
  2
2303-B1-38B-IN WG-SP24_38B
 70
64
 10
0.0000
 20
0.0000
  0
TEXT
  8
1
 10
28.3991
 20
9.1569
 40
0.250
 50
0.0000
  1
Piece Name: 2303-B1-38B-IN WG-SP24
  7
STANDARD
  0
TEXT
  8
1
 10
28.3991
 20
9.2969
 40
0.250
 50
0.0000
  1
Quantity: 1,0
  7
STANDARD
  0
TEXT
  8
1
 10
28.3991
 20
9.4369
 40
0.250
 50
0.0000
  1
ANNOTATION: C-2
  7
STANDARD
  0
TEXT
  8
1
 10
28.3991
 20
9.5769
 40
0.250
 50
0.0000
  1
CATEGORY: R310016NH
  7
STANDARD
  0
TEXT
  8
1
 10
28.3991
 20
9.7169
 40
0.250
 50
0.0000
  1
SIZE: 38B
  7
STANDARD
  0
TEXT
  8
15
 10
27.9319
 20
10.9054
 40
0.118
 50
356.4800
  1
SELVAGE
  7
STANDARD
  0
TEXT
  8
15
 10
27.9319
 20
10.9054
 40
0.118
 50
356.4800
  1
SELVAGE
  7
STANDARD
  0
POLYLINE
  8
1
 66
1
 70
0
  0
VERTEX
  8
1
 10
24.7803
 20
11.1147
  0
VERTEX
  8
1
 10
32.2149
 20
11.1467
  0
SEQEND
  8
1
  0
POLYLINE
  8
84
 66
1
 70
0
  0
VERTEX
  8
84
 10
24.7803
 20
11.1147
  0
VERTEX
  8
84
 10
32.2149
 20
11.1467
  0
SEQEND
  8
84
  0
POINT
  8
2
 10
24.7803
 20
11.1147
  0
POINT
  8
2
 10
32.2149
 20
11.1467
  0
POLYLINE
  8
1
 66
1
 70
0
  0
VERTEX
  8
1
 10
32.2149
 20
11.1467
  0
VERTEX
  8
1
 10
32.2472
 20
11.0927
  0
VERTEX
  8
1
 10
32.3678
 20
10.8987
  0
VERTEX
  8
1
 10
32.5468
 20
10.6740
  0
VERTEX
  8
1
 10
32.7104
 20
10.4980
  0
VERTEX
  8
1
 10
32.8127
 20
10.4011
  0
VERTEX
  8
1
 10
32.9776
 20
10.2586
  0
VERTEX
  8
1
 10
33.1334
 20
10.1369
  0
VERTEX
  8
1
 10
33.2770
 20
10.0463
  0
VERTEX
  8
1
 10
33.4020
 20
9.9740
  0
VERTEX
  8
1
 10
33.6961
 20
9.7927
  0
SEQEND
  8
1
  0
POLYLINE
  8
84
 66
1
 70
0
  0
VERTEX
  8
84
 10
32.2149
 20
11.1467
  0
VERTEX
  8
84
 10
32.2472
 20
11.0927
  0
VERTEX
  8
84
 10
32.3678
 20
10.8987
  0
VERTEX
  8
84
 10
32.5468
 20
10.6740
  0
VERTEX
  8
84
 10
32.7104
 20
10.4980
  0
VERTEX
  8
84
 10
32.8127
 20
10.4011
  0
VERTEX
  8
84
 10
32.9776
 20
10.2586
  0
VERTEX
  8
84
 10
33.1334
 20
10.1369
  0
VERTEX
  8
84
 10
33.2770
 20
10.0463
  0
VERTEX
  8
84
 10
33.4020
 20
9.9740
  0
VERTEX
  8
84
 10
33.6961
 20
9.7927
  0
SEQEND
  8
84
  0
POINT
  8
2
 10
32.2149
 20
11.1467
  0
POINT
  8
3
 10
32.2472
 20
11.0927
  0
POINT
  8
3
 10
32.3678
 20
10.8987
  0
POINT
  8
3
 10
32.5468
 20
10.6740
  0
POINT
  8
3
 10
32.7104
 20
10.4980
  0
POINT
  8
3
 10
32.8127
 20
10.4011
  0
POINT
  8
3
 10
32.9776
 20
10.2586
  0
POINT
  8
3
 10
33.1334
 20
10.1369
  0
POINT
  8
3
 10
33.2770
 20
10.0463
  0
POINT
  8
3
 10
33.4020
 20
9.9740
  0
POINT
  8
2
 10
33.6961
 20
9.7927
  0
POLYLINE
  8
1
 66
1
 70
0
  0
VERTEX
  8
1
 10
33.6961
 20
9.7927
  0
VERTEX
  8
1
 10
33.9124
 20
8.4384
  0
SEQEND
  8
1
  0
POLYLINE
  8
84
 66
1
 70
0
  0
VERTEX
  8
84
 10
33.6961
 20
9.7927
  0
VERTEX
  8
84
 10
33.9124
 20
8.4384
  0
SEQEND
  8
84
  0
POINT
  8
2
 10
33.6961
 20
9.7927
  0
POINT
  8
2
 10
33.9124
 20
8.4384
  0
POLYLINE
  8
1
 66
1
 70
0
  0
VERTEX
  8
1
 10
33.9124
 20
8.4384
  0
VERTEX
  8
1
 10
23.0280
 20
7.1671
  0
SEQEND
  8
1
  0
POLYLINE
  8
84
 66
1
 70
0
  0
VERTEX
  8
84
 10
33.9124
 20
8.4384
  0
VERTEX
  8
84
 10
23.0280
 20
7.1671
  0
SEQEND
  8
84
  0
POINT
  8
2
 10
33.9124
 20
8.4384
  0
POINT
  8
2
 10
23.0280
 20
7.1671
  0
POLYLINE
  8
1
 66
1
 70
0
  0
VERTEX
  8
1
 10
23.0280
 20
7.1671
  0
VERTEX
  8
1
 10
22.8859
 20
7.4952
  0
SEQEND
  8
1
  0
POLYLINE
  8
84
 66
1
 70
0
  0
VERTEX
  8
84
 10
23.0280
 20
7.1671
  0
VERTEX
  8
84
 10
22.8859
 20
7.4952
  0
SEQEND
  8
84
  0
POINT
  8
2
 10
23.0280
 20
7.1671
  0
POINT
  8
2
 10
22.8859
 20
7.4952
  0
POLYLINE
  8
1
 66
1
 70
0
  0
VERTEX
  8
1
 10
22.8859
 20
7.4952
  0
VERTEX
  8
1
 10
23.4752
 20
7.9814
  0
VERTEX
  8
1
 10
23.5309
 20
8.0332
  0
VERTEX
  8
1
 10
23.7590
 20
8.2664
  0
VERTEX
  8
1
 10
24.2466
 20
9.0127
  0
VERTEX
  8
1
 10
24.3930
 20
9.3532
  0
VERTEX
  8
1
 10
24.3930
 20
9.3533
  0
VERTEX
  8
1
 10
24.5870
 20
9.9592
  0
VERTEX
  8
1
 10
24.7803
 20
11.1147
  0
SEQEND
  8
1
  0
POLYLINE
  8
84
 66
1
 70
0
  0
VERTEX
  8
84
 10
22.8859
 20
7.4952
  0
VERTEX
  8
84
 10
23.4752
 20
7.9814
  0
VERTEX
  8
84
 10
23.5309
 20
8.0332
  0
VERTEX
  8
84
 10
23.7590
 20
8.2664
  0
VERTEX
  8
84
 10
23.8945
 20
8.4435
  0
VERTEX
  8
84
 10
24.0195
 20
8.6285
  0
VERTEX
  8
84
 10
24.2466
 20
9.0127
  0
VERTEX
  8
84
 10
24.3253
 20
9.1804
  0
VERTEX
  8
84
 10
24.3930
 20
9.3532
  0
VERTEX
  8
84
 10
24.3930
 20
9.3533
  0
VERTEX
  8
84
 10
24.4989
 20
9.6535
  0
VERTEX
  8
84
 10
24.5870
 20
9.9592
  0
VERTEX
  8
84
 10
24.6937
 20
10.5349
  0
VERTEX
  8
84
 10
24.7803
 20
11.1147
  0
SEQEND
  8
84
  0
POINT
  8
2
 10
22.8859
 20
7.4952
  0
POINT
  8
3
 10
23.4752
 20
7.9814
  0
POINT
  8
3
 10
23.5309
 20
8.0332
  0
POINT
  8
3
 10
23.7590
 20
8.2664
  0
POINT
  8
3
 10
24.2466
 20
9.0127
  0
POINT
  8
3
 10
24.3930
 20
9.3532
  0
POINT
  8
4
 10
24.3930
 20
9.3533
 30
0.1574
 39
0.0000
  0
POINT
  8
3
 10
24.3930
 20
9.3533
  0
POINT
  8
3
 10
24.5870
 20
9.9592
  0
POINT
  8
2
 10
24.7803
 20
11.1147
  0
LINE
  8
7
 10
25.5741
 20
9.1409
 11
30.9505
 21
9.1409
  0
LINE
  8
5
 10
25.5741
 20
9.1409
 11
30.9505
 21
9.1409
  0
POINT
  8
2
 10
25.5741
 20
9.1409
  0
POINT
  8
2
 10
30.9505
 20
9.1409
  0
POLYLINE
  8
14
 66
1
 70
0
  0
VERTEX
  8
14
 10
31.8487
 20
11.1451
  0
VERTEX
  8
14
 10
31.9782
 20
10.9287
  0
VERTEX
  8
14
 10
32.1099
 20
10.7168
  0
VERTEX
  8
14
 10
32.3079
 20
10.4683
  0
VERTEX
  8
14
 10
32.4865
 20
10.2762
  0
VERTEX
  8
14
 10
32.6012
 20
10.1675
  0
VERTEX
  8
14
 10
32.7775
 20
10.0152
  0
VERTEX
  8
14
 10
32.9519
 20
9.8789
  0
VERTEX
  8
14
 10
33.1140
 20
9.7767
  0
VERTEX
  8
14
 10
33.2404
 20
9.7035
  0
VERTEX
  8
14
 10
33.4963
 20
9.5458
  0
SEQEND
  8
14
  0
POLYLINE
  8
87
 66
1
 70
0
  0
VERTEX
  8
87
 10
31.8487
 20
11.1451
  0
VERTEX
  8
87
 10
31.9782
 20
10.9287
  0
VERTEX
  8
87
 10
32.1099
 20
10.7168
  0
VERTEX
  8
87
 10
32.3079
 20
10.4683
  0
VERTEX
  8
87
 10
32.4865
 20
10.2762
  0
VERTEX
  8
87
 10
32.6012
 20
10.1675
  0
VERTEX
  8
87
 10
32.7775
 20
10.0152
  0
VERTEX
  8
87
 10
32.9519
 20
9.8789
  0
VERTEX
  8
87
 10
33.1140
 20
9.7767
  0
VERTEX
  8
87
 10
33.2404
 20
9.7035
  0
VERTEX
  8
87
 10
33.4963
 20
9.5458
  0
SEQEND
  8
87
  0
POINT
  8
2
 10
31.8487
 20
11.1451
  0
POINT
  8
3
 10
31.9782
 20
10.9287
  0
POINT
  8
3
 10
32.1099
 20
10.7168
  0
POINT
  8
3
 10
32.3079
 20
10.4683
  0
POINT
  8
3
 10
32.4865
 20
10.2762
  0
POINT
  8
3
 10
32.6012
 20
10.1675
  0
POINT
  8
3
 10
32.7775
 20
10.0152
  0
POINT
  8
3
 10
32.9519
 20
9.8789
  0
POINT
  8
3
 10
33.1140
 20
9.7767
  0
POINT
  8
3
 10
33.2404
 20
9.7035
  0
POINT
  8
2
 10
33.4963
 20
9.5458
  0
POLYLINE
  8
14
 66
1
 70
0
  0
VERTEX
  8
14
 10
33.4963
 20
9.5458
  0
VERTEX
  8
14
 10
33.4963
 20
9.5458
  0
SEQEND
  8
14
  0
POLYLINE
  8
87
 66
1
 70
0
  0
VERTEX
  8
87
 10
33.4963
 20
9.5458
  0
VERTEX
  8
87
 10
33.4963
 20
9.5458
  0
SEQEND
  8
87
  0
POLYLINE
  8
14
 66
1
 70
0
  0
VERTEX
  8
14
 10
33.4963
 20
9.5458
  0
VERTEX
  8
14
 10
33.6278
 20
8.7223
  0
SEQEND
  8
14
  0
POLYLINE
  8
87
 66
1
 70
0
  0
VERTEX
  8
87
 10
33.4963
 20
9.5458
  0
VERTEX
  8
87
 10
33.6278
 20
8.7223
  0
SEQEND
  8
87
  0
POINT
  8
2
 10
33.4963
 20
9.5458
  0
POINT
  8
2
 10
33.6278
 20
8.7223
  0
POLYLINE
  8
14
 66
1
 70
0
  0
VERTEX
  8
14
 10
33.6278
 20
8.7223
  0
VERTEX
  8
14
 10
33.6278
 20
8.7223
  0
SEQEND
  8
14
  0
POLYLINE
  8
87
 66
1
 70
0
  0
VERTEX
  8
87
 10
33.6278
 20
8.7223
  0
VERTEX
  8
87
 10
33.6278
 20
8.7223
  0
SEQEND
  8
87
  0
POLYLINE
  8
14
 66
1
 70
0
  0
VERTEX
  8
14
 10
33.6278
 20
8.7223
  0
VERTEX
  8
14
 10
22.8972
 20
7.4690
  0
SEQEND
  8
14
  0
POLYLINE
  8
87
 66
1
 70
0
  0
VERTEX
  8
87
 10
33.6278
 20
8.7223
  0
VERTEX
  8
87
 10
22.8972
 20
7.4690
  0
SEQEND
  8
87
  0
POINT
  8
2
 10
33.6278
 20
8.7223
  0
POINT
  8
2
 10
22.8972
 20
7.4690
  0
POLYLINE
  8
14
 66
1
 70
0
  0
VERTEX
  8
14
 10
22.9836
 20
7.2696
  0
VERTEX
  8
14
 10
23.6309
 20
7.8037
  0
VERTEX
  8
14
 10
23.6958
 20
7.8640
  0
VERTEX
  8
14
 10
23.9440
 20
8.1178
  0
VERTEX
  8
14
 10
24.4555
 20
8.9006
  0
VERTEX
  8
14
 10
24.6144
 20
9.2704
  0
VERTEX
  8
14
 10
24.6146
 20
9.2708
  0
VERTEX
  8
14
 10
24.8171
 20
9.9034
  0
VERTEX
  8
14
 10
25.0192
 20
11.1157
  0
SEQEND
  8
14
  0
POLYLINE
  8
87
 66
1
 70
0
  0
VERTEX
  8
87
 10
22.9836
 20
7.2696
  0
VERTEX
  8
87
 10
23.6309
 20
7.8037
  0
VERTEX
  8
87
 10
23.6958
 20
7.8640
  0
VERTEX
  8
87
 10
23.9440
 20
8.1178
  0
VERTEX
  8
87
 10
24.0862
 20
8.3036
  0
VERTEX
  8
87
 10
24.2173
 20
8.4976
  0
VERTEX
  8
87
 10
24.4555
 20
8.9006
  0
VERTEX
  8
87
 10
24.5410
 20
9.0828
  0
VERTEX
  8
87
 10
24.6144
 20
9.2704
  0
VERTEX
  8
87
 10
24.6146
 20
9.2708
  0
VERTEX
  8
87
 10
24.7251
 20
9.5840
  0
VERTEX
  8
87
 10
24.8171
 20
9.9034
  0
VERTEX
  8
87
 10
24.9288
 20
10.5074
  0
VERTEX
  8
87
 10
25.0192
 20
11.1157
  0
SEQEND
  8
87
  0
POINT
  8
2
 10
22.9836
 20
7.2696
  0
POINT
  8
3
 10
23.6309
 20
7.8037
  0
POINT
  8
3
 10
23.6958
 20
7.8640
  0
POINT
  8
3
 10
23.9440
 20
8.1178
  0
POINT
  8
3
 10
24.4555
 20
8.9006
  0
POINT
  8
3
 10
24.6144
 20
9.2704
  0
POINT
  8
4
 10
24.6146
 20
9.2708
 30
0.1574
 39
0.0000
  0
POINT
  8
3
 10
24.6146
 20
9.2708
  0
POINT
  8
3
 10
24.8171
 20
9.9034
  0
POINT
  8
2
 10
25.0192
 20
11.1157
  0
ATTDEF
  8
14
 10
25.0192
 20
11.1157
 11
24.6146
 21
9.2708
 40
.25
  1
Link:4
  2
Dependency
  3

 70
2
 72
3
  0
ATTDEF
  8
1
 10
24.7803
 20
11.1147
 11
24.3930
 21
9.3533
 40
.25
  1
Link:4
  2
Dependency
  3

 70
2
 72
3
  0
ENDBLK
  0
ENDSEC
  0
SECTION
  2
ENTITIES
  0
TEXT
  8
1
 10
0.0000
 20
0.0000
 40
0.250
 50
356.4800
  1
Style Name: 2303-B1-38B-IN WG-SP24
  7
STANDARD
  0
TEXT
  8
1
 10
0.0000
 20
0.1400
 40
0.250
 50
356.4800
  1
Creation Date:  9-09-2026
  7
STANDARD
  0
TEXT
  8
1
 10
0.0000
 20
0.2800
 40
0.250
 50
356.4800
  1
Creation Time: 14:27
  7
STANDARD
  0
TEXT
  8
1
 10
0.0000
 20
0.4200
 40
0.250
 50
356.4800
  1
Author: GERBER TECHNOLOGY ; ACCUMARK ; 17.1.0
  7
STANDARD
  0
TEXT
  8
1
 10
0.0000
 20
0.5600
 40
0.250
 50
356.4800
  1
Grade Rule Table: 30D-34D-42D
  7
STANDARD
  0
TEXT
  8
1
 10
0.0000
 20
0.7000
 40
0.250
 50
356.4800
  1
Sample Size: 38B
  7
STANDARD
  0
TEXT
  8
1
 10
0.0000
 20
0.8400
 40
0.250
 50
356.4800
  1
Units: ENGLISH
  7
STANDARD
  0
TEXT
  8
1
 10
0.0000
 20
0.9800
 40
0.250
 50
356.4800
  1
Curve Tolerance: .006
  7
STANDARD
  0
TEXT
  8
1
 10
0.0000
 20
1.1200
 40
0.250
 50
356.4800
  1
ASTM/D13Proposal 1 Version: D 6673-04
  7
STANDARD
  0
INSERT
  8
1
  2
2303-B1-38B-IN WG-SP24_38B
 10
0.0000
 20
0.0000
  0
ENDSEC
  0
EOF
