  0
SECTION
  2
HEADER
  0
ENDSEC
  0
SECTION
  2
BLOCKS
  0
BLOCK
  8
0
  2
CAP-C40-NOTCH-TYPES_12
 70
64
 10
0.0000
 20
0.0000
  0
TEXT
  8
1
 10
104.9399
 20
52.5876
 40
0.250
 50
0.0000
  1
Piece Name: CAP-C40-NOTCH-TYPES
  7
STANDARD
  0
TEXT
  8
1
 10
104.9399
 20
52.7276
 40
0.250
 50
0.0000
  1
Quantity: 1,0
  7
STANDARD
  0
TEXT
  8
1
 10
104.9399
 20
52.8676
 40
0.250
 50
0.0000
  1
ANNOTATION: RECTANGLE
  7
STANDARD
  0
TEXT
  8
1
 10
104.9399
 20
53.0076
 40
0.250
 50
0.0000
  1
CATEGORY: CAP-C40-NOTCH-TYPES
  7
STANDARD
  0
TEXT
  8
1
 10
104.9399
 20
53.1476
 40
0.250
 50
0.0000
  1
SIZE: 12
  7
STANDARD
  0
POLYLINE
  8
1
 66
1
 70
0
  0
VERTEX
  8
1
 10
91.0831
 20
45.6592
  0
VERTEX
  8
1
 10
91.0831
 20
49.3544
  0
VERTEX
  8
1
 10
91.0831
 20
51.2019
  0
VERTEX
  8
1
 10
91.0831
 20
53.0495
  0
VERTEX
  8
1
 10
91.0831
 20
59.5161
  0
SEQEND
  8
1
  0
POLYLINE
  8
84
 66
1
 70
0
  0
VERTEX
  8
84
 10
91.0831
 20
45.6592
  0
VERTEX
  8
84
 10
91.0831
 20
49.3544
  0
VERTEX
  8
84
 10
91.0831
 20
51.2019
  0
VERTEX
  8
84
 10
91.0831
 20
53.0495
  0
VERTEX
  8
84
 10
91.0831
 20
59.5161
  0
SEQEND
  8
84
  0
POINT
  8
2
 10
91.0831
 20
45.6592
  0
POINT
  8
3
 10
91.0831
 20
49.3544
  0
POINT
  8
3
 10
91.0831
 20
51.2019
  0
POINT
  8
3
 10
91.0831
 20
53.0495
  0
POINT
  8
2
 10
91.0831
 20
59.5161
  0
POLYLINE
  8
1
 66
1
 70
0
  0
VERTEX
  8
1
 10
91.0831
 20
59.5161
  0
VERTEX
  8
1
 10
118.7968
 20
59.5161
  0
SEQEND
  8
1
  0
POLYLINE
  8
84
 66
1
 70
0
  0
VERTEX
  8
84
 10
91.0831
 20
59.5161
  0
VERTEX
  8
84
 10
118.7968
 20
59.5161
  0
SEQEND
  8
84
  0
POINT
  8
2
 10
91.0831
 20
59.5161
  0
POINT
  8
2
 10
118.7968
 20
59.5161
  0
POLYLINE
  8
1
 66
1
 70
0
  0
VERTEX
  8
1
 10
118.7968
 20
59.5161
  0
VERTEX
  8
1
 10
118.7968
 20
45.6592
  0
SEQEND
  8
1
  0
POLYLINE
  8
84
 66
1
 70
0
  0
VERTEX
  8
84
 10
118.7968
 20
59.5161
  0
VERTEX
  8
84
 10
118.7968
 20
45.6592
  0
SEQEND
  8
84
  0
POINT
  8
2
 10
118.7968
 20
59.5161
  0
POINT
  8
2
 10
118.7968
 20
45.6592
  0
POLYLINE
  8
1
 66
1
 70
0
  0
VERTEX
  8
1
 10
118.7968
 20
45.6592
  0
VERTEX
  8
1
 10
92.9307
 20
45.6592
  0
VERTEX
  8
1
 10
91.0831
 20
45.6592
  0
SEQEND
  8
1
  0
POLYLINE
  8
84
 66
1
 70
0
  0
VERTEX
  8
84
 10
118.7968
 20
45.6592
  0
VERTEX
  8
84
 10
92.9307
 20
45.6592
  0
VERTEX
  8
84
 10
91.0831
 20
45.6592
  0
SEQEND
  8
84
  0
POINT
  8
2
 10
118.7968
 20
45.6592
  0
POINT
  8
4
 10
92.9307
 20
45.6592
 30
0.1574
 39
0.0000
  0
POINT
  8
3
 10
92.9307
 20
45.6592
  0
POINT
  8
2
 10
91.0831
 20
45.6592
  0
LINE
  8
7
 10
98.0115
 20
52.5876
 11
111.8684
 21
52.5876
  0
LINE
  8
5
 10
98.0115
 20
52.5876
 11
111.8684
 21
52.5876
  0
POINT
  8
2
 10
98.0115
 20
52.5876
  0
POINT
  8
2
 10
111.8684
 20
52.5876
  0
ENDBLK
  0
ENDSEC
  0
SECTION
  2
ENTITIES
  0
TEXT
  8
1
 10
0.0000
 20
0.0000
 40
0.250
 50
0.0000
  1
Style Name: CAP-C40-NOTCH-TYPES
  7
STANDARD
  0
TEXT
  8
1
 10
0.0000
 20
0.1400
 40
0.250
 50
0.0000
  1
Creation Date:  7-09-2026
  7
STANDARD
  0
TEXT
  8
1
 10
0.0000
 20
0.2800
 40
0.250
 50
0.0000
  1
Creation Time: 15:29
  7
STANDARD
  0
TEXT
  8
1
 10
0.0000
 20
0.4200
 40
0.250
 50
0.0000
  1
Author: GERBER TECHNOLOGY ; ACCUMARK ; 17.1.0
  7
STANDARD
  0
TEXT
  8
1
 10
0.0000
 20
0.5600
 40
0.250
 50
0.0000
  1
Grade Rule Table: A1-LADIES
  7
STANDARD
  0
TEXT
  8
1
 10
0.0000
 20
0.7000
 40
0.250
 50
0.0000
  1
Sample Size: 12
  7
STANDARD
  0
TEXT
  8
1
 10
0.0000
 20
0.8400
 40
0.250
 50
0.0000
  1
Units: ENGLISH
  7
STANDARD
  0
TEXT
  8
1
 10
0.0000
 20
0.9800
 40
0.250
 50
0.0000
  1
Curve Tolerance: .006
  7
STANDARD
  0
TEXT
  8
1
 10
0.0000
 20
1.1200
 40
0.250
 50
0.0000
  1
ASTM/D13Proposal 1 Version: D 6673-04
  7
STANDARD
  0
INSERT
  8
1
  2
CAP-C40-NOTCH-TYPES_12
 10
0.0000
 20
0.0000
  0
ENDSEC
  0
EOF
