  0
SECTION
  2
HEADER
  0
ENDSEC
  0
SECTION
  2
BLOCKS
  0
BLOCK
  8
0
  2
CAP-C00-BASE_12
 70
64
 10
0.0000
 20
0.0000
  0
TEXT
  8
1
 10
-1.3439
 20
5.2224
 40
0.250
 50
0.0000
  1
Piece Name: CAP-C00-BASE
  7
STANDARD
  0
TEXT
  8
1
 10
-1.3439
 20
5.3624
 40
0.250
 50
0.0000
  1
Quantity: 1,0
  7
STANDARD
  0
TEXT
  8
1
 10
-1.3439
 20
5.5024
 40
0.250
 50
0.0000
  1
ANNOTATION: RECTANGLE
  7
STANDARD
  0
TEXT
  8
1
 10
-1.3439
 20
5.6424
 40
0.250
 50
0.0000
  1
CATEGORY: CAP-C00-BASE
  7
STANDARD
  0
TEXT
  8
1
 10
-1.3439
 20
5.7824
 40
0.250
 50
0.0000
  1
SIZE: 12
  7
STANDARD
  0
POLYLINE
  8
1
 66
1
 70
0
  0
VERTEX
  8
1
 10
-7.2600
 20
1.2882
  0
VERTEX
  8
1
 10
-7.2600
 20
9.1566
  0
SEQEND
  8
1
  0
POLYLINE
  8
84
 66
1
 70
0
  0
VERTEX
  8
84
 10
-7.2600
 20
1.2882
  0
VERTEX
  8
84
 10
-7.2600
 20
9.1566
  0
SEQEND
  8
84
  0
POINT
  8
2
 10
-7.2600
 20
1.2882
  0
POINT
  8
2
 10
-7.2600
 20
9.1566
  0
POLYLINE
  8
1
 66
1
 70
0
  0
VERTEX
  8
1
 10
-7.2600
 20
9.1566
  0
VERTEX
  8
1
 10
4.5722
 20
9.1566
  0
SEQEND
  8
1
  0
POLYLINE
  8
84
 66
1
 70
0
  0
VERTEX
  8
84
 10
-7.2600
 20
9.1566
  0
VERTEX
  8
84
 10
4.5722
 20
9.1566
  0
SEQEND
  8
84
  0
POINT
  8
2
 10
-7.2600
 20
9.1566
  0
POINT
  8
2
 10
4.5722
 20
9.1566
  0
POLYLINE
  8
1
 66
1
 70
0
  0
VERTEX
  8
1
 10
4.5722
 20
9.1566
  0
VERTEX
  8
1
 10
4.5722
 20
1.2882
  0
SEQEND
  8
1
  0
POLYLINE
  8
84
 66
1
 70
0
  0
VERTEX
  8
84
 10
4.5722
 20
9.1566
  0
VERTEX
  8
84
 10
4.5722
 20
1.2882
  0
SEQEND
  8
84
  0
POINT
  8
2
 10
4.5722
 20
9.1566
  0
POINT
  8
2
 10
4.5722
 20
1.2882
  0
POLYLINE
  8
1
 66
1
 70
0
  0
VERTEX
  8
1
 10
4.5722
 20
1.2882
  0
VERTEX
  8
1
 10
-7.2600
 20
1.2882
  0
SEQEND
  8
1
  0
POLYLINE
  8
84
 66
1
 70
0
  0
VERTEX
  8
84
 10
4.5722
 20
1.2882
  0
VERTEX
  8
84
 10
-7.2600
 20
1.2882
  0
SEQEND
  8
84
  0
POINT
  8
2
 10
4.5722
 20
1.2882
  0
POINT
  8
2
 10
-7.2600
 20
1.2882
  0
LINE
  8
7
 10
-4.3020
 20
5.2224
 11
1.6141
 21
5.2224
  0
LINE
  8
5
 10
-4.3020
 20
5.2224
 11
1.6141
 21
5.2224
  0
POINT
  8
2
 10
-4.3020
 20
5.2224
  0
POINT
  8
2
 10
1.6141
 20
5.2224
  0
ENDBLK
  0
ENDSEC
  0
SECTION
  2
ENTITIES
  0
TEXT
  8
1
 10
0.0000
 20
0.0000
 40
0.250
 50
0.0000
  1
Style Name: CAP-C00-BASE
  7
STANDARD
  0
TEXT
  8
1
 10
0.0000
 20
0.1400
 40
0.250
 50
0.0000
  1
Creation Date:  7-09-2026
  7
STANDARD
  0
TEXT
  8
1
 10
0.0000
 20
0.2800
 40
0.250
 50
0.0000
  1
Creation Time: 11:15
  7
STANDARD
  0
TEXT
  8
1
 10
0.0000
 20
0.4200
 40
0.250
 50
0.0000
  1
Author: GERBER TECHNOLOGY ; ACCUMARK ; 17.1.0
  7
STANDARD
  0
TEXT
  8
1
 10
0.0000
 20
0.5600
 40
0.250
 50
0.0000
  1
Grade Rule Table: A1-LADIES
  7
STANDARD
  0
TEXT
  8
1
 10
0.0000
 20
0.7000
 40
0.250
 50
0.0000
  1
Sample Size: 12
  7
STANDARD
  0
TEXT
  8
1
 10
0.0000
 20
0.8400
 40
0.250
 50
0.0000
  1
Units: ENGLISH
  7
STANDARD
  0
TEXT
  8
1
 10
0.0000
 20
0.9800
 40
0.250
 50
0.0000
  1
Curve Tolerance: .006
  7
STANDARD
  0
TEXT
  8
1
 10
0.0000
 20
1.1200
 40
0.250
 50
0.0000
  1
ASTM/D13Proposal 1 Version: D 6673-04
  7
STANDARD
  0
INSERT
  8
1
  2
CAP-C00-BASE_12
 10
0.0000
 20
0.0000
  0
ENDSEC
  0
EOF
