  0
SECTION
  2
HEADER
  0
ENDSEC
  0
SECTION
  2
BLOCKS
  0
BLOCK
  8
0
  2
CAP-C42-NOTCH-ALLEDGES_12
 70
64
 10
0.0000
 20
0.0000
  0
TEXT
  8
1
 10
43.9058
 20
28.9359
 40
0.250
 50
0.0000
  1
Piece Name: CAP-C42-NOTCH-ALLEDGES
  7
STANDARD
  0
TEXT
  8
1
 10
43.9058
 20
29.0759
 40
0.250
 50
0.0000
  1
Quantity: 1,0
  7
STANDARD
  0
TEXT
  8
1
 10
43.9058
 20
29.2159
 40
0.250
 50
0.0000
  1
ANNOTATION: RECTANGLE
  7
STANDARD
  0
TEXT
  8
1
 10
43.9058
 20
29.3559
 40
0.250
 50
0.0000
  1
CATEGORY: CAP-C42-NOTCH-ALLEDGES
  7
STANDARD
  0
TEXT
  8
1
 10
43.9058
 20
29.4959
 40
0.250
 50
0.0000
  1
SIZE: 12
  7
STANDARD
  0
POLYLINE
  8
1
 66
1
 70
0
  0
VERTEX
  8
1
 10
35.9781
 20
24.9721
  0
VERTEX
  8
1
 10
35.9781
 20
30.9620
  0
VERTEX
  8
1
 10
35.9781
 20
32.8997
  0
SEQEND
  8
1
  0
POLYLINE
  8
84
 66
1
 70
0
  0
VERTEX
  8
84
 10
35.9781
 20
24.9721
  0
VERTEX
  8
84
 10
35.9781
 20
30.9620
  0
VERTEX
  8
84
 10
35.9781
 20
32.8997
  0
SEQEND
  8
84
  0
POINT
  8
2
 10
35.9781
 20
24.9721
  0
POINT
  8
4
 10
35.9781
 20
30.9620
 30
0.1574
 39
0.0000
  0
POINT
  8
3
 10
35.9781
 20
30.9620
  0
POINT
  8
2
 10
35.9781
 20
32.8997
  0
POLYLINE
  8
1
 66
1
 70
0
  0
VERTEX
  8
1
 10
35.9781
 20
32.8997
  0
VERTEX
  8
1
 10
43.8896
 20
32.8997
  0
VERTEX
  8
1
 10
51.8335
 20
32.8997
  0
SEQEND
  8
1
  0
POLYLINE
  8
84
 66
1
 70
0
  0
VERTEX
  8
84
 10
35.9781
 20
32.8997
  0
VERTEX
  8
84
 10
43.8896
 20
32.8997
  0
VERTEX
  8
84
 10
51.8335
 20
32.8997
  0
SEQEND
  8
84
  0
POINT
  8
2
 10
35.9781
 20
32.8997
  0
POINT
  8
4
 10
43.8896
 20
32.8997
 30
0.1574
 39
0.0000
  0
POINT
  8
3
 10
43.8896
 20
32.8997
  0
POINT
  8
2
 10
51.8335
 20
32.8997
  0
POLYLINE
  8
1
 66
1
 70
0
  0
VERTEX
  8
1
 10
51.8335
 20
32.8997
  0
VERTEX
  8
1
 10
51.8335
 20
30.1516
  0
VERTEX
  8
1
 10
51.8335
 20
24.9721
  0
SEQEND
  8
1
  0
POLYLINE
  8
84
 66
1
 70
0
  0
VERTEX
  8
84
 10
51.8335
 20
32.8997
  0
VERTEX
  8
84
 10
51.8335
 20
30.1516
  0
VERTEX
  8
84
 10
51.8335
 20
24.9721
  0
SEQEND
  8
84
  0
POINT
  8
2
 10
51.8335
 20
32.8997
  0
POINT
  8
4
 10
51.8335
 20
30.1516
 30
0.1574
 39
0.0000
  0
POINT
  8
3
 10
51.8335
 20
30.1516
  0
POINT
  8
2
 10
51.8335
 20
24.9721
  0
POLYLINE
  8
1
 66
1
 70
0
  0
VERTEX
  8
1
 10
51.8335
 20
24.9721
  0
VERTEX
  8
1
 10
46.0292
 20
24.9721
  0
VERTEX
  8
1
 10
35.9781
 20
24.9721
  0
SEQEND
  8
1
  0
POLYLINE
  8
84
 66
1
 70
0
  0
VERTEX
  8
84
 10
51.8335
 20
24.9721
  0
VERTEX
  8
84
 10
46.0292
 20
24.9721
  0
VERTEX
  8
84
 10
35.9781
 20
24.9721
  0
SEQEND
  8
84
  0
POINT
  8
2
 10
51.8335
 20
24.9721
  0
POINT
  8
4
 10
46.0292
 20
24.9721
 30
0.1574
 39
0.0000
  0
POINT
  8
3
 10
46.0292
 20
24.9721
  0
POINT
  8
2
 10
35.9781
 20
24.9721
  0
LINE
  8
7
 10
39.9420
 20
28.9359
 11
47.8697
 21
28.9359
  0
LINE
  8
5
 10
39.9420
 20
28.9359
 11
47.8697
 21
28.9359
  0
POINT
  8
2
 10
39.9420
 20
28.9359
  0
POINT
  8
2
 10
47.8697
 20
28.9359
  0
ENDBLK
  0
ENDSEC
  0
SECTION
  2
ENTITIES
  0
TEXT
  8
1
 10
0.0000
 20
0.0000
 40
0.250
 50
0.0000
  1
Style Name: CAP-C42-NOTCH-ALLEDGES
  7
STANDARD
  0
TEXT
  8
1
 10
0.0000
 20
0.1400
 40
0.250
 50
0.0000
  1
Creation Date:  7-09-2026
  7
STANDARD
  0
TEXT
  8
1
 10
0.0000
 20
0.2800
 40
0.250
 50
0.0000
  1
Creation Time: 23:43
  7
STANDARD
  0
TEXT
  8
1
 10
0.0000
 20
0.4200
 40
0.250
 50
0.0000
  1
Author: GERBER TECHNOLOGY ; ACCUMARK ; 17.1.0
  7
STANDARD
  0
TEXT
  8
1
 10
0.0000
 20
0.5600
 40
0.250
 50
0.0000
  1
Grade Rule Table: A1-LADIES
  7
STANDARD
  0
TEXT
  8
1
 10
0.0000
 20
0.7000
 40
0.250
 50
0.0000
  1
Sample Size: 12
  7
STANDARD
  0
TEXT
  8
1
 10
0.0000
 20
0.8400
 40
0.250
 50
0.0000
  1
Units: ENGLISH
  7
STANDARD
  0
TEXT
  8
1
 10
0.0000
 20
0.9800
 40
0.250
 50
0.0000
  1
Curve Tolerance: .006
  7
STANDARD
  0
TEXT
  8
1
 10
0.0000
 20
1.1200
 40
0.250
 50
0.0000
  1
ASTM/D13Proposal 1 Version: D 6673-04
  7
STANDARD
  0
INSERT
  8
1
  2
CAP-C42-NOTCH-ALLEDGES_12
 10
0.0000
 20
0.0000
  0
ENDSEC
  0
EOF
