  0
SECTION
  2
HEADER
  0
ENDSEC
  0
SECTION
  2
BLOCKS
  0
BLOCK
  8
0
  2
2303-B1-OUMO-1-SP24_32A
 70
64
 10
0.0000
 20
0.0000
  0
TEXT
  8
1
 10
7.5622
 20
5.0705
 40
0.250
 50
0.0000
  1
Piece Name: 2303-B1-OUMO-1-SP24
  7
STANDARD
  0
TEXT
  8
1
 10
7.5622
 20
5.2105
 40
0.250
 50
0.0000
  1
Quantity: 1,1
  7
STANDARD
  0
TEXT
  8
1
 10
7.5622
 20
5.3505
 40
0.250
 50
0.0000
  1
ANNOTATION: C-2
  7
STANDARD
  0
TEXT
  8
1
 10
7.5622
 20
5.4905
 40
0.250
 50
0.0000
  1
CATEGORY: SA60151TH
  7
STANDARD
  0
TEXT
  8
1
 10
7.5622
 20
5.6305
 40
0.250
 50
0.0000
  1
Material: A
  7
STANDARD
  0
TEXT
  8
1
 10
7.5622
 20
5.7705
 40
0.250
 50
0.0000
  1
SIZE: 32A
  7
STANDARD
  0
TEXT
  8
15
 10
7.1442
 20
2.4665
 40
0.118
 50
0.0000
  1
BTM
  7
STANDARD
  0
TEXT
  8
15
 10
7.1535
 20
6.7285
 40
0.118
 50
90.0000
  1
STRIPE
  7
STANDARD
  0
TEXT
  8
15
 10
7.1442
 20
2.4665
 40
0.118
 50
0.0000
  1
BTM
  7
STANDARD
  0
TEXT
  8
15
 10
7.1535
 20
6.7285
 40
0.118
 50
90.0000
  1
STRIPE
  7
STANDARD
  0
POLYLINE
  8
1
 66
1
 70
0
  0
VERTEX
  8
1
 10
3.5002
 20
3.7195
  0
VERTEX
  8
1
 10
3.4238
 20
3.9248
  0
VERTEX
  8
1
 10
3.3535
 20
4.1453
  0
VERTEX
  8
1
 10
3.2975
 20
4.3577
  0
VERTEX
  8
1
 10
3.2553
 20
4.5617
  0
VERTEX
  8
1
 10
3.2260
 20
4.7562
  0
VERTEX
  8
1
 10
3.2076
 20
4.9445
  0
VERTEX
  8
1
 10
3.1981
 20
5.1767
  0
VERTEX
  8
1
 10
3.1998
 20
5.3753
  0
VERTEX
  8
1
 10
3.2118
 20
5.9149
  0
VERTEX
  8
1
 10
3.3115
 20
6.3361
  0
VERTEX
  8
1
 10
3.4020
 20
6.6704
  0
VERTEX
  8
1
 10
3.5201
 20
7.0203
  0
VERTEX
  8
1
 10
3.6023
 20
7.2214
  0
VERTEX
  8
1
 10
3.6958
 20
7.4213
  0
VERTEX
  8
1
 10
3.8364
 20
7.6782
  0
VERTEX
  8
1
 10
4.0067
 20
7.9393
  0
VERTEX
  8
1
 10
4.2058
 20
8.1966
  0
VERTEX
  8
1
 10
4.4506
 20
8.4653
  0
VERTEX
  8
1
 10
4.7131
 20
8.6918
  0
VERTEX
  8
1
 10
4.9289
 20
8.8638
  0
VERTEX
  8
1
 10
5.1385
 20
9.0160
  0
VERTEX
  8
1
 10
5.3438
 20
9.1499
  0
VERTEX
  8
1
 10
5.5462
 20
9.2661
  0
VERTEX
  8
1
 10
5.7462
 20
9.3651
  0
VERTEX
  8
1
 10
5.9432
 20
9.4468
  0
VERTEX
  8
1
 10
6.1417
 20
9.5139
  0
VERTEX
  8
1
 10
6.3855
 20
9.5756
  0
VERTEX
  8
1
 10
6.6155
 20
9.6147
  0
VERTEX
  8
1
 10
7.0107
 20
9.6554
  0
VERTEX
  8
1
 10
7.2415
 20
9.6562
  0
VERTEX
  8
1
 10
7.4264
 20
9.6504
  0
VERTEX
  8
1
 10
7.6052
 20
9.6383
  0
VERTEX
  8
1
 10
7.7893
 20
9.6189
  0
VERTEX
  8
1
 10
8.1047
 20
9.5667
  0
VERTEX
  8
1
 10
8.4086
 20
9.4912
  0
SEQEND
  8
1
  0
POLYLINE
  8
84
 66
1
 70
0
  0
VERTEX
  8
84
 10
3.5002
 20
3.7195
  0
VERTEX
  8
84
 10
3.4238
 20
3.9248
  0
VERTEX
  8
84
 10
3.3535
 20
4.1453
  0
VERTEX
  8
84
 10
3.2975
 20
4.3577
  0
VERTEX
  8
84
 10
3.2553
 20
4.5617
  0
VERTEX
  8
84
 10
3.2260
 20
4.7562
  0
VERTEX
  8
84
 10
3.2076
 20
4.9445
  0
VERTEX
  8
84
 10
3.1981
 20
5.1767
  0
VERTEX
  8
84
 10
3.1998
 20
5.3753
  0
VERTEX
  8
84
 10
3.2118
 20
5.9149
  0
VERTEX
  8
84
 10
3.3115
 20
6.3361
  0
VERTEX
  8
84
 10
3.4020
 20
6.6704
  0
VERTEX
  8
84
 10
3.5201
 20
7.0203
  0
VERTEX
  8
84
 10
3.6023
 20
7.2214
  0
VERTEX
  8
84
 10
3.6958
 20
7.4213
  0
VERTEX
  8
84
 10
3.8364
 20
7.6782
  0
VERTEX
  8
84
 10
4.0067
 20
7.9393
  0
VERTEX
  8
84
 10
4.2058
 20
8.1966
  0
VERTEX
  8
84
 10
4.4506
 20
8.4653
  0
VERTEX
  8
84
 10
4.7131
 20
8.6918
  0
VERTEX
  8
84
 10
4.9289
 20
8.8638
  0
VERTEX
  8
84
 10
5.1385
 20
9.0160
  0
VERTEX
  8
84
 10
5.3438
 20
9.1499
  0
VERTEX
  8
84
 10
5.5462
 20
9.2661
  0
VERTEX
  8
84
 10
5.7462
 20
9.3651
  0
VERTEX
  8
84
 10
5.9432
 20
9.4468
  0
VERTEX
  8
84
 10
6.1417
 20
9.5139
  0
VERTEX
  8
84
 10
6.3855
 20
9.5756
  0
VERTEX
  8
84
 10
6.6155
 20
9.6147
  0
VERTEX
  8
84
 10
7.0107
 20
9.6554
  0
VERTEX
  8
84
 10
7.2415
 20
9.6562
  0
VERTEX
  8
84
 10
7.4264
 20
9.6504
  0
VERTEX
  8
84
 10
7.6052
 20
9.6383
  0
VERTEX
  8
84
 10
7.7893
 20
9.6189
  0
VERTEX
  8
84
 10
8.1047
 20
9.5667
  0
VERTEX
  8
84
 10
8.4086
 20
9.4912
  0
SEQEND
  8
84
  0
POINT
  8
2
 10
3.5002
 20
3.7195
  0
POINT
  8
2
 10
3.4238
 20
3.9248
  0
POINT
  8
2
 10
3.3535
 20
4.1453
  0
POINT
  8
2
 10
3.2975
 20
4.3577
  0
POINT
  8
2
 10
3.2553
 20
4.5617
  0
POINT
  8
2
 10
3.2260
 20
4.7562
  0
POINT
  8
2
 10
3.2076
 20
4.9445
  0
POINT
  8
2
 10
3.1981
 20
5.1767
  0
POINT
  8
2
 10
3.1998
 20
5.3753
  0
POINT
  8
2
 10
3.2118
 20
5.9149
  0
POINT
  8
2
 10
3.3115
 20
6.3361
  0
POINT
  8
2
 10
3.4020
 20
6.6704
  0
POINT
  8
2
 10
3.5201
 20
7.0203
  0
POINT
  8
2
 10
3.6023
 20
7.2214
  0
POINT
  8
2
 10
3.6958
 20
7.4213
  0
POINT
  8
2
 10
3.8364
 20
7.6782
  0
POINT
  8
2
 10
4.0067
 20
7.9393
  0
POINT
  8
2
 10
4.2058
 20
8.1966
  0
POINT
  8
2
 10
4.4506
 20
8.4653
  0
POINT
  8
2
 10
4.7131
 20
8.6918
  0
POINT
  8
2
 10
4.9289
 20
8.8638
  0
POINT
  8
2
 10
5.1385
 20
9.0160
  0
POINT
  8
2
 10
5.3438
 20
9.1499
  0
POINT
  8
2
 10
5.5462
 20
9.2661
  0
POINT
  8
2
 10
5.7462
 20
9.3651
  0
POINT
  8
2
 10
5.9432
 20
9.4468
  0
POINT
  8
2
 10
6.1417
 20
9.5139
  0
POINT
  8
2
 10
6.3855
 20
9.5756
  0
POINT
  8
2
 10
6.6155
 20
9.6147
  0
POINT
  8
2
 10
7.0107
 20
9.6554
  0
POINT
  8
2
 10
7.2415
 20
9.6562
  0
POINT
  8
2
 10
7.4264
 20
9.6504
  0
POINT
  8
2
 10
7.6052
 20
9.6383
  0
POINT
  8
2
 10
7.7893
 20
9.6189
  0
POINT
  8
2
 10
8.1047
 20
9.5667
  0
POINT
  8
2
 10
8.4086
 20
9.4912
  0
POLYLINE
  8
1
 66
1
 70
0
  0
VERTEX
  8
1
 10
8.4086
 20
9.4912
  0
VERTEX
  8
1
 10
9.0307
 20
9.2914
  0
VERTEX
  8
1
 10
9.1194
 20
9.2629
  0
VERTEX
  8
1
 10
9.1553
 20
9.2474
  0
VERTEX
  8
1
 10
9.7851
 20
8.9509
  0
VERTEX
  8
1
 10
10.6275
 20
8.4309
  0
VERTEX
  8
1
 10
11.2708
 20
7.9255
  0
SEQEND
  8
1
  0
POLYLINE
  8
84
 66
1
 70
0
  0
VERTEX
  8
84
 10
8.4086
 20
9.4912
  0
VERTEX
  8
84
 10
9.0307
 20
9.2914
  0
VERTEX
  8
84
 10
9.1194
 20
9.2629
  0
VERTEX
  8
84
 10
9.1553
 20
9.2474
  0
VERTEX
  8
84
 10
9.4730
 20
9.1047
  0
VERTEX
  8
84
 10
9.7851
 20
8.9509
  0
VERTEX
  8
84
 10
10.2135
 20
8.7026
  0
VERTEX
  8
84
 10
10.6275
 20
8.4309
  0
VERTEX
  8
84
 10
11.2708
 20
7.9255
  0
SEQEND
  8
84
  0
POINT
  8
2
 10
8.4086
 20
9.4912
  0
POINT
  8
3
 10
9.0307
 20
9.2914
  0
POINT
  8
3
 10
9.1194
 20
9.2629
  0
POINT
  8
3
 10
9.1553
 20
9.2474
  0
POINT
  8
3
 10
9.7851
 20
8.9509
  0
POINT
  8
3
 10
10.6275
 20
8.4309
  0
POINT
  8
2
 10
11.2708
 20
7.9255
  0
POLYLINE
  8
1
 66
1
 70
0
  0
VERTEX
  8
1
 10
11.2708
 20
7.9255
  0
VERTEX
  8
1
 10
11.6374
 20
6.9823
  0
VERTEX
  8
1
 10
11.7229
 20
6.7449
  0
VERTEX
  8
1
 10
11.7924
 20
6.5040
  0
VERTEX
  8
1
 10
11.8430
 20
6.2742
  0
VERTEX
  8
1
 10
11.8776
 20
6.0543
  0
VERTEX
  8
1
 10
11.9026
 20
5.7977
  0
VERTEX
  8
1
 10
11.9137
 20
5.5631
  0
VERTEX
  8
1
 10
11.9263
 20
5.0840
  0
VERTEX
  8
1
 10
11.9150
 20
4.7878
  0
VERTEX
  8
1
 10
11.8782
 20
4.4914
  0
VERTEX
  8
1
 10
11.8216
 20
4.2091
  0
VERTEX
  8
1
 10
11.7494
 20
3.9386
  0
VERTEX
  8
1
 10
11.6644
 20
3.6759
  0
VERTEX
  8
1
 10
11.5759
 20
3.4359
  0
VERTEX
  8
1
 10
11.4980
 20
3.2222
  0
VERTEX
  8
1
 10
11.3963
 20
2.9955
  0
VERTEX
  8
1
 10
11.2832
 20
2.7841
  0
VERTEX
  8
1
 10
11.1573
 20
2.5818
  0
VERTEX
  8
1
 10
10.9439
 20
2.2919
  0
VERTEX
  8
1
 10
10.7174
 20
2.0306
  0
VERTEX
  8
1
 10
10.4925
 20
1.7984
  0
VERTEX
  8
1
 10
10.2771
 20
1.5887
  0
SEQEND
  8
1
  0
POLYLINE
  8
84
 66
1
 70
0
  0
VERTEX
  8
84
 10
11.2708
 20
7.9255
  0
VERTEX
  8
84
 10
11.6374
 20
6.9823
  0
VERTEX
  8
84
 10
11.7229
 20
6.7449
  0
VERTEX
  8
84
 10
11.7924
 20
6.5040
  0
VERTEX
  8
84
 10
11.8430
 20
6.2742
  0
VERTEX
  8
84
 10
11.8776
 20
6.0543
  0
VERTEX
  8
84
 10
11.9026
 20
5.7977
  0
VERTEX
  8
84
 10
11.9137
 20
5.5631
  0
VERTEX
  8
84
 10
11.9263
 20
5.0840
  0
VERTEX
  8
84
 10
11.9150
 20
4.7878
  0
VERTEX
  8
84
 10
11.8782
 20
4.4914
  0
VERTEX
  8
84
 10
11.8216
 20
4.2091
  0
VERTEX
  8
84
 10
11.7494
 20
3.9386
  0
VERTEX
  8
84
 10
11.6644
 20
3.6759
  0
VERTEX
  8
84
 10
11.5759
 20
3.4359
  0
VERTEX
  8
84
 10
11.4980
 20
3.2222
  0
VERTEX
  8
84
 10
11.3963
 20
2.9955
  0
VERTEX
  8
84
 10
11.2832
 20
2.7841
  0
VERTEX
  8
84
 10
11.1573
 20
2.5818
  0
VERTEX
  8
84
 10
10.9439
 20
2.2919
  0
VERTEX
  8
84
 10
10.7174
 20
2.0306
  0
VERTEX
  8
84
 10
10.4925
 20
1.7984
  0
VERTEX
  8
84
 10
10.2771
 20
1.5887
  0
SEQEND
  8
84
  0
POINT
  8
2
 10
11.2708
 20
7.9255
  0
POINT
  8
2
 10
11.6374
 20
6.9823
  0
POINT
  8
2
 10
11.7229
 20
6.7449
  0
POINT
  8
2
 10
11.7924
 20
6.5040
  0
POINT
  8
2
 10
11.8430
 20
6.2742
  0
POINT
  8
2
 10
11.8776
 20
6.0543
  0
POINT
  8
2
 10
11.9026
 20
5.7977
  0
POINT
  8
2
 10
11.9137
 20
5.5631
  0
POINT
  8
2
 10
11.9263
 20
5.0840
  0
POINT
  8
2
 10
11.9150
 20
4.7878
  0
POINT
  8
2
 10
11.8782
 20
4.4914
  0
POINT
  8
2
 10
11.8216
 20
4.2091
  0
POINT
  8
2
 10
11.7494
 20
3.9386
  0
POINT
  8
2
 10
11.6644
 20
3.6759
  0
POINT
  8
2
 10
11.5759
 20
3.4359
  0
POINT
  8
2
 10
11.4980
 20
3.2222
  0
POINT
  8
2
 10
11.3963
 20
2.9955
  0
POINT
  8
2
 10
11.2832
 20
2.7841
  0
POINT
  8
2
 10
11.1573
 20
2.5818
  0
POINT
  8
2
 10
10.9439
 20
2.2919
  0
POINT
  8
2
 10
10.7174
 20
2.0306
  0
POINT
  8
2
 10
10.4925
 20
1.7984
  0
POINT
  8
2
 10
10.2771
 20
1.5887
  0
POLYLINE
  8
1
 66
1
 70
0
  0
VERTEX
  8
1
 10
10.2771
 20
1.5887
  0
VERTEX
  8
1
 10
9.9603
 20
1.3373
  0
VERTEX
  8
1
 10
9.6699
 20
1.1474
  0
VERTEX
  8
1
 10
9.3391
 20
0.9588
  0
VERTEX
  8
1
 10
9.0078
 20
0.7882
  0
VERTEX
  8
1
 10
8.3853
 20
0.4848
  0
SEQEND
  8
1
  0
POLYLINE
  8
84
 66
1
 70
0
  0
VERTEX
  8
84
 10
10.2771
 20
1.5887
  0
VERTEX
  8
84
 10
9.9603
 20
1.3373
  0
VERTEX
  8
84
 10
9.6699
 20
1.1474
  0
VERTEX
  8
84
 10
9.3391
 20
0.9588
  0
VERTEX
  8
84
 10
9.0078
 20
0.7882
  0
VERTEX
  8
84
 10
8.3853
 20
0.4848
  0
SEQEND
  8
84
  0
POINT
  8
2
 10
10.2771
 20
1.5887
  0
POINT
  8
2
 10
9.9603
 20
1.3373
  0
POINT
  8
2
 10
9.6699
 20
1.1474
  0
POINT
  8
2
 10
9.3391
 20
0.9588
  0
POINT
  8
2
 10
9.0078
 20
0.7882
  0
POINT
  8
2
 10
8.3853
 20
0.4848
  0
POLYLINE
  8
1
 66
1
 70
0
  0
VERTEX
  8
1
 10
8.3853
 20
0.4848
  0
VERTEX
  8
1
 10
7.4264
 20
0.4850
  0
VERTEX
  8
1
 10
6.2019
 20
0.8189
  0
VERTEX
  8
1
 10
5.5429
 20
1.1589
  0
VERTEX
  8
1
 10
5.0695
 20
1.5046
  0
VERTEX
  8
1
 10
4.8544
 20
1.6774
  0
VERTEX
  8
1
 10
4.7163
 20
1.8103
  0
VERTEX
  8
1
 10
4.5943
 20
1.9222
  0
VERTEX
  8
1
 10
4.4735
 20
2.0431
  0
VERTEX
  8
1
 10
4.3521
 20
2.1765
  0
VERTEX
  8
1
 10
4.2315
 20
2.3216
  0
VERTEX
  8
1
 10
4.1124
 20
2.4787
  0
VERTEX
  8
1
 10
3.9948
 20
2.6483
  0
VERTEX
  8
1
 10
3.8784
 20
2.8310
  0
VERTEX
  8
1
 10
3.7172
 20
3.1040
  0
VERTEX
  8
1
 10
3.5888
 20
3.4469
  0
VERTEX
  8
1
 10
3.5002
 20
3.7195
  0
SEQEND
  8
1
  0
POLYLINE
  8
84
 66
1
 70
0
  0
VERTEX
  8
84
 10
8.3853
 20
0.4848
  0
VERTEX
  8
84
 10
7.9048
 20
0.4693
  0
VERTEX
  8
84
 10
7.6651
 20
0.4694
  0
VERTEX
  8
84
 10
7.4264
 20
0.4850
  0
VERTEX
  8
84
 10
7.1162
 20
0.5482
  0
VERTEX
  8
84
 10
6.8101
 20
0.6317
  0
VERTEX
  8
84
 10
6.2019
 20
0.8189
  0
VERTEX
  8
84
 10
5.5429
 20
1.1589
  0
VERTEX
  8
84
 10
5.0695
 20
1.5046
  0
VERTEX
  8
84
 10
4.8544
 20
1.6774
  0
VERTEX
  8
84
 10
4.7163
 20
1.8103
  0
VERTEX
  8
84
 10
4.5943
 20
1.9222
  0
VERTEX
  8
84
 10
4.4735
 20
2.0431
  0
VERTEX
  8
84
 10
4.3521
 20
2.1765
  0
VERTEX
  8
84
 10
4.2315
 20
2.3216
  0
VERTEX
  8
84
 10
4.1124
 20
2.4787
  0
VERTEX
  8
84
 10
3.9948
 20
2.6483
  0
VERTEX
  8
84
 10
3.8784
 20
2.8310
  0
VERTEX
  8
84
 10
3.7172
 20
3.1040
  0
VERTEX
  8
84
 10
3.5888
 20
3.4469
  0
VERTEX
  8
84
 10
3.5002
 20
3.7195
  0
SEQEND
  8
84
  0
POINT
  8
2
 10
8.3853
 20
0.4848
  0
POINT
  8
3
 10
7.4264
 20
0.4850
  0
POINT
  8
2
 10
6.2019
 20
0.8189
  0
POINT
  8
2
 10
5.5429
 20
1.1589
  0
POINT
  8
2
 10
5.0695
 20
1.5046
  0
POINT
  8
2
 10
4.8544
 20
1.6774
  0
POINT
  8
2
 10
4.7163
 20
1.8103
  0
POINT
  8
2
 10
4.5943
 20
1.9222
  0
POINT
  8
2
 10
4.4735
 20
2.0431
  0
POINT
  8
2
 10
4.3521
 20
2.1765
  0
POINT
  8
2
 10
4.2315
 20
2.3216
  0
POINT
  8
2
 10
4.1124
 20
2.4787
  0
POINT
  8
2
 10
3.9948
 20
2.6483
  0
POINT
  8
2
 10
3.8784
 20
2.8310
  0
POINT
  8
2
 10
3.7172
 20
3.1040
  0
POINT
  8
2
 10
3.5888
 20
3.4469
  0
POINT
  8
2
 10
3.5002
 20
3.7195
  0
LINE
  8
7
 10
5.3496
 20
6.1718
 11
9.7137
 21
6.1718
  0
LINE
  8
5
 10
5.3496
 20
6.1718
 11
9.7137
 21
6.1718
  0
POINT
  8
2
 10
5.3496
 20
6.1718
  0
POINT
  8
2
 10
9.7137
 20
6.1718
  0
POLYLINE
  8
11
 66
1
 70
0
  0
VERTEX
  8
11
 10
5.8821
 20
7.8234
  0
VERTEX
  8
11
 10
5.8172
 20
6.9422
  0
VERTEX
  8
11
 10
5.7805
 20
6.5141
  0
VERTEX
  8
11
 10
5.7666
 20
6.0884
  0
VERTEX
  8
11
 10
5.7717
 20
5.6697
  0
VERTEX
  8
11
 10
5.7918
 20
5.2579
  0
VERTEX
  8
11
 10
5.8200
 20
4.8904
  0
VERTEX
  8
11
 10
5.8548
 20
4.5324
  0
VERTEX
  8
11
 10
5.9579
 20
4.1757
  0
VERTEX
  8
11
 10
6.0360
 20
3.9225
  0
VERTEX
  8
11
 10
6.0737
 20
3.8172
  0
VERTEX
  8
11
 10
6.1176
 20
3.7056
  0
VERTEX
  8
11
 10
6.1691
 20
3.5862
  0
VERTEX
  8
11
 10
6.2297
 20
3.4576
  0
VERTEX
  8
11
 10
6.3006
 20
3.3186
  0
VERTEX
  8
11
 10
6.3832
 20
3.1676
  0
VERTEX
  8
11
 10
6.4789
 20
3.0033
  0
VERTEX
  8
11
 10
6.5891
 20
2.8243
  0
VERTEX
  8
11
 10
6.7033
 20
2.6729
  0
VERTEX
  8
11
 10
6.8374
 20
2.5074
  0
VERTEX
  8
11
 10
6.9606
 20
2.3625
  0
VERTEX
  8
11
 10
7.0941
 20
2.2103
  0
VERTEX
  8
11
 10
7.2365
 20
2.0518
  0
VERTEX
  8
11
 10
7.3864
 20
1.8881
  0
VERTEX
  8
11
 10
7.7067
 20
1.5451
  0
VERTEX
  8
11
 10
8.0403
 20
1.1926
  0
SEQEND
  8
11
  0
POLYLINE
  8
86
 66
1
 70
0
  0
VERTEX
  8
86
 10
5.8821
 20
7.8234
  0
VERTEX
  8
86
 10
5.8172
 20
6.9422
  0
VERTEX
  8
86
 10
5.7805
 20
6.5141
  0
VERTEX
  8
86
 10
5.7666
 20
6.0884
  0
VERTEX
  8
86
 10
5.7717
 20
5.6697
  0
VERTEX
  8
86
 10
5.7918
 20
5.2579
  0
VERTEX
  8
86
 10
5.8200
 20
4.8904
  0
VERTEX
  8
86
 10
5.8548
 20
4.5324
  0
VERTEX
  8
86
 10
5.9579
 20
4.1757
  0
VERTEX
  8
86
 10
6.0360
 20
3.9225
  0
VERTEX
  8
86
 10
6.0737
 20
3.8172
  0
VERTEX
  8
86
 10
6.1176
 20
3.7056
  0
VERTEX
  8
86
 10
6.1691
 20
3.5862
  0
VERTEX
  8
86
 10
6.2297
 20
3.4576
  0
VERTEX
  8
86
 10
6.3006
 20
3.3186
  0
VERTEX
  8
86
 10
6.3832
 20
3.1676
  0
VERTEX
  8
86
 10
6.4789
 20
3.0033
  0
VERTEX
  8
86
 10
6.5891
 20
2.8243
  0
VERTEX
  8
86
 10
6.7033
 20
2.6729
  0
VERTEX
  8
86
 10
6.8374
 20
2.5074
  0
VERTEX
  8
86
 10
6.9606
 20
2.3625
  0
VERTEX
  8
86
 10
7.0941
 20
2.2103
  0
VERTEX
  8
86
 10
7.2365
 20
2.0518
  0
VERTEX
  8
86
 10
7.3864
 20
1.8881
  0
VERTEX
  8
86
 10
7.7067
 20
1.5451
  0
VERTEX
  8
86
 10
8.0403
 20
1.1926
  0
SEQEND
  8
86
  0
POINT
  8
2
 10
5.8821
 20
7.8234
  0
POINT
  8
2
 10
5.8172
 20
6.9422
  0
POINT
  8
2
 10
5.7805
 20
6.5141
  0
POINT
  8
2
 10
5.7666
 20
6.0884
  0
POINT
  8
2
 10
5.7717
 20
5.6697
  0
POINT
  8
2
 10
5.7918
 20
5.2579
  0
POINT
  8
2
 10
5.8200
 20
4.8904
  0
POINT
  8
2
 10
5.8548
 20
4.5324
  0
POINT
  8
2
 10
5.9579
 20
4.1757
  0
POINT
  8
2
 10
6.0360
 20
3.9225
  0
POINT
  8
2
 10
6.0737
 20
3.8172
  0
POINT
  8
2
 10
6.1176
 20
3.7056
  0
POINT
  8
2
 10
6.1691
 20
3.5862
  0
POINT
  8
2
 10
6.2297
 20
3.4576
  0
POINT
  8
2
 10
6.3006
 20
3.3186
  0
POINT
  8
2
 10
6.3832
 20
3.1676
  0
POINT
  8
2
 10
6.4789
 20
3.0033
  0
POINT
  8
2
 10
6.5891
 20
2.8243
  0
POINT
  8
2
 10
6.7033
 20
2.6729
  0
POINT
  8
2
 10
6.8374
 20
2.5074
  0
POINT
  8
2
 10
6.9606
 20
2.3625
  0
POINT
  8
2
 10
7.0941
 20
2.2103
  0
POINT
  8
2
 10
7.2365
 20
2.0518
  0
POINT
  8
2
 10
7.3864
 20
1.8881
  0
POINT
  8
2
 10
7.7067
 20
1.5451
  0
POINT
  8
2
 10
8.0403
 20
1.1926
  0
POLYLINE
  8
11
 66
1
 70
0
  0
VERTEX
  8
11
 10
10.5369
 20
7.6403
  0
VERTEX
  8
11
 10
10.3350
 20
7.5828
  0
VERTEX
  8
11
 10
10.1462
 20
7.5248
  0
VERTEX
  8
11
 10
9.9104
 20
7.4585
  0
VERTEX
  8
11
 10
9.7209
 20
7.4170
  0
VERTEX
  8
11
 10
9.6160
 20
7.3990
  0
VERTEX
  8
11
 10
9.5024
 20
7.3833
  0
VERTEX
  8
11
 10
9.3789
 20
7.3701
  0
VERTEX
  8
11
 10
9.2439
 20
7.3598
  0
VERTEX
  8
11
 10
9.0963
 20
7.3526
  0
VERTEX
  8
11
 10
8.9344
 20
7.3489
  0
VERTEX
  8
11
 10
8.6599
 20
7.3721
  0
VERTEX
  8
11
 10
8.3885
 20
7.3854
  0
VERTEX
  8
11
 10
7.8811
 20
7.4101
  0
VERTEX
  8
11
 10
7.5781
 20
7.4406
  0
VERTEX
  8
11
 10
7.2647
 20
7.4950
  0
VERTEX
  8
11
 10
6.9884
 20
7.5423
  0
VERTEX
  8
11
 10
6.7231
 20
7.5988
  0
VERTEX
  8
11
 10
6.4880
 20
7.6563
  0
VERTEX
  8
11
 10
6.2618
 20
7.7167
  0
VERTEX
  8
11
 10
5.8821
 20
7.8234
  0
SEQEND
  8
11
  0
POLYLINE
  8
86
 66
1
 70
0
  0
VERTEX
  8
86
 10
10.5369
 20
7.6403
  0
VERTEX
  8
86
 10
10.3350
 20
7.5828
  0
VERTEX
  8
86
 10
10.1462
 20
7.5248
  0
VERTEX
  8
86
 10
9.9104
 20
7.4585
  0
VERTEX
  8
86
 10
9.7209
 20
7.4170
  0
VERTEX
  8
86
 10
9.6160
 20
7.3990
  0
VERTEX
  8
86
 10
9.5024
 20
7.3833
  0
VERTEX
  8
86
 10
9.3789
 20
7.3701
  0
VERTEX
  8
86
 10
9.2439
 20
7.3598
  0
VERTEX
  8
86
 10
9.0963
 20
7.3526
  0
VERTEX
  8
86
 10
8.9344
 20
7.3489
  0
VERTEX
  8
86
 10
8.6599
 20
7.3721
  0
VERTEX
  8
86
 10
8.3885
 20
7.3854
  0
VERTEX
  8
86
 10
7.8811
 20
7.4101
  0
VERTEX
  8
86
 10
7.5781
 20
7.4406
  0
VERTEX
  8
86
 10
7.2647
 20
7.4950
  0
VERTEX
  8
86
 10
6.9884
 20
7.5423
  0
VERTEX
  8
86
 10
6.7231
 20
7.5988
  0
VERTEX
  8
86
 10
6.4880
 20
7.6563
  0
VERTEX
  8
86
 10
6.2618
 20
7.7167
  0
VERTEX
  8
86
 10
5.8821
 20
7.8234
  0
SEQEND
  8
86
  0
POINT
  8
2
 10
10.5369
 20
7.6403
  0
POINT
  8
2
 10
10.3350
 20
7.5828
  0
POINT
  8
2
 10
10.1462
 20
7.5248
  0
POINT
  8
2
 10
9.9104
 20
7.4585
  0
POINT
  8
2
 10
9.7209
 20
7.4170
  0
POINT
  8
2
 10
9.6160
 20
7.3990
  0
POINT
  8
2
 10
9.5024
 20
7.3833
  0
POINT
  8
2
 10
9.3789
 20
7.3701
  0
POINT
  8
2
 10
9.2439
 20
7.3598
  0
POINT
  8
2
 10
9.0963
 20
7.3526
  0
POINT
  8
2
 10
8.9344
 20
7.3489
  0
POINT
  8
2
 10
8.6599
 20
7.3721
  0
POINT
  8
2
 10
8.3885
 20
7.3854
  0
POINT
  8
2
 10
7.8811
 20
7.4101
  0
POINT
  8
2
 10
7.5781
 20
7.4406
  0
POINT
  8
2
 10
7.2647
 20
7.4950
  0
POINT
  8
2
 10
6.9884
 20
7.5423
  0
POINT
  8
2
 10
6.7231
 20
7.5988
  0
POINT
  8
2
 10
6.4880
 20
7.6563
  0
POINT
  8
2
 10
6.2618
 20
7.7167
  0
POINT
  8
2
 10
5.8821
 20
7.8234
  0
POLYLINE
  8
11
 66
1
 70
0
  0
VERTEX
  8
11
 10
9.7278
 20
2.1527
  0
VERTEX
  8
11
 10
9.9349
 20
2.3544
  0
VERTEX
  8
11
 10
10.1366
 20
2.5628
  0
VERTEX
  8
11
 10
10.3284
 20
2.7839
  0
VERTEX
  8
11
 10
10.5051
 20
3.0239
  0
VERTEX
  8
11
 10
10.6011
 20
3.1783
  0
VERTEX
  8
11
 10
10.6891
 20
3.3427
  0
VERTEX
  8
11
 10
10.7679
 20
3.5185
  0
VERTEX
  8
11
 10
10.8366
 20
3.7070
  0
VERTEX
  8
11
 10
10.9202
 20
3.9334
  0
VERTEX
  8
11
 10
10.9939
 20
4.1614
  0
VERTEX
  8
11
 10
11.0544
 20
4.3882
  0
VERTEX
  8
11
 10
11.1004
 20
4.6174
  0
VERTEX
  8
11
 10
11.1294
 20
4.8514
  0
VERTEX
  8
11
 10
11.1385
 20
5.0887
  0
VERTEX
  8
11
 10
11.1268
 20
5.5341
  0
VERTEX
  8
11
 10
11.1170
 20
5.7408
  0
VERTEX
  8
11
 10
11.0962
 20
5.9549
  0
VERTEX
  8
11
 10
11.0689
 20
6.1282
  0
VERTEX
  8
11
 10
11.0289
 20
6.3100
  0
VERTEX
  8
11
 10
10.9735
 20
6.5020
  0
VERTEX
  8
11
 10
10.8999
 20
6.7062
  0
VERTEX
  8
11
 10
10.5369
 20
7.6403
  0
SEQEND
  8
11
  0
POLYLINE
  8
86
 66
1
 70
0
  0
VERTEX
  8
86
 10
9.7278
 20
2.1527
  0
VERTEX
  8
86
 10
9.9349
 20
2.3544
  0
VERTEX
  8
86
 10
10.1366
 20
2.5628
  0
VERTEX
  8
86
 10
10.3284
 20
2.7839
  0
VERTEX
  8
86
 10
10.5051
 20
3.0239
  0
VERTEX
  8
86
 10
10.6011
 20
3.1783
  0
VERTEX
  8
86
 10
10.6891
 20
3.3427
  0
VERTEX
  8
86
 10
10.7679
 20
3.5185
  0
VERTEX
  8
86
 10
10.8366
 20
3.7070
  0
VERTEX
  8
86
 10
10.9202
 20
3.9334
  0
VERTEX
  8
86
 10
10.9939
 20
4.1614
  0
VERTEX
  8
86
 10
11.0544
 20
4.3882
  0
VERTEX
  8
86
 10
11.1004
 20
4.6174
  0
VERTEX
  8
86
 10
11.1294
 20
4.8514
  0
VERTEX
  8
86
 10
11.1385
 20
5.0887
  0
VERTEX
  8
86
 10
11.1268
 20
5.5341
  0
VERTEX
  8
86
 10
11.1170
 20
5.7408
  0
VERTEX
  8
86
 10
11.0962
 20
5.9549
  0
VERTEX
  8
86
 10
11.0689
 20
6.1282
  0
VERTEX
  8
86
 10
11.0289
 20
6.3100
  0
VERTEX
  8
86
 10
10.9735
 20
6.5020
  0
VERTEX
  8
86
 10
10.8999
 20
6.7062
  0
VERTEX
  8
86
 10
10.5369
 20
7.6403
  0
SEQEND
  8
86
  0
POINT
  8
2
 10
9.7278
 20
2.1527
  0
POINT
  8
2
 10
9.9349
 20
2.3544
  0
POINT
  8
2
 10
10.1366
 20
2.5628
  0
POINT
  8
2
 10
10.3284
 20
2.7839
  0
POINT
  8
2
 10
10.5051
 20
3.0239
  0
POINT
  8
2
 10
10.6011
 20
3.1783
  0
POINT
  8
2
 10
10.6891
 20
3.3427
  0
POINT
  8
2
 10
10.7679
 20
3.5185
  0
POINT
  8
2
 10
10.8366
 20
3.7070
  0
POINT
  8
2
 10
10.9202
 20
3.9334
  0
POINT
  8
2
 10
10.9939
 20
4.1614
  0
POINT
  8
2
 10
11.0544
 20
4.3882
  0
POINT
  8
2
 10
11.1004
 20
4.6174
  0
POINT
  8
2
 10
11.1294
 20
4.8514
  0
POINT
  8
2
 10
11.1385
 20
5.0887
  0
POINT
  8
2
 10
11.1268
 20
5.5341
  0
POINT
  8
2
 10
11.1170
 20
5.7408
  0
POINT
  8
2
 10
11.0962
 20
5.9549
  0
POINT
  8
2
 10
11.0689
 20
6.1282
  0
POINT
  8
2
 10
11.0289
 20
6.3100
  0
POINT
  8
2
 10
10.9735
 20
6.5020
  0
POINT
  8
2
 10
10.8999
 20
6.7062
  0
POINT
  8
2
 10
10.5369
 20
7.6403
  0
POLYLINE
  8
11
 66
1
 70
0
  0
VERTEX
  8
11
 10
8.0403
 20
1.1926
  0
VERTEX
  8
11
 10
8.6550
 20
1.4922
  0
VERTEX
  8
11
 10
8.9637
 20
1.6512
  0
VERTEX
  8
11
 10
9.2591
 20
1.8196
  0
VERTEX
  8
11
 10
9.5033
 20
1.9792
  0
VERTEX
  8
11
 10
9.7278
 20
2.1527
  0
SEQEND
  8
11
  0
POLYLINE
  8
86
 66
1
 70
0
  0
VERTEX
  8
86
 10
8.0403
 20
1.1926
  0
VERTEX
  8
86
 10
8.6550
 20
1.4922
  0
VERTEX
  8
86
 10
8.9637
 20
1.6512
  0
VERTEX
  8
86
 10
9.2591
 20
1.8196
  0
VERTEX
  8
86
 10
9.5033
 20
1.9792
  0
VERTEX
  8
86
 10
9.7278
 20
2.1527
  0
SEQEND
  8
86
  0
POINT
  8
2
 10
8.0403
 20
1.1926
  0
POINT
  8
2
 10
8.6550
 20
1.4922
  0
POINT
  8
2
 10
8.9637
 20
1.6512
  0
POINT
  8
2
 10
9.2591
 20
1.8196
  0
POINT
  8
2
 10
9.5033
 20
1.9792
  0
POINT
  8
2
 10
9.7278
 20
2.1527
  0
LINE
  8
8
 10
7.2591
 20
2.2864
 11
7.2591
 21
8.4938
  0
POLYLINE
  8
85
 66
1
 70
0
  0
VERTEX
  8
85
 10
7.2591
 20
2.2864
  0
VERTEX
  8
85
 10
7.2591
 20
8.4938
  0
SEQEND
  8
85
  0
TEXT
  8
8
 10
7.2591
 20
2.2864
 40
0.250
 50
90.0000
  1
NM
  7
STANDARD
  0
TEXT
  8
85
 10
7.2591
 20
2.2864
 40
0.250
 50
90.0000
  1
NM
  7
STANDARD
  0
POINT
  8
2
 10
7.2591
 20
2.2864
  0
POINT
  8
2
 10
7.2591
 20
8.4938
  0
LINE
  8
8
 10
10.1585
 20
4.9107
 11
4.4039
 21
4.9119
  0
POLYLINE
  8
85
 66
1
 70
0
  0
VERTEX
  8
85
 10
10.1585
 20
4.9107
  0
VERTEX
  8
85
 10
4.4039
 20
4.9119
  0
SEQEND
  8
85
  0
TEXT
  8
8
 10
10.1585
 20
4.9107
 40
0.250
 50
90.0000
  1
NM
  7
STANDARD
  0
TEXT
  8
85
 10
10.1585
 20
4.9107
 40
0.250
 50
90.0000
  1
NM
  7
STANDARD
  0
POINT
  8
2
 10
10.1585
 20
4.9107
  0
POINT
  8
2
 10
4.4039
 20
4.9119
  0
POLYLINE
  8
8
 66
1
 70
0
  0
VERTEX
  8
8
 10
10.0208
 20
4.2796
  0
VERTEX
  8
8
 10
9.9366
 20
4.0811
  0
VERTEX
  8
8
 10
9.7499
 20
3.7140
  0
VERTEX
  8
8
 10
9.6371
 20
3.5455
  0
VERTEX
  8
8
 10
9.5201
 20
3.3963
  0
VERTEX
  8
8
 10
9.3994
 20
3.2644
  0
VERTEX
  8
8
 10
9.2754
 20
3.1480
  0
VERTEX
  8
8
 10
9.0897
 20
3.0027
  0
VERTEX
  8
8
 10
8.8989
 20
2.8807
  0
VERTEX
  8
8
 10
8.7094
 20
2.7789
  0
VERTEX
  8
8
 10
8.5175
 20
2.6886
  0
VERTEX
  8
8
 10
8.3141
 20
2.5977
  0
VERTEX
  8
8
 10
8.0998
 20
2.5160
  0
VERTEX
  8
8
 10
7.8547
 20
2.4448
  0
VERTEX
  8
8
 10
7.7230
 20
2.4168
  0
VERTEX
  8
8
 10
7.5839
 20
2.3950
  0
VERTEX
  8
8
 10
7.4427
 20
2.3803
  0
VERTEX
  8
8
 10
7.2931
 20
2.3726
  0
VERTEX
  8
8
 10
7.1345
 20
2.3724
  0
VERTEX
  8
8
 10
6.9661
 20
2.3803
  0
VERTEX
  8
8
 10
6.7871
 20
2.3971
  0
VERTEX
  8
8
 10
6.5967
 20
2.4234
  0
VERTEX
  8
8
 10
6.3943
 20
2.4597
  0
VERTEX
  8
8
 10
6.1789
 20
2.5068
  0
VERTEX
  8
8
 10
5.9975
 20
2.5723
  0
VERTEX
  8
8
 10
5.8319
 20
2.6404
  0
VERTEX
  8
8
 10
5.6809
 20
2.7111
  0
VERTEX
  8
8
 10
5.5431
 20
2.7841
  0
VERTEX
  8
8
 10
5.4173
 20
2.8592
  0
VERTEX
  8
8
 10
5.3021
 20
2.9363
  0
VERTEX
  8
8
 10
5.1963
 20
3.0151
  0
VERTEX
  8
8
 10
5.0986
 20
3.0954
  0
VERTEX
  8
8
 10
4.9230
 20
3.2591
  0
VERTEX
  8
8
 10
4.7642
 20
3.4267
  0
VERTEX
  8
8
 10
4.5817
 20
3.6304
  0
VERTEX
  8
8
 10
4.3912
 20
3.8346
  0
SEQEND
  8
8
  0
POLYLINE
  8
85
 66
1
 70
0
  0
VERTEX
  8
85
 10
10.0208
 20
4.2796
  0
VERTEX
  8
85
 10
9.9366
 20
4.0811
  0
VERTEX
  8
85
 10
9.7499
 20
3.7140
  0
VERTEX
  8
85
 10
9.6371
 20
3.5455
  0
VERTEX
  8
85
 10
9.5201
 20
3.3963
  0
VERTEX
  8
85
 10
9.3994
 20
3.2644
  0
VERTEX
  8
85
 10
9.2754
 20
3.1480
  0
VERTEX
  8
85
 10
9.0897
 20
3.0027
  0
VERTEX
  8
85
 10
8.8989
 20
2.8807
  0
VERTEX
  8
85
 10
8.7094
 20
2.7789
  0
VERTEX
  8
85
 10
8.5175
 20
2.6886
  0
VERTEX
  8
85
 10
8.3141
 20
2.5977
  0
VERTEX
  8
85
 10
8.0998
 20
2.5160
  0
VERTEX
  8
85
 10
7.8547
 20
2.4448
  0
VERTEX
  8
85
 10
7.7230
 20
2.4168
  0
VERTEX
  8
85
 10
7.5839
 20
2.3950
  0
VERTEX
  8
85
 10
7.4427
 20
2.3803
  0
VERTEX
  8
85
 10
7.2931
 20
2.3726
  0
VERTEX
  8
85
 10
7.1345
 20
2.3724
  0
VERTEX
  8
85
 10
6.9661
 20
2.3803
  0
VERTEX
  8
85
 10
6.7871
 20
2.3971
  0
VERTEX
  8
85
 10
6.5967
 20
2.4234
  0
VERTEX
  8
85
 10
6.3943
 20
2.4597
  0
VERTEX
  8
85
 10
6.1789
 20
2.5068
  0
VERTEX
  8
85
 10
5.9975
 20
2.5723
  0
VERTEX
  8
85
 10
5.8319
 20
2.6404
  0
VERTEX
  8
85
 10
5.6809
 20
2.7111
  0
VERTEX
  8
85
 10
5.5431
 20
2.7841
  0
VERTEX
  8
85
 10
5.4173
 20
2.8592
  0
VERTEX
  8
85
 10
5.3021
 20
2.9363
  0
VERTEX
  8
85
 10
5.1963
 20
3.0151
  0
VERTEX
  8
85
 10
5.0986
 20
3.0954
  0
VERTEX
  8
85
 10
4.9230
 20
3.2591
  0
VERTEX
  8
85
 10
4.7642
 20
3.4267
  0
VERTEX
  8
85
 10
4.5817
 20
3.6304
  0
VERTEX
  8
85
 10
4.3912
 20
3.8346
  0
SEQEND
  8
85
  0
TEXT
  8
8
 10
10.0208
 20
4.2796
 40
0.250
 50
90.0000
  1
NM
  7
STANDARD
  0
TEXT
  8
85
 10
10.0208
 20
4.2796
 40
0.250
 50
90.0000
  1
NM
  7
STANDARD
  0
POINT
  8
2
 10
10.0208
 20
4.2796
  0
POINT
  8
2
 10
9.9366
 20
4.0811
  0
POINT
  8
2
 10
9.7499
 20
3.7140
  0
POINT
  8
2
 10
9.6371
 20
3.5455
  0
POINT
  8
2
 10
9.5201
 20
3.3963
  0
POINT
  8
2
 10
9.3994
 20
3.2644
  0
POINT
  8
2
 10
9.2754
 20
3.1480
  0
POINT
  8
2
 10
9.0897
 20
3.0027
  0
POINT
  8
2
 10
8.8989
 20
2.8807
  0
POINT
  8
2
 10
8.7094
 20
2.7789
  0
POINT
  8
2
 10
8.5175
 20
2.6886
  0
POINT
  8
2
 10
8.3141
 20
2.5977
  0
POINT
  8
2
 10
8.0998
 20
2.5160
  0
POINT
  8
2
 10
7.8547
 20
2.4448
  0
POINT
  8
2
 10
7.7230
 20
2.4168
  0
POINT
  8
2
 10
7.5839
 20
2.3950
  0
POINT
  8
2
 10
7.4427
 20
2.3803
  0
POINT
  8
2
 10
7.2931
 20
2.3726
  0
POINT
  8
2
 10
7.1345
 20
2.3724
  0
POINT
  8
2
 10
6.9661
 20
2.3803
  0
POINT
  8
2
 10
6.7871
 20
2.3971
  0
POINT
  8
2
 10
6.5967
 20
2.4234
  0
POINT
  8
2
 10
6.3943
 20
2.4597
  0
POINT
  8
2
 10
6.1789
 20
2.5068
  0
POINT
  8
2
 10
5.9975
 20
2.5723
  0
POINT
  8
2
 10
5.8319
 20
2.6404
  0
POINT
  8
2
 10
5.6809
 20
2.7111
  0
POINT
  8
2
 10
5.5431
 20
2.7841
  0
POINT
  8
2
 10
5.4173
 20
2.8592
  0
POINT
  8
2
 10
5.3021
 20
2.9363
  0
POINT
  8
2
 10
5.1963
 20
3.0151
  0
POINT
  8
2
 10
5.0986
 20
3.0954
  0
POINT
  8
2
 10
4.9230
 20
3.2591
  0
POINT
  8
2
 10
4.7642
 20
3.4267
  0
POINT
  8
2
 10
4.5817
 20
3.6304
  0
POINT
  8
2
 10
4.3912
 20
3.8346
  0
POLYLINE
  8
8
 66
1
 70
0
  0
VERTEX
  8
8
 10
4.3912
 20
3.8346
  0
VERTEX
  8
8
 10
4.3127
 20
4.0076
  0
VERTEX
  8
8
 10
4.2450
 20
4.1748
  0
VERTEX
  8
8
 10
4.1875
 20
4.3363
  0
VERTEX
  8
8
 10
4.1395
 20
4.4919
  0
VERTEX
  8
8
 10
4.1004
 20
4.6418
  0
VERTEX
  8
8
 10
4.0696
 20
4.7858
  0
VERTEX
  8
8
 10
4.0466
 20
4.9241
  0
VERTEX
  8
8
 10
4.0306
 20
5.0566
  0
VERTEX
  8
8
 10
4.0212
 20
5.1834
  0
VERTEX
  8
8
 10
4.0178
 20
5.3044
  0
VERTEX
  8
8
 10
4.0261
 20
5.5292
  0
VERTEX
  8
8
 10
4.0508
 20
5.7310
  0
VERTEX
  8
8
 10
4.0872
 20
5.9099
  0
VERTEX
  8
8
 10
4.1132
 20
6.0086
  0
VERTEX
  8
8
 10
4.1406
 20
6.0986
  0
VERTEX
  8
8
 10
4.1684
 20
6.1800
  0
VERTEX
  8
8
 10
4.2034
 20
6.2916
  0
VERTEX
  8
8
 10
4.2397
 20
6.3910
  0
VERTEX
  8
8
 10
4.3311
 20
6.5769
  0
VERTEX
  8
8
 10
4.4798
 20
6.8062
  0
VERTEX
  8
8
 10
4.5557
 20
6.9224
  0
VERTEX
  8
8
 10
4.6401
 20
7.0411
  0
VERTEX
  8
8
 10
4.7045
 20
7.1232
  0
VERTEX
  8
8
 10
4.7767
 20
7.2075
  0
VERTEX
  8
8
 10
4.8583
 20
7.2945
  0
VERTEX
  8
8
 10
4.9509
 20
7.3846
  0
VERTEX
  8
8
 10
5.0561
 20
7.4783
  0
VERTEX
  8
8
 10
5.1754
 20
7.5760
  0
VERTEX
  8
8
 10
5.3105
 20
7.6782
  0
VERTEX
  8
8
 10
5.4628
 20
7.7853
  0
VERTEX
  8
8
 10
5.6744
 20
7.8846
  0
VERTEX
  8
8
 10
5.8689
 20
7.9667
  0
SEQEND
  8
8
  0
POLYLINE
  8
85
 66
1
 70
0
  0
VERTEX
  8
85
 10
4.3912
 20
3.8346
  0
VERTEX
  8
85
 10
4.3127
 20
4.0076
  0
VERTEX
  8
85
 10
4.2450
 20
4.1748
  0
VERTEX
  8
85
 10
4.1875
 20
4.3363
  0
VERTEX
  8
85
 10
4.1395
 20
4.4919
  0
VERTEX
  8
85
 10
4.1004
 20
4.6418
  0
VERTEX
  8
85
 10
4.0696
 20
4.7858
  0
VERTEX
  8
85
 10
4.0466
 20
4.9241
  0
VERTEX
  8
85
 10
4.0306
 20
5.0566
  0
VERTEX
  8
85
 10
4.0212
 20
5.1834
  0
VERTEX
  8
85
 10
4.0178
 20
5.3044
  0
VERTEX
  8
85
 10
4.0261
 20
5.5292
  0
VERTEX
  8
85
 10
4.0508
 20
5.7310
  0
VERTEX
  8
85
 10
4.0872
 20
5.9099
  0
VERTEX
  8
85
 10
4.1132
 20
6.0086
  0
VERTEX
  8
85
 10
4.1406
 20
6.0986
  0
VERTEX
  8
85
 10
4.1684
 20
6.1800
  0
VERTEX
  8
85
 10
4.2034
 20
6.2916
  0
VERTEX
  8
85
 10
4.2397
 20
6.3910
  0
VERTEX
  8
85
 10
4.3311
 20
6.5769
  0
VERTEX
  8
85
 10
4.4798
 20
6.8062
  0
VERTEX
  8
85
 10
4.5557
 20
6.9224
  0
VERTEX
  8
85
 10
4.6401
 20
7.0411
  0
VERTEX
  8
85
 10
4.7045
 20
7.1232
  0
VERTEX
  8
85
 10
4.7767
 20
7.2075
  0
VERTEX
  8
85
 10
4.8583
 20
7.2945
  0
VERTEX
  8
85
 10
4.9509
 20
7.3846
  0
VERTEX
  8
85
 10
5.0561
 20
7.4783
  0
VERTEX
  8
85
 10
5.1754
 20
7.5760
  0
VERTEX
  8
85
 10
5.3105
 20
7.6782
  0
VERTEX
  8
85
 10
5.4628
 20
7.7853
  0
VERTEX
  8
85
 10
5.6744
 20
7.8846
  0
VERTEX
  8
85
 10
5.8689
 20
7.9667
  0
SEQEND
  8
85
  0
TEXT
  8
8
 10
4.3912
 20
3.8346
 40
0.250
 50
90.0000
  1
NM
  7
STANDARD
  0
TEXT
  8
85
 10
4.3912
 20
3.8346
 40
0.250
 50
90.0000
  1
NM
  7
STANDARD
  0
POINT
  8
2
 10
4.3912
 20
3.8346
  0
POINT
  8
2
 10
4.3127
 20
4.0076
  0
POINT
  8
2
 10
4.2450
 20
4.1748
  0
POINT
  8
2
 10
4.1875
 20
4.3363
  0
POINT
  8
2
 10
4.1395
 20
4.4919
  0
POINT
  8
2
 10
4.1004
 20
4.6418
  0
POINT
  8
2
 10
4.0696
 20
4.7858
  0
POINT
  8
2
 10
4.0466
 20
4.9241
  0
POINT
  8
2
 10
4.0306
 20
5.0566
  0
POINT
  8
2
 10
4.0212
 20
5.1834
  0
POINT
  8
2
 10
4.0178
 20
5.3044
  0
POINT
  8
2
 10
4.0261
 20
5.5292
  0
POINT
  8
2
 10
4.0508
 20
5.7310
  0
POINT
  8
2
 10
4.0872
 20
5.9099
  0
POINT
  8
2
 10
4.1132
 20
6.0086
  0
POINT
  8
2
 10
4.1406
 20
6.0986
  0
POINT
  8
2
 10
4.1684
 20
6.1800
  0
POINT
  8
2
 10
4.2034
 20
6.2916
  0
POINT
  8
2
 10
4.2397
 20
6.3910
  0
POINT
  8
2
 10
4.3311
 20
6.5769
  0
POINT
  8
2
 10
4.4798
 20
6.8062
  0
POINT
  8
2
 10
4.5557
 20
6.9224
  0
POINT
  8
2
 10
4.6401
 20
7.0411
  0
POINT
  8
2
 10
4.7045
 20
7.1232
  0
POINT
  8
2
 10
4.7767
 20
7.2075
  0
POINT
  8
2
 10
4.8583
 20
7.2945
  0
POINT
  8
2
 10
4.9509
 20
7.3846
  0
POINT
  8
2
 10
5.0561
 20
7.4783
  0
POINT
  8
2
 10
5.1754
 20
7.5760
  0
POINT
  8
2
 10
5.3105
 20
7.6782
  0
POINT
  8
2
 10
5.4628
 20
7.7853
  0
POINT
  8
2
 10
5.6744
 20
7.8846
  0
POINT
  8
2
 10
5.8689
 20
7.9667
  0
POLYLINE
  8
8
 66
1
 70
0
  0
VERTEX
  8
8
 10
5.8689
 20
7.9667
  0
VERTEX
  8
8
 10
6.0478
 20
8.0333
  0
VERTEX
  8
8
 10
6.2127
 20
8.0859
  0
VERTEX
  8
8
 10
6.3652
 20
8.1261
  0
VERTEX
  8
8
 10
6.5068
 20
8.1553
  0
VERTEX
  8
8
 10
6.6391
 20
8.1753
  0
VERTEX
  8
8
 10
6.7636
 20
8.1874
  0
VERTEX
  8
8
 10
6.9332
 20
8.1944
  0
VERTEX
  8
8
 10
7.0945
 20
8.1930
  0
VERTEX
  8
8
 10
7.5014
 20
8.1840
  0
VERTEX
  8
8
 10
7.7831
 20
8.1173
  0
VERTEX
  8
8
 10
8.0644
 20
8.0411
  0
VERTEX
  8
8
 10
8.3450
 20
7.9464
  0
VERTEX
  8
8
 10
8.4849
 20
7.8892
  0
VERTEX
  8
8
 10
8.6244
 20
7.8240
  0
VERTEX
  8
8
 10
8.8084
 20
7.7233
  0
VERTEX
  8
8
 10
8.9916
 20
7.6038
  0
VERTEX
  8
8
 10
9.1737
 20
7.4629
  0
VERTEX
  8
8
 10
9.3548
 20
7.2979
  0
VERTEX
  8
8
 10
9.5199
 20
7.1066
  0
VERTEX
  8
8
 10
9.6611
 20
6.9294
  0
VERTEX
  8
8
 10
9.7803
 20
6.7653
  0
VERTEX
  8
8
 10
9.8797
 20
6.6129
  0
VERTEX
  8
8
 10
9.9611
 20
6.4711
  0
VERTEX
  8
8
 10
10.0266
 20
6.3388
  0
VERTEX
  8
8
 10
10.0781
 20
6.2147
  0
VERTEX
  8
8
 10
10.1176
 20
6.0978
  0
VERTEX
  8
8
 10
10.1565
 20
5.9440
  0
VERTEX
  8
8
 10
10.1813
 20
5.7985
  0
VERTEX
  8
8
 10
10.2119
 20
5.5005
  0
VERTEX
  8
8
 10
10.2124
 20
5.3488
  0
VERTEX
  8
8
 10
10.2080
 20
5.2057
  0
VERTEX
  8
8
 10
10.1988
 20
5.0706
  0
VERTEX
  8
8
 10
10.1853
 20
4.9430
  0
VERTEX
  8
8
 10
10.1465
 20
4.7081
  0
VERTEX
  8
8
 10
10.0940
 20
4.4969
  0
VERTEX
  8
8
 10
10.0208
 20
4.2796
  0
SEQEND
  8
8
  0
POLYLINE
  8
85
 66
1
 70
0
  0
VERTEX
  8
85
 10
5.8689
 20
7.9667
  0
VERTEX
  8
85
 10
6.0478
 20
8.0333
  0
VERTEX
  8
85
 10
6.2127
 20
8.0859
  0
VERTEX
  8
85
 10
6.3652
 20
8.1261
  0
VERTEX
  8
85
 10
6.5068
 20
8.1553
  0
VERTEX
  8
85
 10
6.6391
 20
8.1753
  0
VERTEX
  8
85
 10
6.7636
 20
8.1874
  0
VERTEX
  8
85
 10
6.9332
 20
8.1944
  0
VERTEX
  8
85
 10
7.0945
 20
8.1930
  0
VERTEX
  8
85
 10
7.5014
 20
8.1840
  0
VERTEX
  8
85
 10
7.7831
 20
8.1173
  0
VERTEX
  8
85
 10
8.0644
 20
8.0411
  0
VERTEX
  8
85
 10
8.3450
 20
7.9464
  0
VERTEX
  8
85
 10
8.4849
 20
7.8892
  0
VERTEX
  8
85
 10
8.6244
 20
7.8240
  0
VERTEX
  8
85
 10
8.8084
 20
7.7233
  0
VERTEX
  8
85
 10
8.9916
 20
7.6038
  0
VERTEX
  8
85
 10
9.1737
 20
7.4629
  0
VERTEX
  8
85
 10
9.3548
 20
7.2979
  0
VERTEX
  8
85
 10
9.5199
 20
7.1066
  0
VERTEX
  8
85
 10
9.6611
 20
6.9294
  0
VERTEX
  8
85
 10
9.7803
 20
6.7653
  0
VERTEX
  8
85
 10
9.8797
 20
6.6129
  0
VERTEX
  8
85
 10
9.9611
 20
6.4711
  0
VERTEX
  8
85
 10
10.0266
 20
6.3388
  0
VERTEX
  8
85
 10
10.0781
 20
6.2147
  0
VERTEX
  8
85
 10
10.1176
 20
6.0978
  0
VERTEX
  8
85
 10
10.1565
 20
5.9440
  0
VERTEX
  8
85
 10
10.1813
 20
5.7985
  0
VERTEX
  8
85
 10
10.2119
 20
5.5005
  0
VERTEX
  8
85
 10
10.2124
 20
5.3488
  0
VERTEX
  8
85
 10
10.2080
 20
5.2057
  0
VERTEX
  8
85
 10
10.1988
 20
5.0706
  0
VERTEX
  8
85
 10
10.1853
 20
4.9430
  0
VERTEX
  8
85
 10
10.1465
 20
4.7081
  0
VERTEX
  8
85
 10
10.0940
 20
4.4969
  0
VERTEX
  8
85
 10
10.0208
 20
4.2796
  0
SEQEND
  8
85
  0
TEXT
  8
8
 10
5.8689
 20
7.9667
 40
0.250
 50
90.0000
  1
NM
  7
STANDARD
  0
TEXT
  8
85
 10
5.8689
 20
7.9667
 40
0.250
 50
90.0000
  1
NM
  7
STANDARD
  0
POINT
  8
2
 10
5.8689
 20
7.9667
  0
POINT
  8
2
 10
6.0478
 20
8.0333
  0
POINT
  8
2
 10
6.2127
 20
8.0859
  0
POINT
  8
2
 10
6.3652
 20
8.1261
  0
POINT
  8
2
 10
6.5068
 20
8.1553
  0
POINT
  8
2
 10
6.6391
 20
8.1753
  0
POINT
  8
2
 10
6.7636
 20
8.1874
  0
POINT
  8
2
 10
6.9332
 20
8.1944
  0
POINT
  8
2
 10
7.0945
 20
8.1930
  0
POINT
  8
2
 10
7.5014
 20
8.1840
  0
POINT
  8
2
 10
7.7831
 20
8.1173
  0
POINT
  8
2
 10
8.0644
 20
8.0411
  0
POINT
  8
2
 10
8.3450
 20
7.9464
  0
POINT
  8
2
 10
8.4849
 20
7.8892
  0
POINT
  8
2
 10
8.6244
 20
7.8240
  0
POINT
  8
2
 10
8.8084
 20
7.7233
  0
POINT
  8
2
 10
8.9916
 20
7.6038
  0
POINT
  8
2
 10
9.1737
 20
7.4629
  0
POINT
  8
2
 10
9.3548
 20
7.2979
  0
POINT
  8
2
 10
9.5199
 20
7.1066
  0
POINT
  8
2
 10
9.6611
 20
6.9294
  0
POINT
  8
2
 10
9.7803
 20
6.7653
  0
POINT
  8
2
 10
9.8797
 20
6.6129
  0
POINT
  8
2
 10
9.9611
 20
6.4711
  0
POINT
  8
2
 10
10.0266
 20
6.3388
  0
POINT
  8
2
 10
10.0781
 20
6.2147
  0
POINT
  8
2
 10
10.1176
 20
6.0978
  0
POINT
  8
2
 10
10.1565
 20
5.9440
  0
POINT
  8
2
 10
10.1813
 20
5.7985
  0
POINT
  8
2
 10
10.2119
 20
5.5005
  0
POINT
  8
2
 10
10.2124
 20
5.3488
  0
POINT
  8
2
 10
10.2080
 20
5.2057
  0
POINT
  8
2
 10
10.1988
 20
5.0706
  0
POINT
  8
2
 10
10.1853
 20
4.9430
  0
POINT
  8
2
 10
10.1465
 20
4.7081
  0
POINT
  8
2
 10
10.0940
 20
4.4969
  0
POINT
  8
2
 10
10.0208
 20
4.2796
  0
ENDBLK
  0
BLOCK
  8
0
  2
2303-B1-INMO-1-SP24_32A
 70
64
 10
0.0000
 20
0.0000
  0
TEXT
  8
1
 10
7.5622
 20
5.0705
 40
0.250
 50
90.0000
  1
Piece Name: 2303-B1-INMO-1-SP24
  7
STANDARD
  0
TEXT
  8
1
 10
7.5622
 20
5.2105
 40
0.250
 50
90.0000
  1
Quantity: 1,1
  7
STANDARD
  0
TEXT
  8
1
 10
7.5622
 20
5.3505
 40
0.250
 50
90.0000
  1
ANNOTATION: C-2
  7
STANDARD
  0
TEXT
  8
1
 10
7.5622
 20
5.4905
 40
0.250
 50
90.0000
  1
CATEGORY: SI01040A17
  7
STANDARD
  0
TEXT
  8
1
 10
7.5622
 20
5.6305
 40
0.250
 50
90.0000
  1
Material: D
  7
STANDARD
  0
TEXT
  8
1
 10
7.5622
 20
5.7705
 40
0.250
 50
90.0000
  1
SIZE: 32A
  7
STANDARD
  0
TEXT
  8
15
 10
7.1441
 20
2.4986
 40
0.118
 50
0.0000
  1
BTM
  7
STANDARD
  0
TEXT
  8
15
 10
7.1534
 20
6.7606
 40
0.118
 50
90.0000
  1
STRIPE
  7
STANDARD
  0
TEXT
  8
15
 10
7.1441
 20
2.4986
 40
0.118
 50
0.0000
  1
BTM
  7
STANDARD
  0
TEXT
  8
15
 10
7.1534
 20
6.7606
 40
0.118
 50
90.0000
  1
STRIPE
  7
STANDARD
  0
POLYLINE
  8
1
 66
1
 70
0
  0
VERTEX
  8
1
 10
2.7675
 20
3.4625
  0
VERTEX
  8
1
 10
2.6792
 20
3.6999
  0
VERTEX
  8
1
 10
2.5971
 20
3.9573
  0
VERTEX
  8
1
 10
2.5306
 20
4.2095
  0
VERTEX
  8
1
 10
2.4798
 20
4.4553
  0
VERTEX
  8
1
 10
2.4442
 20
4.6913
  0
VERTEX
  8
1
 10
2.4217
 20
4.9222
  0
VERTEX
  8
1
 10
2.4105
 20
5.1961
  0
VERTEX
  8
1
 10
2.4124
 20
5.4195
  0
VERTEX
  8
1
 10
2.4263
 20
6.0475
  0
VERTEX
  8
1
 10
2.5481
 20
6.5618
  0
VERTEX
  8
1
 10
2.6481
 20
6.9315
  0
VERTEX
  8
1
 10
2.7818
 20
7.3275
  0
VERTEX
  8
1
 10
2.8807
 20
7.5695
  0
VERTEX
  8
1
 10
2.9930
 20
7.8096
  0
VERTEX
  8
1
 10
3.1602
 20
8.1150
  0
VERTEX
  8
1
 10
3.3644
 20
8.4282
  0
VERTEX
  8
1
 10
3.6023
 20
8.7356
  0
VERTEX
  8
1
 10
3.9003
 20
9.0627
  0
VERTEX
  8
1
 10
4.2102
 20
9.3301
  0
VERTEX
  8
1
 10
4.4518
 20
9.5227
  0
VERTEX
  8
1
 10
4.6917
 20
9.6968
  0
VERTEX
  8
1
 10
4.9323
 20
9.8537
  0
VERTEX
  8
1
 10
5.1751
 20
9.9931
  0
VERTEX
  8
1
 10
5.4203
 20
10.1145
  0
VERTEX
  8
1
 10
5.6659
 20
10.2164
  0
VERTEX
  8
1
 10
5.9186
 20
10.3018
  0
VERTEX
  8
1
 10
6.2226
 20
10.3787
  0
VERTEX
  8
1
 10
6.5090
 20
10.4274
  0
VERTEX
  8
1
 10
6.9688
 20
10.4748
  0
VERTEX
  8
1
 10
7.2524
 20
10.4757
  0
VERTEX
  8
1
 10
7.4652
 20
10.4691
  0
VERTEX
  8
1
 10
7.6730
 20
10.4550
  0
VERTEX
  8
1
 10
7.8948
 20
10.4316
  0
VERTEX
  8
1
 10
8.2641
 20
10.3705
  0
VERTEX
  8
1
 10
8.6163
 20
10.2830
  0
SEQEND
  8
1
  0
POLYLINE
  8
84
 66
1
 70
0
  0
VERTEX
  8
84
 10
2.7675
 20
3.4625
  0
VERTEX
  8
84
 10
2.6792
 20
3.6999
  0
VERTEX
  8
84
 10
2.5971
 20
3.9573
  0
VERTEX
  8
84
 10
2.5306
 20
4.2095
  0
VERTEX
  8
84
 10
2.4798
 20
4.4553
  0
VERTEX
  8
84
 10
2.4442
 20
4.6913
  0
VERTEX
  8
84
 10
2.4217
 20
4.9222
  0
VERTEX
  8
84
 10
2.4105
 20
5.1961
  0
VERTEX
  8
84
 10
2.4124
 20
5.4195
  0
VERTEX
  8
84
 10
2.4263
 20
6.0475
  0
VERTEX
  8
84
 10
2.5481
 20
6.5618
  0
VERTEX
  8
84
 10
2.6481
 20
6.9315
  0
VERTEX
  8
84
 10
2.7818
 20
7.3275
  0
VERTEX
  8
84
 10
2.8807
 20
7.5695
  0
VERTEX
  8
84
 10
2.9930
 20
7.8096
  0
VERTEX
  8
84
 10
3.1602
 20
8.1150
  0
VERTEX
  8
84
 10
3.3644
 20
8.4282
  0
VERTEX
  8
84
 10
3.6023
 20
8.7356
  0
VERTEX
  8
84
 10
3.9003
 20
9.0627
  0
VERTEX
  8
84
 10
4.2102
 20
9.3301
  0
VERTEX
  8
84
 10
4.4518
 20
9.5227
  0
VERTEX
  8
84
 10
4.6917
 20
9.6968
  0
VERTEX
  8
84
 10
4.9323
 20
9.8537
  0
VERTEX
  8
84
 10
5.1751
 20
9.9931
  0
VERTEX
  8
84
 10
5.4203
 20
10.1145
  0
VERTEX
  8
84
 10
5.6659
 20
10.2164
  0
VERTEX
  8
84
 10
5.9186
 20
10.3018
  0
VERTEX
  8
84
 10
6.2226
 20
10.3787
  0
VERTEX
  8
84
 10
6.5090
 20
10.4274
  0
VERTEX
  8
84
 10
6.9688
 20
10.4748
  0
VERTEX
  8
84
 10
7.2524
 20
10.4757
  0
VERTEX
  8
84
 10
7.4652
 20
10.4691
  0
VERTEX
  8
84
 10
7.6730
 20
10.4550
  0
VERTEX
  8
84
 10
7.8948
 20
10.4316
  0
VERTEX
  8
84
 10
8.2641
 20
10.3705
  0
VERTEX
  8
84
 10
8.6163
 20
10.2830
  0
SEQEND
  8
84
  0
POINT
  8
2
 10
2.7675
 20
3.4625
  0
POINT
  8
2
 10
2.6792
 20
3.6999
  0
POINT
  8
2
 10
2.5971
 20
3.9573
  0
POINT
  8
2
 10
2.5306
 20
4.2095
  0
POINT
  8
2
 10
2.4798
 20
4.4553
  0
POINT
  8
2
 10
2.4442
 20
4.6913
  0
POINT
  8
2
 10
2.4217
 20
4.9222
  0
POINT
  8
2
 10
2.4105
 20
5.1961
  0
POINT
  8
2
 10
2.4124
 20
5.4195
  0
POINT
  8
2
 10
2.4263
 20
6.0475
  0
POINT
  8
2
 10
2.5481
 20
6.5618
  0
POINT
  8
2
 10
2.6481
 20
6.9315
  0
POINT
  8
2
 10
2.7818
 20
7.3275
  0
POINT
  8
2
 10
2.8807
 20
7.5695
  0
POINT
  8
2
 10
2.9930
 20
7.8096
  0
POINT
  8
2
 10
3.1602
 20
8.1150
  0
POINT
  8
2
 10
3.3644
 20
8.4282
  0
POINT
  8
2
 10
3.6023
 20
8.7356
  0
POINT
  8
2
 10
3.9003
 20
9.0627
  0
POINT
  8
2
 10
4.2102
 20
9.3301
  0
POINT
  8
2
 10
4.4518
 20
9.5227
  0
POINT
  8
2
 10
4.6917
 20
9.6968
  0
POINT
  8
2
 10
4.9323
 20
9.8537
  0
POINT
  8
2
 10
5.1751
 20
9.9931
  0
POINT
  8
2
 10
5.4203
 20
10.1145
  0
POINT
  8
2
 10
5.6659
 20
10.2164
  0
POINT
  8
2
 10
5.9186
 20
10.3018
  0
POINT
  8
2
 10
6.2226
 20
10.3787
  0
POINT
  8
2
 10
6.5090
 20
10.4274
  0
POINT
  8
2
 10
6.9688
 20
10.4748
  0
POINT
  8
2
 10
7.2524
 20
10.4757
  0
POINT
  8
2
 10
7.4652
 20
10.4691
  0
POINT
  8
2
 10
7.6730
 20
10.4550
  0
POINT
  8
2
 10
7.8948
 20
10.4316
  0
POINT
  8
2
 10
8.2641
 20
10.3705
  0
POINT
  8
2
 10
8.6163
 20
10.2830
  0
POLYLINE
  8
1
 66
1
 70
0
  0
VERTEX
  8
1
 10
8.6163
 20
10.2830
  0
VERTEX
  8
1
 10
9.2886
 20
10.0694
  0
VERTEX
  8
1
 10
9.3968
 20
10.0329
  0
VERTEX
  8
1
 10
9.4671
 20
10.0023
  0
VERTEX
  8
1
 10
10.1603
 20
9.6756
  0
VERTEX
  8
1
 10
11.0875
 20
9.1029
  0
VERTEX
  8
1
 10
11.9266
 20
8.4437
  0
SEQEND
  8
1
  0
POLYLINE
  8
84
 66
1
 70
0
  0
VERTEX
  8
84
 10
8.6163
 20
10.2830
  0
VERTEX
  8
84
 10
9.2886
 20
10.0694
  0
VERTEX
  8
84
 10
9.3968
 20
10.0329
  0
VERTEX
  8
84
 10
9.4671
 20
10.0023
  0
VERTEX
  8
84
 10
9.8166
 20
9.8449
  0
VERTEX
  8
84
 10
10.1603
 20
9.6756
  0
VERTEX
  8
84
 10
10.6318
 20
9.4020
  0
VERTEX
  8
84
 10
11.0875
 20
9.1029
  0
VERTEX
  8
84
 10
11.5114
 20
8.7792
  0
VERTEX
  8
84
 10
11.9266
 20
8.4437
  0
SEQEND
  8
84
  0
POINT
  8
2
 10
8.6163
 20
10.2830
  0
POINT
  8
3
 10
9.2886
 20
10.0694
  0
POINT
  8
3
 10
9.3968
 20
10.0329
  0
POINT
  8
3
 10
9.4671
 20
10.0023
  0
POINT
  8
3
 10
10.1603
 20
9.6756
  0
POINT
  8
3
 10
11.0875
 20
9.1029
  0
POINT
  8
2
 10
11.9266
 20
8.4437
  0
POLYLINE
  8
1
 66
1
 70
0
  0
VERTEX
  8
1
 10
11.9266
 20
8.4437
  0
VERTEX
  8
1
 10
12.3748
 20
7.2905
  0
VERTEX
  8
1
 10
12.4722
 20
7.0198
  0
VERTEX
  8
1
 10
12.5558
 20
6.7301
  0
VERTEX
  8
1
 10
12.6169
 20
6.4523
  0
VERTEX
  8
1
 10
12.6589
 20
6.1859
  0
VERTEX
  8
1
 10
12.6881
 20
5.8866
  0
VERTEX
  8
1
 10
12.7005
 20
5.6242
  0
VERTEX
  8
1
 10
12.7140
 20
5.1114
  0
VERTEX
  8
1
 10
12.7120
 20
5.0582
  0
VERTEX
  8
1
 10
12.7004
 20
4.7563
  0
VERTEX
  8
1
 10
12.6559
 20
4.3974
  0
VERTEX
  8
1
 10
12.5887
 20
4.0621
  0
VERTEX
  8
1
 10
12.5048
 20
3.7478
  0
VERTEX
  8
1
 10
12.4086
 20
3.4505
  0
VERTEX
  8
1
 10
12.3151
 20
3.1970
  0
VERTEX
  8
1
 10
12.2280
 20
2.9579
  0
VERTEX
  8
1
 10
12.1033
 20
2.6803
  0
VERTEX
  8
1
 10
11.9652
 20
2.4220
  0
VERTEX
  8
1
 10
11.8095
 20
2.1718
  0
VERTEX
  8
1
 10
11.5593
 20
1.8320
  0
VERTEX
  8
1
 10
11.2980
 20
1.5305
  0
VERTEX
  8
1
 10
11.0499
 20
1.2744
  0
VERTEX
  8
1
 10
10.7977
 20
1.0288
  0
SEQEND
  8
1
  0
POLYLINE
  8
84
 66
1
 70
0
  0
VERTEX
  8
84
 10
11.9266
 20
8.4437
  0
VERTEX
  8
84
 10
12.3748
 20
7.2905
  0
VERTEX
  8
84
 10
12.4722
 20
7.0198
  0
VERTEX
  8
84
 10
12.5558
 20
6.7301
  0
VERTEX
  8
84
 10
12.6169
 20
6.4523
  0
VERTEX
  8
84
 10
12.6589
 20
6.1859
  0
VERTEX
  8
84
 10
12.6881
 20
5.8866
  0
VERTEX
  8
84
 10
12.7005
 20
5.6242
  0
VERTEX
  8
84
 10
12.7140
 20
5.1114
  0
VERTEX
  8
84
 10
12.7120
 20
5.0582
  0
VERTEX
  8
84
 10
12.7004
 20
4.7563
  0
VERTEX
  8
84
 10
12.6559
 20
4.3974
  0
VERTEX
  8
84
 10
12.5887
 20
4.0621
  0
VERTEX
  8
84
 10
12.5048
 20
3.7478
  0
VERTEX
  8
84
 10
12.4086
 20
3.4505
  0
VERTEX
  8
84
 10
12.3151
 20
3.1970
  0
VERTEX
  8
84
 10
12.2280
 20
2.9579
  0
VERTEX
  8
84
 10
12.1033
 20
2.6803
  0
VERTEX
  8
84
 10
11.9652
 20
2.4220
  0
VERTEX
  8
84
 10
11.8095
 20
2.1718
  0
VERTEX
  8
84
 10
11.5593
 20
1.8320
  0
VERTEX
  8
84
 10
11.2980
 20
1.5305
  0
VERTEX
  8
84
 10
11.0499
 20
1.2744
  0
VERTEX
  8
84
 10
10.7977
 20
1.0288
  0
SEQEND
  8
84
  0
POINT
  8
2
 10
11.9266
 20
8.4437
  0
POINT
  8
2
 10
12.3748
 20
7.2905
  0
POINT
  8
2
 10
12.4722
 20
7.0198
  0
POINT
  8
2
 10
12.5558
 20
6.7301
  0
POINT
  8
2
 10
12.6169
 20
6.4523
  0
POINT
  8
2
 10
12.6589
 20
6.1859
  0
POINT
  8
2
 10
12.6881
 20
5.8866
  0
POINT
  8
2
 10
12.7005
 20
5.6242
  0
POINT
  8
2
 10
12.7140
 20
5.1114
  0
POINT
  8
3
 10
12.7120
 20
5.0582
  0
POINT
  8
2
 10
12.7004
 20
4.7563
  0
POINT
  8
2
 10
12.6559
 20
4.3974
  0
POINT
  8
2
 10
12.5887
 20
4.0621
  0
POINT
  8
2
 10
12.5048
 20
3.7478
  0
POINT
  8
2
 10
12.4086
 20
3.4505
  0
POINT
  8
2
 10
12.3151
 20
3.1970
  0
POINT
  8
2
 10
12.2280
 20
2.9579
  0
POINT
  8
2
 10
12.1033
 20
2.6803
  0
POINT
  8
2
 10
11.9652
 20
2.4220
  0
POINT
  8
2
 10
11.8095
 20
2.1718
  0
POINT
  8
2
 10
11.5593
 20
1.8320
  0
POINT
  8
2
 10
11.2980
 20
1.5305
  0
POINT
  8
2
 10
11.0499
 20
1.2744
  0
POINT
  8
2
 10
10.7977
 20
1.0288
  0
POLYLINE
  8
1
 66
1
 70
0
  0
VERTEX
  8
1
 10
10.7977
 20
1.0288
  0
VERTEX
  8
1
 10
10.4214
 20
0.7302
  0
VERTEX
  8
1
 10
10.0806
 20
0.5074
  0
VERTEX
  8
1
 10
9.7144
 20
0.2985
  0
VERTEX
  8
1
 10
9.3605
 20
0.1163
  0
VERTEX
  8
1
 10
8.4352
 20
-0.3347
  0
SEQEND
  8
1
  0
POLYLINE
  8
84
 66
1
 70
0
  0
VERTEX
  8
84
 10
10.7977
 20
1.0288
  0
VERTEX
  8
84
 10
10.4214
 20
0.7302
  0
VERTEX
  8
84
 10
10.0806
 20
0.5074
  0
VERTEX
  8
84
 10
9.7144
 20
0.2985
  0
VERTEX
  8
84
 10
9.3605
 20
0.1163
  0
VERTEX
  8
84
 10
8.4352
 20
-0.3347
  0
SEQEND
  8
84
  0
POINT
  8
2
 10
10.7977
 20
1.0288
  0
POINT
  8
2
 10
10.4214
 20
0.7302
  0
POINT
  8
2
 10
10.0806
 20
0.5074
  0
POINT
  8
2
 10
9.7144
 20
0.2985
  0
POINT
  8
2
 10
9.3605
 20
0.1163
  0
POINT
  8
2
 10
8.4352
 20
-0.3347
  0
POLYLINE
  8
1
 66
1
 70
0
  0
VERTEX
  8
1
 10
8.4352
 20
-0.3347
  0
VERTEX
  8
1
 10
6.9193
 20
0.1951
  0
VERTEX
  8
1
 10
5.8335
 20
0.5745
  0
VERTEX
  8
1
 10
5.0466
 20
0.8958
  0
VERTEX
  8
1
 10
4.6938
 20
1.1245
  0
VERTEX
  8
1
 10
4.5420
 20
1.2237
  0
VERTEX
  8
1
 10
4.3539
 20
1.3576
  0
VERTEX
  8
1
 10
4.2026
 20
1.4763
  0
VERTEX
  8
1
 10
4.0520
 20
1.6051
  0
VERTEX
  8
1
 10
3.8997
 20
1.7481
  0
VERTEX
  8
1
 10
3.7483
 20
1.9037
  0
VERTEX
  8
1
 10
3.5985
 20
2.0717
  0
VERTEX
  8
1
 10
3.4506
 20
2.2522
  0
VERTEX
  8
1
 10
3.3050
 20
2.4449
  0
VERTEX
  8
1
 10
3.0792
 20
2.7659
  0
VERTEX
  8
1
 10
2.8899
 20
3.1694
  0
VERTEX
  8
1
 10
2.7675
 20
3.4625
  0
SEQEND
  8
1
  0
POLYLINE
  8
84
 66
1
 70
0
  0
VERTEX
  8
84
 10
8.4352
 20
-0.3347
  0
VERTEX
  8
84
 10
6.9193
 20
0.1951
  0
VERTEX
  8
84
 10
5.8335
 20
0.5745
  0
VERTEX
  8
84
 10
5.0466
 20
0.8958
  0
VERTEX
  8
84
 10
4.6938
 20
1.1245
  0
VERTEX
  8
84
 10
4.5420
 20
1.2237
  0
VERTEX
  8
84
 10
4.3539
 20
1.3576
  0
VERTEX
  8
84
 10
4.2026
 20
1.4763
  0
VERTEX
  8
84
 10
4.0520
 20
1.6051
  0
VERTEX
  8
84
 10
3.8997
 20
1.7481
  0
VERTEX
  8
84
 10
3.7483
 20
1.9037
  0
VERTEX
  8
84
 10
3.5985
 20
2.0717
  0
VERTEX
  8
84
 10
3.4506
 20
2.2522
  0
VERTEX
  8
84
 10
3.3050
 20
2.4449
  0
VERTEX
  8
84
 10
3.0792
 20
2.7659
  0
VERTEX
  8
84
 10
2.8899
 20
3.1694
  0
VERTEX
  8
84
 10
2.7675
 20
3.4625
  0
SEQEND
  8
84
  0
POINT
  8
2
 10
8.4352
 20
-0.3347
  0
POINT
  8
3
 10
6.9193
 20
0.1951
  0
POINT
  8
2
 10
5.8335
 20
0.5745
  0
POINT
  8
2
 10
5.0466
 20
0.8958
  0
POINT
  8
2
 10
4.6938
 20
1.1245
  0
POINT
  8
2
 10
4.5420
 20
1.2237
  0
POINT
  8
2
 10
4.3539
 20
1.3576
  0
POINT
  8
2
 10
4.2026
 20
1.4763
  0
POINT
  8
2
 10
4.0520
 20
1.6051
  0
POINT
  8
2
 10
3.8997
 20
1.7481
  0
POINT
  8
2
 10
3.7483
 20
1.9037
  0
POINT
  8
2
 10
3.5985
 20
2.0717
  0
POINT
  8
2
 10
3.4506
 20
2.2522
  0
POINT
  8
2
 10
3.3050
 20
2.4449
  0
POINT
  8
2
 10
3.0792
 20
2.7659
  0
POINT
  8
2
 10
2.8899
 20
3.1694
  0
POINT
  8
2
 10
2.7675
 20
3.4625
  0
LINE
  8
7
 10
5.3495
 20
6.2039
 11
9.7136
 21
6.2039
  0
LINE
  8
5
 10
5.3495
 20
6.2039
 11
9.7136
 21
6.2039
  0
POINT
  8
2
 10
5.3495
 20
6.2039
  0
POINT
  8
2
 10
9.7136
 20
6.2039
  0
POLYLINE
  8
11
 66
1
 70
0
  0
VERTEX
  8
11
 10
5.8820
 20
7.8555
  0
VERTEX
  8
11
 10
5.8171
 20
6.9743
  0
VERTEX
  8
11
 10
5.7804
 20
6.5462
  0
VERTEX
  8
11
 10
5.7665
 20
6.1205
  0
VERTEX
  8
11
 10
5.7716
 20
5.7018
  0
VERTEX
  8
11
 10
5.7917
 20
5.2900
  0
VERTEX
  8
11
 10
5.8199
 20
4.9225
  0
VERTEX
  8
11
 10
5.8547
 20
4.5645
  0
VERTEX
  8
11
 10
5.9578
 20
4.2078
  0
VERTEX
  8
11
 10
6.0359
 20
3.9546
  0
VERTEX
  8
11
 10
6.0736
 20
3.8493
  0
VERTEX
  8
11
 10
6.1175
 20
3.7377
  0
VERTEX
  8
11
 10
6.1690
 20
3.6183
  0
VERTEX
  8
11
 10
6.2296
 20
3.4897
  0
VERTEX
  8
11
 10
6.3005
 20
3.3507
  0
VERTEX
  8
11
 10
6.3831
 20
3.1997
  0
VERTEX
  8
11
 10
6.4788
 20
3.0354
  0
VERTEX
  8
11
 10
6.5890
 20
2.8564
  0
VERTEX
  8
11
 10
6.7032
 20
2.7050
  0
VERTEX
  8
11
 10
6.8373
 20
2.5395
  0
VERTEX
  8
11
 10
6.9605
 20
2.3946
  0
VERTEX
  8
11
 10
7.0940
 20
2.2424
  0
VERTEX
  8
11
 10
7.2364
 20
2.0839
  0
VERTEX
  8
11
 10
7.3863
 20
1.9202
  0
VERTEX
  8
11
 10
7.7066
 20
1.5772
  0
VERTEX
  8
11
 10
8.0402
 20
1.2247
  0
SEQEND
  8
11
  0
POLYLINE
  8
86
 66
1
 70
0
  0
VERTEX
  8
86
 10
5.8820
 20
7.8555
  0
VERTEX
  8
86
 10
5.8171
 20
6.9743
  0
VERTEX
  8
86
 10
5.7804
 20
6.5462
  0
VERTEX
  8
86
 10
5.7665
 20
6.1205
  0
VERTEX
  8
86
 10
5.7716
 20
5.7018
  0
VERTEX
  8
86
 10
5.7917
 20
5.2900
  0
VERTEX
  8
86
 10
5.8199
 20
4.9225
  0
VERTEX
  8
86
 10
5.8547
 20
4.5645
  0
VERTEX
  8
86
 10
5.9578
 20
4.2078
  0
VERTEX
  8
86
 10
6.0359
 20
3.9546
  0
VERTEX
  8
86
 10
6.0736
 20
3.8493
  0
VERTEX
  8
86
 10
6.1175
 20
3.7377
  0
VERTEX
  8
86
 10
6.1690
 20
3.6183
  0
VERTEX
  8
86
 10
6.2296
 20
3.4897
  0
VERTEX
  8
86
 10
6.3005
 20
3.3507
  0
VERTEX
  8
86
 10
6.3831
 20
3.1997
  0
VERTEX
  8
86
 10
6.4788
 20
3.0354
  0
VERTEX
  8
86
 10
6.5890
 20
2.8564
  0
VERTEX
  8
86
 10
6.7032
 20
2.7050
  0
VERTEX
  8
86
 10
6.8373
 20
2.5395
  0
VERTEX
  8
86
 10
6.9605
 20
2.3946
  0
VERTEX
  8
86
 10
7.0940
 20
2.2424
  0
VERTEX
  8
86
 10
7.2364
 20
2.0839
  0
VERTEX
  8
86
 10
7.3863
 20
1.9202
  0
VERTEX
  8
86
 10
7.7066
 20
1.5772
  0
VERTEX
  8
86
 10
8.0402
 20
1.2247
  0
SEQEND
  8
86
  0
POINT
  8
2
 10
5.8820
 20
7.8555
  0
POINT
  8
2
 10
5.8171
 20
6.9743
  0
POINT
  8
2
 10
5.7804
 20
6.5462
  0
POINT
  8
2
 10
5.7665
 20
6.1205
  0
POINT
  8
2
 10
5.7716
 20
5.7018
  0
POINT
  8
2
 10
5.7917
 20
5.2900
  0
POINT
  8
2
 10
5.8199
 20
4.9225
  0
POINT
  8
2
 10
5.8547
 20
4.5645
  0
POINT
  8
2
 10
5.9578
 20
4.2078
  0
POINT
  8
2
 10
6.0359
 20
3.9546
  0
POINT
  8
2
 10
6.0736
 20
3.8493
  0
POINT
  8
2
 10
6.1175
 20
3.7377
  0
POINT
  8
2
 10
6.1690
 20
3.6183
  0
POINT
  8
2
 10
6.2296
 20
3.4897
  0
POINT
  8
2
 10
6.3005
 20
3.3507
  0
POINT
  8
2
 10
6.3831
 20
3.1997
  0
POINT
  8
2
 10
6.4788
 20
3.0354
  0
POINT
  8
2
 10
6.5890
 20
2.8564
  0
POINT
  8
2
 10
6.7032
 20
2.7050
  0
POINT
  8
2
 10
6.8373
 20
2.5395
  0
POINT
  8
2
 10
6.9605
 20
2.3946
  0
POINT
  8
2
 10
7.0940
 20
2.2424
  0
POINT
  8
2
 10
7.2364
 20
2.0839
  0
POINT
  8
2
 10
7.3863
 20
1.9202
  0
POINT
  8
2
 10
7.7066
 20
1.5772
  0
POINT
  8
2
 10
8.0402
 20
1.2247
  0
POLYLINE
  8
11
 66
1
 70
0
  0
VERTEX
  8
11
 10
10.5368
 20
7.6724
  0
VERTEX
  8
11
 10
10.3349
 20
7.6149
  0
VERTEX
  8
11
 10
10.1461
 20
7.5569
  0
VERTEX
  8
11
 10
9.9103
 20
7.4906
  0
VERTEX
  8
11
 10
9.7208
 20
7.4491
  0
VERTEX
  8
11
 10
9.6159
 20
7.4311
  0
VERTEX
  8
11
 10
9.5023
 20
7.4154
  0
VERTEX
  8
11
 10
9.3788
 20
7.4022
  0
VERTEX
  8
11
 10
9.2438
 20
7.3919
  0
VERTEX
  8
11
 10
9.0962
 20
7.3847
  0
VERTEX
  8
11
 10
8.9343
 20
7.3810
  0
VERTEX
  8
11
 10
8.6598
 20
7.4042
  0
VERTEX
  8
11
 10
8.3884
 20
7.4175
  0
VERTEX
  8
11
 10
7.8810
 20
7.4422
  0
VERTEX
  8
11
 10
7.5780
 20
7.4727
  0
VERTEX
  8
11
 10
7.2646
 20
7.5271
  0
VERTEX
  8
11
 10
6.9883
 20
7.5744
  0
VERTEX
  8
11
 10
6.7230
 20
7.6309
  0
VERTEX
  8
11
 10
6.4879
 20
7.6884
  0
VERTEX
  8
11
 10
6.2617
 20
7.7488
  0
VERTEX
  8
11
 10
5.8820
 20
7.8555
  0
SEQEND
  8
11
  0
POLYLINE
  8
86
 66
1
 70
0
  0
VERTEX
  8
86
 10
10.5368
 20
7.6724
  0
VERTEX
  8
86
 10
10.3349
 20
7.6149
  0
VERTEX
  8
86
 10
10.1461
 20
7.5569
  0
VERTEX
  8
86
 10
9.9103
 20
7.4906
  0
VERTEX
  8
86
 10
9.7208
 20
7.4491
  0
VERTEX
  8
86
 10
9.6159
 20
7.4311
  0
VERTEX
  8
86
 10
9.5023
 20
7.4154
  0
VERTEX
  8
86
 10
9.3788
 20
7.4022
  0
VERTEX
  8
86
 10
9.2438
 20
7.3919
  0
VERTEX
  8
86
 10
9.0962
 20
7.3847
  0
VERTEX
  8
86
 10
8.9343
 20
7.3810
  0
VERTEX
  8
86
 10
8.6598
 20
7.4042
  0
VERTEX
  8
86
 10
8.3884
 20
7.4175
  0
VERTEX
  8
86
 10
7.8810
 20
7.4422
  0
VERTEX
  8
86
 10
7.5780
 20
7.4727
  0
VERTEX
  8
86
 10
7.2646
 20
7.5271
  0
VERTEX
  8
86
 10
6.9883
 20
7.5744
  0
VERTEX
  8
86
 10
6.7230
 20
7.6309
  0
VERTEX
  8
86
 10
6.4879
 20
7.6884
  0
VERTEX
  8
86
 10
6.2617
 20
7.7488
  0
VERTEX
  8
86
 10
5.8820
 20
7.8555
  0
SEQEND
  8
86
  0
POINT
  8
2
 10
10.5368
 20
7.6724
  0
POINT
  8
2
 10
10.3349
 20
7.6149
  0
POINT
  8
2
 10
10.1461
 20
7.5569
  0
POINT
  8
2
 10
9.9103
 20
7.4906
  0
POINT
  8
2
 10
9.7208
 20
7.4491
  0
POINT
  8
2
 10
9.6159
 20
7.4311
  0
POINT
  8
2
 10
9.5023
 20
7.4154
  0
POINT
  8
2
 10
9.3788
 20
7.4022
  0
POINT
  8
2
 10
9.2438
 20
7.3919
  0
POINT
  8
2
 10
9.0962
 20
7.3847
  0
POINT
  8
2
 10
8.9343
 20
7.3810
  0
POINT
  8
2
 10
8.6598
 20
7.4042
  0
POINT
  8
2
 10
8.3884
 20
7.4175
  0
POINT
  8
2
 10
7.8810
 20
7.4422
  0
POINT
  8
2
 10
7.5780
 20
7.4727
  0
POINT
  8
2
 10
7.2646
 20
7.5271
  0
POINT
  8
2
 10
6.9883
 20
7.5744
  0
POINT
  8
2
 10
6.7230
 20
7.6309
  0
POINT
  8
2
 10
6.4879
 20
7.6884
  0
POINT
  8
2
 10
6.2617
 20
7.7488
  0
POINT
  8
2
 10
5.8820
 20
7.8555
  0
POLYLINE
  8
11
 66
1
 70
0
  0
VERTEX
  8
11
 10
9.7277
 20
2.1848
  0
VERTEX
  8
11
 10
9.9348
 20
2.3865
  0
VERTEX
  8
11
 10
10.1365
 20
2.5949
  0
VERTEX
  8
11
 10
10.3283
 20
2.8160
  0
VERTEX
  8
11
 10
10.5050
 20
3.0560
  0
VERTEX
  8
11
 10
10.6010
 20
3.2104
  0
VERTEX
  8
11
 10
10.6890
 20
3.3748
  0
VERTEX
  8
11
 10
10.7678
 20
3.5506
  0
VERTEX
  8
11
 10
10.8364
 20
3.7391
  0
VERTEX
  8
11
 10
10.9201
 20
3.9655
  0
VERTEX
  8
11
 10
10.9938
 20
4.1935
  0
VERTEX
  8
11
 10
11.0543
 20
4.4203
  0
VERTEX
  8
11
 10
11.1002
 20
4.6495
  0
VERTEX
  8
11
 10
11.1292
 20
4.8835
  0
VERTEX
  8
11
 10
11.1383
 20
5.1208
  0
VERTEX
  8
11
 10
11.1267
 20
5.5662
  0
VERTEX
  8
11
 10
11.1169
 20
5.7729
  0
VERTEX
  8
11
 10
11.0961
 20
5.9870
  0
VERTEX
  8
11
 10
11.0688
 20
6.1603
  0
VERTEX
  8
11
 10
11.0288
 20
6.3421
  0
VERTEX
  8
11
 10
10.9734
 20
6.5341
  0
VERTEX
  8
11
 10
10.8998
 20
6.7383
  0
VERTEX
  8
11
 10
10.5368
 20
7.6724
  0
SEQEND
  8
11
  0
POLYLINE
  8
86
 66
1
 70
0
  0
VERTEX
  8
86
 10
9.7277
 20
2.1848
  0
VERTEX
  8
86
 10
9.9348
 20
2.3865
  0
VERTEX
  8
86
 10
10.1365
 20
2.5949
  0
VERTEX
  8
86
 10
10.3283
 20
2.8160
  0
VERTEX
  8
86
 10
10.5050
 20
3.0560
  0
VERTEX
  8
86
 10
10.6010
 20
3.2104
  0
VERTEX
  8
86
 10
10.6890
 20
3.3748
  0
VERTEX
  8
86
 10
10.7678
 20
3.5506
  0
VERTEX
  8
86
 10
10.8364
 20
3.7391
  0
VERTEX
  8
86
 10
10.9201
 20
3.9655
  0
VERTEX
  8
86
 10
10.9938
 20
4.1935
  0
VERTEX
  8
86
 10
11.0543
 20
4.4203
  0
VERTEX
  8
86
 10
11.1002
 20
4.6495
  0
VERTEX
  8
86
 10
11.1292
 20
4.8835
  0
VERTEX
  8
86
 10
11.1383
 20
5.1208
  0
VERTEX
  8
86
 10
11.1267
 20
5.5662
  0
VERTEX
  8
86
 10
11.1169
 20
5.7729
  0
VERTEX
  8
86
 10
11.0961
 20
5.9870
  0
VERTEX
  8
86
 10
11.0688
 20
6.1603
  0
VERTEX
  8
86
 10
11.0288
 20
6.3421
  0
VERTEX
  8
86
 10
10.9734
 20
6.5341
  0
VERTEX
  8
86
 10
10.8998
 20
6.7383
  0
VERTEX
  8
86
 10
10.5368
 20
7.6724
  0
SEQEND
  8
86
  0
POINT
  8
2
 10
9.7277
 20
2.1848
  0
POINT
  8
2
 10
9.9348
 20
2.3865
  0
POINT
  8
2
 10
10.1365
 20
2.5949
  0
POINT
  8
2
 10
10.3283
 20
2.8160
  0
POINT
  8
2
 10
10.5050
 20
3.0560
  0
POINT
  8
2
 10
10.6010
 20
3.2104
  0
POINT
  8
2
 10
10.6890
 20
3.3748
  0
POINT
  8
2
 10
10.7678
 20
3.5506
  0
POINT
  8
2
 10
10.8364
 20
3.7391
  0
POINT
  8
2
 10
10.9201
 20
3.9655
  0
POINT
  8
2
 10
10.9938
 20
4.1935
  0
POINT
  8
2
 10
11.0543
 20
4.4203
  0
POINT
  8
2
 10
11.1002
 20
4.6495
  0
POINT
  8
2
 10
11.1292
 20
4.8835
  0
POINT
  8
2
 10
11.1383
 20
5.1208
  0
POINT
  8
2
 10
11.1267
 20
5.5662
  0
POINT
  8
2
 10
11.1169
 20
5.7729
  0
POINT
  8
2
 10
11.0961
 20
5.9870
  0
POINT
  8
2
 10
11.0688
 20
6.1603
  0
POINT
  8
2
 10
11.0288
 20
6.3421
  0
POINT
  8
2
 10
10.9734
 20
6.5341
  0
POINT
  8
2
 10
10.8998
 20
6.7383
  0
POINT
  8
2
 10
10.5368
 20
7.6724
  0
POLYLINE
  8
11
 66
1
 70
0
  0
VERTEX
  8
11
 10
8.0402
 20
1.2247
  0
VERTEX
  8
11
 10
8.6549
 20
1.5243
  0
VERTEX
  8
11
 10
8.9636
 20
1.6833
  0
VERTEX
  8
11
 10
9.2590
 20
1.8517
  0
VERTEX
  8
11
 10
9.5032
 20
2.0113
  0
VERTEX
  8
11
 10
9.7277
 20
2.1848
  0
SEQEND
  8
11
  0
POLYLINE
  8
86
 66
1
 70
0
  0
VERTEX
  8
86
 10
8.0402
 20
1.2247
  0
VERTEX
  8
86
 10
8.6549
 20
1.5243
  0
VERTEX
  8
86
 10
8.9636
 20
1.6833
  0
VERTEX
  8
86
 10
9.2590
 20
1.8517
  0
VERTEX
  8
86
 10
9.5032
 20
2.0113
  0
VERTEX
  8
86
 10
9.7277
 20
2.1848
  0
SEQEND
  8
86
  0
POINT
  8
2
 10
8.0402
 20
1.2247
  0
POINT
  8
2
 10
8.6549
 20
1.5243
  0
POINT
  8
2
 10
8.9636
 20
1.6833
  0
POINT
  8
2
 10
9.2590
 20
1.8517
  0
POINT
  8
2
 10
9.5032
 20
2.0113
  0
POINT
  8
2
 10
9.7277
 20
2.1848
  0
LINE
  8
8
 10
7.2590
 20
2.3185
 11
7.2590
 21
8.5259
  0
POLYLINE
  8
85
 66
1
 70
0
  0
VERTEX
  8
85
 10
7.2590
 20
2.3185
  0
VERTEX
  8
85
 10
7.2590
 20
8.5259
  0
SEQEND
  8
85
  0
TEXT
  8
8
 10
7.2590
 20
2.3185
 40
0.250
 50
90.0000
  1
NM
  7
STANDARD
  0
TEXT
  8
85
 10
7.2590
 20
2.3185
 40
0.250
 50
90.0000
  1
NM
  7
STANDARD
  0
POINT
  8
2
 10
7.2590
 20
2.3185
  0
POINT
  8
2
 10
7.2590
 20
8.5259
  0
POLYLINE
  8
8
 66
1
 70
0
  0
VERTEX
  8
8
 10
10.1584
 20
4.9428
  0
VERTEX
  8
8
 10
9.3270
 20
4.9430
  0
VERTEX
  8
8
 10
4.4038
 20
4.9440
  0
SEQEND
  8
8
  0
POLYLINE
  8
85
 66
1
 70
0
  0
VERTEX
  8
85
 10
10.1584
 20
4.9428
  0
VERTEX
  8
85
 10
9.3270
 20
4.9430
  0
VERTEX
  8
85
 10
4.4038
 20
4.9440
  0
SEQEND
  8
85
  0
TEXT
  8
8
 10
10.1584
 20
4.9428
 40
0.250
 50
90.0000
  1
NM
  7
STANDARD
  0
TEXT
  8
85
 10
10.1584
 20
4.9428
 40
0.250
 50
90.0000
  1
NM
  7
STANDARD
  0
POINT
  8
2
 10
10.1584
 20
4.9428
  0
POINT
  8
3
 10
9.3270
 20
4.9430
  0
POINT
  8
2
 10
4.4038
 20
4.9440
  0
POLYLINE
  8
8
 66
1
 70
0
  0
VERTEX
  8
8
 10
4.3558
 20
3.7447
  0
VERTEX
  8
8
 10
4.2773
 20
3.9177
  0
VERTEX
  8
8
 10
4.2096
 20
4.0849
  0
VERTEX
  8
8
 10
4.1521
 20
4.2464
  0
VERTEX
  8
8
 10
4.1041
 20
4.4020
  0
VERTEX
  8
8
 10
4.0650
 20
4.5519
  0
VERTEX
  8
8
 10
4.0342
 20
4.6959
  0
VERTEX
  8
8
 10
4.0112
 20
4.8342
  0
VERTEX
  8
8
 10
3.9952
 20
4.9667
  0
VERTEX
  8
8
 10
3.9858
 20
5.0935
  0
VERTEX
  8
8
 10
3.9824
 20
5.2145
  0
VERTEX
  8
8
 10
3.9907
 20
5.4393
  0
VERTEX
  8
8
 10
4.0154
 20
5.6411
  0
VERTEX
  8
8
 10
4.0518
 20
5.8200
  0
VERTEX
  8
8
 10
4.0778
 20
5.9187
  0
VERTEX
  8
8
 10
4.1052
 20
6.0087
  0
VERTEX
  8
8
 10
4.1330
 20
6.0901
  0
VERTEX
  8
8
 10
4.1680
 20
6.2017
  0
VERTEX
  8
8
 10
4.2043
 20
6.3011
  0
VERTEX
  8
8
 10
4.2957
 20
6.4870
  0
VERTEX
  8
8
 10
4.4444
 20
6.7163
  0
VERTEX
  8
8
 10
4.5203
 20
6.8325
  0
VERTEX
  8
8
 10
4.6047
 20
6.9512
  0
VERTEX
  8
8
 10
4.6691
 20
7.0333
  0
VERTEX
  8
8
 10
4.7413
 20
7.1176
  0
VERTEX
  8
8
 10
4.8229
 20
7.2046
  0
VERTEX
  8
8
 10
4.9155
 20
7.2947
  0
VERTEX
  8
8
 10
5.0207
 20
7.3884
  0
VERTEX
  8
8
 10
5.1400
 20
7.4861
  0
VERTEX
  8
8
 10
5.2751
 20
7.5883
  0
VERTEX
  8
8
 10
5.4274
 20
7.6954
  0
VERTEX
  8
8
 10
5.6390
 20
7.7947
  0
VERTEX
  8
8
 10
5.8335
 20
7.8768
  0
SEQEND
  8
8
  0
POLYLINE
  8
85
 66
1
 70
0
  0
VERTEX
  8
85
 10
4.3558
 20
3.7447
  0
VERTEX
  8
85
 10
4.2773
 20
3.9177
  0
VERTEX
  8
85
 10
4.2096
 20
4.0849
  0
VERTEX
  8
85
 10
4.1521
 20
4.2464
  0
VERTEX
  8
85
 10
4.1041
 20
4.4020
  0
VERTEX
  8
85
 10
4.0650
 20
4.5519
  0
VERTEX
  8
85
 10
4.0342
 20
4.6959
  0
VERTEX
  8
85
 10
4.0112
 20
4.8342
  0
VERTEX
  8
85
 10
3.9952
 20
4.9667
  0
VERTEX
  8
85
 10
3.9858
 20
5.0935
  0
VERTEX
  8
85
 10
3.9824
 20
5.2145
  0
VERTEX
  8
85
 10
3.9907
 20
5.4393
  0
VERTEX
  8
85
 10
4.0154
 20
5.6411
  0
VERTEX
  8
85
 10
4.0518
 20
5.8200
  0
VERTEX
  8
85
 10
4.0778
 20
5.9187
  0
VERTEX
  8
85
 10
4.1052
 20
6.0087
  0
VERTEX
  8
85
 10
4.1330
 20
6.0901
  0
VERTEX
  8
85
 10
4.1680
 20
6.2017
  0
VERTEX
  8
85
 10
4.2043
 20
6.3011
  0
VERTEX
  8
85
 10
4.2957
 20
6.4870
  0
VERTEX
  8
85
 10
4.4444
 20
6.7163
  0
VERTEX
  8
85
 10
4.5203
 20
6.8325
  0
VERTEX
  8
85
 10
4.6047
 20
6.9512
  0
VERTEX
  8
85
 10
4.6691
 20
7.0333
  0
VERTEX
  8
85
 10
4.7413
 20
7.1176
  0
VERTEX
  8
85
 10
4.8229
 20
7.2046
  0
VERTEX
  8
85
 10
4.9155
 20
7.2947
  0
VERTEX
  8
85
 10
5.0207
 20
7.3884
  0
VERTEX
  8
85
 10
5.1400
 20
7.4861
  0
VERTEX
  8
85
 10
5.2751
 20
7.5883
  0
VERTEX
  8
85
 10
5.4274
 20
7.6954
  0
VERTEX
  8
85
 10
5.6390
 20
7.7947
  0
VERTEX
  8
85
 10
5.8335
 20
7.8768
  0
SEQEND
  8
85
  0
TEXT
  8
8
 10
4.3558
 20
3.7447
 40
0.250
 50
90.0000
  1
NM
  7
STANDARD
  0
TEXT
  8
85
 10
4.3558
 20
3.7447
 40
0.250
 50
90.0000
  1
NM
  7
STANDARD
  0
POINT
  8
2
 10
4.3558
 20
3.7447
  0
POINT
  8
2
 10
4.2773
 20
3.9177
  0
POINT
  8
2
 10
4.2096
 20
4.0849
  0
POINT
  8
2
 10
4.1521
 20
4.2464
  0
POINT
  8
2
 10
4.1041
 20
4.4020
  0
POINT
  8
2
 10
4.0650
 20
4.5519
  0
POINT
  8
2
 10
4.0342
 20
4.6959
  0
POINT
  8
2
 10
4.0112
 20
4.8342
  0
POINT
  8
2
 10
3.9952
 20
4.9667
  0
POINT
  8
2
 10
3.9858
 20
5.0935
  0
POINT
  8
2
 10
3.9824
 20
5.2145
  0
POINT
  8
2
 10
3.9907
 20
5.4393
  0
POINT
  8
2
 10
4.0154
 20
5.6411
  0
POINT
  8
2
 10
4.0518
 20
5.8200
  0
POINT
  8
2
 10
4.0778
 20
5.9187
  0
POINT
  8
2
 10
4.1052
 20
6.0087
  0
POINT
  8
2
 10
4.1330
 20
6.0901
  0
POINT
  8
2
 10
4.1680
 20
6.2017
  0
POINT
  8
2
 10
4.2043
 20
6.3011
  0
POINT
  8
2
 10
4.2957
 20
6.4870
  0
POINT
  8
2
 10
4.4444
 20
6.7163
  0
POINT
  8
2
 10
4.5203
 20
6.8325
  0
POINT
  8
2
 10
4.6047
 20
6.9512
  0
POINT
  8
2
 10
4.6691
 20
7.0333
  0
POINT
  8
2
 10
4.7413
 20
7.1176
  0
POINT
  8
2
 10
4.8229
 20
7.2046
  0
POINT
  8
2
 10
4.9155
 20
7.2947
  0
POINT
  8
2
 10
5.0207
 20
7.3884
  0
POINT
  8
2
 10
5.1400
 20
7.4861
  0
POINT
  8
2
 10
5.2751
 20
7.5883
  0
POINT
  8
2
 10
5.4274
 20
7.6954
  0
POINT
  8
2
 10
5.6390
 20
7.7947
  0
POINT
  8
2
 10
5.8335
 20
7.8768
  0
POLYLINE
  8
8
 66
1
 70
0
  0
VERTEX
  8
8
 10
9.9854
 20
4.1897
  0
VERTEX
  8
8
 10
9.9012
 20
3.9912
  0
VERTEX
  8
8
 10
9.7145
 20
3.6241
  0
VERTEX
  8
8
 10
9.6017
 20
3.4556
  0
VERTEX
  8
8
 10
9.4847
 20
3.3064
  0
VERTEX
  8
8
 10
9.3640
 20
3.1745
  0
VERTEX
  8
8
 10
9.2400
 20
3.0581
  0
VERTEX
  8
8
 10
9.0543
 20
2.9128
  0
VERTEX
  8
8
 10
8.8635
 20
2.7908
  0
VERTEX
  8
8
 10
8.6740
 20
2.6890
  0
VERTEX
  8
8
 10
8.4821
 20
2.5987
  0
VERTEX
  8
8
 10
8.2787
 20
2.5078
  0
VERTEX
  8
8
 10
8.0644
 20
2.4261
  0
VERTEX
  8
8
 10
7.8193
 20
2.3549
  0
VERTEX
  8
8
 10
7.6876
 20
2.3269
  0
VERTEX
  8
8
 10
7.5485
 20
2.3051
  0
VERTEX
  8
8
 10
7.4073
 20
2.2904
  0
VERTEX
  8
8
 10
7.2577
 20
2.2827
  0
VERTEX
  8
8
 10
7.0991
 20
2.2825
  0
VERTEX
  8
8
 10
6.9307
 20
2.2904
  0
VERTEX
  8
8
 10
6.7517
 20
2.3072
  0
VERTEX
  8
8
 10
6.5613
 20
2.3335
  0
VERTEX
  8
8
 10
6.3589
 20
2.3698
  0
VERTEX
  8
8
 10
6.1435
 20
2.4169
  0
VERTEX
  8
8
 10
5.9621
 20
2.4824
  0
VERTEX
  8
8
 10
5.7965
 20
2.5505
  0
VERTEX
  8
8
 10
5.6455
 20
2.6212
  0
VERTEX
  8
8
 10
5.5077
 20
2.6942
  0
VERTEX
  8
8
 10
5.3819
 20
2.7693
  0
VERTEX
  8
8
 10
5.2667
 20
2.8464
  0
VERTEX
  8
8
 10
5.1609
 20
2.9252
  0
VERTEX
  8
8
 10
5.0632
 20
3.0055
  0
VERTEX
  8
8
 10
4.8876
 20
3.1692
  0
VERTEX
  8
8
 10
4.7288
 20
3.3368
  0
VERTEX
  8
8
 10
4.5463
 20
3.5405
  0
VERTEX
  8
8
 10
4.3558
 20
3.7447
  0
SEQEND
  8
8
  0
POLYLINE
  8
85
 66
1
 70
0
  0
VERTEX
  8
85
 10
9.9854
 20
4.1897
  0
VERTEX
  8
85
 10
9.9012
 20
3.9912
  0
VERTEX
  8
85
 10
9.7145
 20
3.6241
  0
VERTEX
  8
85
 10
9.6017
 20
3.4556
  0
VERTEX
  8
85
 10
9.4847
 20
3.3064
  0
VERTEX
  8
85
 10
9.3640
 20
3.1745
  0
VERTEX
  8
85
 10
9.2400
 20
3.0581
  0
VERTEX
  8
85
 10
9.0543
 20
2.9128
  0
VERTEX
  8
85
 10
8.8635
 20
2.7908
  0
VERTEX
  8
85
 10
8.6740
 20
2.6890
  0
VERTEX
  8
85
 10
8.4821
 20
2.5987
  0
VERTEX
  8
85
 10
8.2787
 20
2.5078
  0
VERTEX
  8
85
 10
8.0644
 20
2.4261
  0
VERTEX
  8
85
 10
7.8193
 20
2.3549
  0
VERTEX
  8
85
 10
7.6876
 20
2.3269
  0
VERTEX
  8
85
 10
7.5485
 20
2.3051
  0
VERTEX
  8
85
 10
7.4073
 20
2.2904
  0
VERTEX
  8
85
 10
7.2577
 20
2.2827
  0
VERTEX
  8
85
 10
7.0991
 20
2.2825
  0
VERTEX
  8
85
 10
6.9307
 20
2.2904
  0
VERTEX
  8
85
 10
6.7517
 20
2.3072
  0
VERTEX
  8
85
 10
6.5613
 20
2.3335
  0
VERTEX
  8
85
 10
6.3589
 20
2.3698
  0
VERTEX
  8
85
 10
6.1435
 20
2.4169
  0
VERTEX
  8
85
 10
5.9621
 20
2.4824
  0
VERTEX
  8
85
 10
5.7965
 20
2.5505
  0
VERTEX
  8
85
 10
5.6455
 20
2.6212
  0
VERTEX
  8
85
 10
5.5077
 20
2.6942
  0
VERTEX
  8
85
 10
5.3819
 20
2.7693
  0
VERTEX
  8
85
 10
5.2667
 20
2.8464
  0
VERTEX
  8
85
 10
5.1609
 20
2.9252
  0
VERTEX
  8
85
 10
5.0632
 20
3.0055
  0
VERTEX
  8
85
 10
4.8876
 20
3.1692
  0
VERTEX
  8
85
 10
4.7288
 20
3.3368
  0
VERTEX
  8
85
 10
4.5463
 20
3.5405
  0
VERTEX
  8
85
 10
4.3558
 20
3.7447
  0
SEQEND
  8
85
  0
TEXT
  8
8
 10
9.9854
 20
4.1897
 40
0.250
 50
90.0000
  1
NM
  7
STANDARD
  0
TEXT
  8
85
 10
9.9854
 20
4.1897
 40
0.250
 50
90.0000
  1
NM
  7
STANDARD
  0
POINT
  8
2
 10
9.9854
 20
4.1897
  0
POINT
  8
2
 10
9.9012
 20
3.9912
  0
POINT
  8
2
 10
9.7145
 20
3.6241
  0
POINT
  8
2
 10
9.6017
 20
3.4556
  0
POINT
  8
2
 10
9.4847
 20
3.3064
  0
POINT
  8
2
 10
9.3640
 20
3.1745
  0
POINT
  8
2
 10
9.2400
 20
3.0581
  0
POINT
  8
2
 10
9.0543
 20
2.9128
  0
POINT
  8
2
 10
8.8635
 20
2.7908
  0
POINT
  8
2
 10
8.6740
 20
2.6890
  0
POINT
  8
2
 10
8.4821
 20
2.5987
  0
POINT
  8
2
 10
8.2787
 20
2.5078
  0
POINT
  8
2
 10
8.0644
 20
2.4261
  0
POINT
  8
2
 10
7.8193
 20
2.3549
  0
POINT
  8
2
 10
7.6876
 20
2.3269
  0
POINT
  8
2
 10
7.5485
 20
2.3051
  0
POINT
  8
2
 10
7.4073
 20
2.2904
  0
POINT
  8
2
 10
7.2577
 20
2.2827
  0
POINT
  8
2
 10
7.0991
 20
2.2825
  0
POINT
  8
2
 10
6.9307
 20
2.2904
  0
POINT
  8
2
 10
6.7517
 20
2.3072
  0
POINT
  8
2
 10
6.5613
 20
2.3335
  0
POINT
  8
2
 10
6.3589
 20
2.3698
  0
POINT
  8
2
 10
6.1435
 20
2.4169
  0
POINT
  8
2
 10
5.9621
 20
2.4824
  0
POINT
  8
2
 10
5.7965
 20
2.5505
  0
POINT
  8
2
 10
5.6455
 20
2.6212
  0
POINT
  8
2
 10
5.5077
 20
2.6942
  0
POINT
  8
2
 10
5.3819
 20
2.7693
  0
POINT
  8
2
 10
5.2667
 20
2.8464
  0
POINT
  8
2
 10
5.1609
 20
2.9252
  0
POINT
  8
2
 10
5.0632
 20
3.0055
  0
POINT
  8
2
 10
4.8876
 20
3.1692
  0
POINT
  8
2
 10
4.7288
 20
3.3368
  0
POINT
  8
2
 10
4.5463
 20
3.5405
  0
POINT
  8
2
 10
4.3558
 20
3.7447
  0
POLYLINE
  8
8
 66
1
 70
0
  0
VERTEX
  8
8
 10
5.8335
 20
7.8768
  0
VERTEX
  8
8
 10
6.0124
 20
7.9434
  0
VERTEX
  8
8
 10
6.1773
 20
7.9960
  0
VERTEX
  8
8
 10
6.3298
 20
8.0362
  0
VERTEX
  8
8
 10
6.4714
 20
8.0654
  0
VERTEX
  8
8
 10
6.6037
 20
8.0854
  0
VERTEX
  8
8
 10
6.7282
 20
8.0975
  0
VERTEX
  8
8
 10
6.8978
 20
8.1045
  0
VERTEX
  8
8
 10
7.0591
 20
8.1031
  0
VERTEX
  8
8
 10
7.4660
 20
8.0941
  0
VERTEX
  8
8
 10
7.7477
 20
8.0274
  0
VERTEX
  8
8
 10
8.0290
 20
7.9512
  0
VERTEX
  8
8
 10
8.3096
 20
7.8565
  0
VERTEX
  8
8
 10
8.4495
 20
7.7993
  0
VERTEX
  8
8
 10
8.5890
 20
7.7341
  0
VERTEX
  8
8
 10
8.7730
 20
7.6334
  0
VERTEX
  8
8
 10
8.9562
 20
7.5139
  0
VERTEX
  8
8
 10
9.1383
 20
7.3730
  0
VERTEX
  8
8
 10
9.3194
 20
7.2080
  0
VERTEX
  8
8
 10
9.4845
 20
7.0167
  0
VERTEX
  8
8
 10
9.6257
 20
6.8395
  0
VERTEX
  8
8
 10
9.7449
 20
6.6754
  0
VERTEX
  8
8
 10
9.8443
 20
6.5230
  0
VERTEX
  8
8
 10
9.9257
 20
6.3812
  0
VERTEX
  8
8
 10
9.9912
 20
6.2489
  0
VERTEX
  8
8
 10
10.0427
 20
6.1248
  0
VERTEX
  8
8
 10
10.0822
 20
6.0079
  0
VERTEX
  8
8
 10
10.1211
 20
5.8541
  0
VERTEX
  8
8
 10
10.1459
 20
5.7086
  0
VERTEX
  8
8
 10
10.1765
 20
5.4106
  0
VERTEX
  8
8
 10
10.1770
 20
5.2589
  0
VERTEX
  8
8
 10
10.1726
 20
5.1158
  0
VERTEX
  8
8
 10
10.1634
 20
4.9807
  0
VERTEX
  8
8
 10
10.1499
 20
4.8531
  0
VERTEX
  8
8
 10
10.1111
 20
4.6182
  0
VERTEX
  8
8
 10
10.0586
 20
4.4070
  0
VERTEX
  8
8
 10
9.9854
 20
4.1897
  0
SEQEND
  8
8
  0
POLYLINE
  8
85
 66
1
 70
0
  0
VERTEX
  8
85
 10
5.8335
 20
7.8768
  0
VERTEX
  8
85
 10
6.0124
 20
7.9434
  0
VERTEX
  8
85
 10
6.1773
 20
7.9960
  0
VERTEX
  8
85
 10
6.3298
 20
8.0362
  0
VERTEX
  8
85
 10
6.4714
 20
8.0654
  0
VERTEX
  8
85
 10
6.6037
 20
8.0854
  0
VERTEX
  8
85
 10
6.7282
 20
8.0975
  0
VERTEX
  8
85
 10
6.8978
 20
8.1045
  0
VERTEX
  8
85
 10
7.0591
 20
8.1031
  0
VERTEX
  8
85
 10
7.4660
 20
8.0941
  0
VERTEX
  8
85
 10
7.7477
 20
8.0274
  0
VERTEX
  8
85
 10
8.0290
 20
7.9512
  0
VERTEX
  8
85
 10
8.3096
 20
7.8565
  0
VERTEX
  8
85
 10
8.4495
 20
7.7993
  0
VERTEX
  8
85
 10
8.5890
 20
7.7341
  0
VERTEX
  8
85
 10
8.7730
 20
7.6334
  0
VERTEX
  8
85
 10
8.9562
 20
7.5139
  0
VERTEX
  8
85
 10
9.1383
 20
7.3730
  0
VERTEX
  8
85
 10
9.3194
 20
7.2080
  0
VERTEX
  8
85
 10
9.4845
 20
7.0167
  0
VERTEX
  8
85
 10
9.6257
 20
6.8395
  0
VERTEX
  8
85
 10
9.7449
 20
6.6754
  0
VERTEX
  8
85
 10
9.8443
 20
6.5230
  0
VERTEX
  8
85
 10
9.9257
 20
6.3812
  0
VERTEX
  8
85
 10
9.9912
 20
6.2489
  0
VERTEX
  8
85
 10
10.0427
 20
6.1248
  0
VERTEX
  8
85
 10
10.0822
 20
6.0079
  0
VERTEX
  8
85
 10
10.1211
 20
5.8541
  0
VERTEX
  8
85
 10
10.1459
 20
5.7086
  0
VERTEX
  8
85
 10
10.1765
 20
5.4106
  0
VERTEX
  8
85
 10
10.1770
 20
5.2589
  0
VERTEX
  8
85
 10
10.1726
 20
5.1158
  0
VERTEX
  8
85
 10
10.1634
 20
4.9807
  0
VERTEX
  8
85
 10
10.1499
 20
4.8531
  0
VERTEX
  8
85
 10
10.1111
 20
4.6182
  0
VERTEX
  8
85
 10
10.0586
 20
4.4070
  0
VERTEX
  8
85
 10
9.9854
 20
4.1897
  0
SEQEND
  8
85
  0
TEXT
  8
8
 10
5.8335
 20
7.8768
 40
0.250
 50
90.0000
  1
NM
  7
STANDARD
  0
TEXT
  8
85
 10
5.8335
 20
7.8768
 40
0.250
 50
90.0000
  1
NM
  7
STANDARD
  0
POINT
  8
2
 10
5.8335
 20
7.8768
  0
POINT
  8
2
 10
6.0124
 20
7.9434
  0
POINT
  8
2
 10
6.1773
 20
7.9960
  0
POINT
  8
2
 10
6.3298
 20
8.0362
  0
POINT
  8
2
 10
6.4714
 20
8.0654
  0
POINT
  8
2
 10
6.6037
 20
8.0854
  0
POINT
  8
2
 10
6.7282
 20
8.0975
  0
POINT
  8
2
 10
6.8978
 20
8.1045
  0
POINT
  8
2
 10
7.0591
 20
8.1031
  0
POINT
  8
2
 10
7.4660
 20
8.0941
  0
POINT
  8
2
 10
7.7477
 20
8.0274
  0
POINT
  8
2
 10
8.0290
 20
7.9512
  0
POINT
  8
2
 10
8.3096
 20
7.8565
  0
POINT
  8
2
 10
8.4495
 20
7.7993
  0
POINT
  8
2
 10
8.5890
 20
7.7341
  0
POINT
  8
2
 10
8.7730
 20
7.6334
  0
POINT
  8
2
 10
8.9562
 20
7.5139
  0
POINT
  8
2
 10
9.1383
 20
7.3730
  0
POINT
  8
2
 10
9.3194
 20
7.2080
  0
POINT
  8
2
 10
9.4845
 20
7.0167
  0
POINT
  8
2
 10
9.6257
 20
6.8395
  0
POINT
  8
2
 10
9.7449
 20
6.6754
  0
POINT
  8
2
 10
9.8443
 20
6.5230
  0
POINT
  8
2
 10
9.9257
 20
6.3812
  0
POINT
  8
2
 10
9.9912
 20
6.2489
  0
POINT
  8
2
 10
10.0427
 20
6.1248
  0
POINT
  8
2
 10
10.0822
 20
6.0079
  0
POINT
  8
2
 10
10.1211
 20
5.8541
  0
POINT
  8
2
 10
10.1459
 20
5.7086
  0
POINT
  8
2
 10
10.1765
 20
5.4106
  0
POINT
  8
2
 10
10.1770
 20
5.2589
  0
POINT
  8
2
 10
10.1726
 20
5.1158
  0
POINT
  8
2
 10
10.1634
 20
4.9807
  0
POINT
  8
2
 10
10.1499
 20
4.8531
  0
POINT
  8
2
 10
10.1111
 20
4.6182
  0
POINT
  8
2
 10
10.0586
 20
4.4070
  0
POINT
  8
2
 10
9.9854
 20
4.1897
  0
ENDBLK
  0
ENDSEC
  0
SECTION
  2
ENTITIES
  0
TEXT
  8
1
 10
0.0000
 20
0.0000
 40
0.250
 50
90.0000
  1
Style Name: 2303 MOCUP B1 1
  7
STANDARD
  0
TEXT
  8
1
 10
0.0000
 20
0.1400
 40
0.250
 50
90.0000
  1
Creation Date: 12-09-2026
  7
STANDARD
  0
TEXT
  8
1
 10
0.0000
 20
0.2800
 40
0.250
 50
90.0000
  1
Creation Time: 21:11
  7
STANDARD
  0
TEXT
  8
1
 10
0.0000
 20
0.4200
 40
0.250
 50
90.0000
  1
Author: GERBER TECHNOLOGY ; ACCUMARK ; 17.1.0
  7
STANDARD
  0
TEXT
  8
1
 10
0.0000
 20
0.5600
 40
0.250
 50
90.0000
  1
Grade Rule Table: 32A
  7
STANDARD
  0
TEXT
  8
1
 10
0.0000
 20
0.7000
 40
0.250
 50
90.0000
  1
Sample Size: 32A
  7
STANDARD
  0
TEXT
  8
1
 10
0.0000
 20
0.8400
 40
0.250
 50
90.0000
  1
Units: ENGLISH
  7
STANDARD
  0
TEXT
  8
1
 10
0.0000
 20
0.9800
 40
0.250
 50
90.0000
  1
Curve Tolerance: .006
  7
STANDARD
  0
TEXT
  8
1
 10
0.0000
 20
1.1200
 40
0.250
 50
90.0000
  1
ASTM/D13Proposal 1 Version: D 6673-04
  7
STANDARD
  0
INSERT
  8
1
  2
2303-B1-OUMO-1-SP24_32A
 10
0.0000
 20
0.0000
  0
INSERT
  8
1
  2
2303-B1-INMO-1-SP24_32A
 10
0.0000
 20
0.0000
  0
ENDSEC
  0
EOF
