  0
SECTION
  2
HEADER
  0
ENDSEC
  0
SECTION
  2
BLOCKS
  0
BLOCK
  8
0
  2
TASK1-CUTQTY3_12
 70
64
 10
0.0000
 20
0.0000
  0
TEXT
  8
1
 10
-3.4660
 20
24.7399
 40
0.250
 50
0.0000
  1
Piece Name: TASK1-CUTQTY3
  7
STANDARD
  0
TEXT
  8
1
 10
-3.4660
 20
24.8799
 40
0.250
 50
0.0000
  1
Quantity: 1,0
  7
STANDARD
  0
TEXT
  8
1
 10
-3.4660
 20
25.0199
 40
0.250
 50
0.0000
  1
ANNOTATION: RECTANGLE
  7
STANDARD
  0
TEXT
  8
1
 10
-3.4660
 20
25.1599
 40
0.250
 50
0.0000
  1
CATEGORY: TASK1-CUTQTY3
  7
STANDARD
  0
TEXT
  8
1
 10
-3.4660
 20
25.2999
 40
0.250
 50
0.0000
  1
SIZE: 12
  7
STANDARD
  0
POLYLINE
  8
1
 66
1
 70
0
  0
VERTEX
  8
1
 10
-9.3679
 20
20.7992
  0
VERTEX
  8
1
 10
-9.3679
 20
28.6806
  0
SEQEND
  8
1
  0
POLYLINE
  8
84
 66
1
 70
0
  0
VERTEX
  8
84
 10
-9.3679
 20
20.7992
  0
VERTEX
  8
84
 10
-9.3679
 20
28.6806
  0
SEQEND
  8
84
  0
POINT
  8
2
 10
-9.3679
 20
20.7992
  0
POINT
  8
2
 10
-9.3679
 20
28.6806
  0
POLYLINE
  8
1
 66
1
 70
0
  0
VERTEX
  8
1
 10
-9.3679
 20
28.6806
  0
VERTEX
  8
1
 10
2.4359
 20
28.6806
  0
SEQEND
  8
1
  0
POLYLINE
  8
84
 66
1
 70
0
  0
VERTEX
  8
84
 10
-9.3679
 20
28.6806
  0
VERTEX
  8
84
 10
2.4359
 20
28.6806
  0
SEQEND
  8
84
  0
POINT
  8
2
 10
-9.3679
 20
28.6806
  0
POINT
  8
2
 10
2.4359
 20
28.6806
  0
POLYLINE
  8
1
 66
1
 70
0
  0
VERTEX
  8
1
 10
2.4359
 20
28.6806
  0
VERTEX
  8
1
 10
2.4359
 20
20.7992
  0
SEQEND
  8
1
  0
POLYLINE
  8
84
 66
1
 70
0
  0
VERTEX
  8
84
 10
2.4359
 20
28.6806
  0
VERTEX
  8
84
 10
2.4359
 20
20.7992
  0
SEQEND
  8
84
  0
POINT
  8
2
 10
2.4359
 20
28.6806
  0
POINT
  8
2
 10
2.4359
 20
20.7992
  0
POLYLINE
  8
1
 66
1
 70
0
  0
VERTEX
  8
1
 10
2.4359
 20
20.7992
  0
VERTEX
  8
1
 10
-9.3679
 20
20.7992
  0
SEQEND
  8
1
  0
POLYLINE
  8
84
 66
1
 70
0
  0
VERTEX
  8
84
 10
2.4359
 20
20.7992
  0
VERTEX
  8
84
 10
-9.3679
 20
20.7992
  0
SEQEND
  8
84
  0
POINT
  8
2
 10
2.4359
 20
20.7992
  0
POINT
  8
2
 10
-9.3679
 20
20.7992
  0
LINE
  8
7
 10
-6.4169
 20
24.7399
 11
-0.5151
 21
24.7399
  0
LINE
  8
5
 10
-6.4169
 20
24.7399
 11
-0.5151
 21
24.7399
  0
POINT
  8
2
 10
-6.4169
 20
24.7399
  0
POINT
  8
2
 10
-0.5151
 20
24.7399
  0
ENDBLK
  0
ENDSEC
  0
SECTION
  2
ENTITIES
  0
TEXT
  8
1
 10
0.0000
 20
0.0000
 40
0.250
 50
0.0000
  1
Style Name: TASK1-CUTQTY3
  7
STANDARD
  0
TEXT
  8
1
 10
0.0000
 20
0.1400
 40
0.250
 50
0.0000
  1
Creation Date:  7-09-2026
  7
STANDARD
  0
TEXT
  8
1
 10
0.0000
 20
0.2800
 40
0.250
 50
0.0000
  1
Creation Time:  2:50
  7
STANDARD
  0
TEXT
  8
1
 10
0.0000
 20
0.4200
 40
0.250
 50
0.0000
  1
Author: GERBER TECHNOLOGY ; ACCUMARK ; 17.1.0
  7
STANDARD
  0
TEXT
  8
1
 10
0.0000
 20
0.5600
 40
0.250
 50
0.0000
  1
Grade Rule Table: A1-LADIES
  7
STANDARD
  0
TEXT
  8
1
 10
0.0000
 20
0.7000
 40
0.250
 50
0.0000
  1
Sample Size: 12
  7
STANDARD
  0
TEXT
  8
1
 10
0.0000
 20
0.8400
 40
0.250
 50
0.0000
  1
Units: ENGLISH
  7
STANDARD
  0
TEXT
  8
1
 10
0.0000
 20
0.9800
 40
0.250
 50
0.0000
  1
Curve Tolerance: .006
  7
STANDARD
  0
TEXT
  8
1
 10
0.0000
 20
1.1200
 40
0.250
 50
0.0000
  1
ASTM/D13Proposal 1 Version: D 6673-04
  7
STANDARD
  0
INSERT
  8
1
  2
TASK1-CUTQTY3_12
 10
0.0000
 20
0.0000
  0
ENDSEC
  0
EOF
