  0
SECTION
  2
HEADER
  0
ENDSEC
  0
SECTION
  2
BLOCKS
  0
BLOCK
  8
0
  2
TASK2-SEAM1CM_12
 70
64
 10
0.0000
 20
0.0000
  0
TEXT
  8
1
 10
-11.1645
 20
17.6166
 40
0.250
 50
0.0000
  1
Piece Name: TASK2-SEAM1CM
  7
STANDARD
  0
TEXT
  8
1
 10
-11.1645
 20
17.7566
 40
0.250
 50
0.0000
  1
Quantity: 1,0
  7
STANDARD
  0
TEXT
  8
1
 10
-11.1645
 20
17.8966
 40
0.250
 50
0.0000
  1
ANNOTATION: RECTANGLE
  7
STANDARD
  0
TEXT
  8
1
 10
-11.1645
 20
18.0366
 40
0.250
 50
0.0000
  1
CATEGORY: TASK1-CUTQTY3
  7
STANDARD
  0
TEXT
  8
1
 10
-11.1645
 20
18.1766
 40
0.250
 50
0.0000
  1
SIZE: 12
  7
STANDARD
  0
POLYLINE
  8
1
 66
1
 70
0
  0
VERTEX
  8
1
 10
-17.4602
 20
13.2822
  0
VERTEX
  8
1
 10
-17.4602
 20
21.9510
  0
SEQEND
  8
1
  0
POLYLINE
  8
84
 66
1
 70
0
  0
VERTEX
  8
84
 10
-17.4602
 20
13.2822
  0
VERTEX
  8
84
 10
-17.4602
 20
21.9510
  0
SEQEND
  8
84
  0
POINT
  8
2
 10
-17.4602
 20
13.2822
  0
POINT
  8
2
 10
-17.4602
 20
21.9510
  0
POLYLINE
  8
1
 66
1
 70
0
  0
VERTEX
  8
1
 10
-17.4602
 20
21.9510
  0
VERTEX
  8
1
 10
-4.8689
 20
21.9510
  0
SEQEND
  8
1
  0
POLYLINE
  8
84
 66
1
 70
0
  0
VERTEX
  8
84
 10
-17.4602
 20
21.9510
  0
VERTEX
  8
84
 10
-4.8689
 20
21.9510
  0
SEQEND
  8
84
  0
POINT
  8
2
 10
-17.4602
 20
21.9510
  0
POINT
  8
2
 10
-4.8689
 20
21.9510
  0
POLYLINE
  8
1
 66
1
 70
0
  0
VERTEX
  8
1
 10
-4.8689
 20
21.9510
  0
VERTEX
  8
1
 10
-4.8689
 20
13.2822
  0
SEQEND
  8
1
  0
POLYLINE
  8
84
 66
1
 70
0
  0
VERTEX
  8
84
 10
-4.8689
 20
21.9510
  0
VERTEX
  8
84
 10
-4.8689
 20
13.2822
  0
SEQEND
  8
84
  0
POINT
  8
2
 10
-4.8689
 20
21.9510
  0
POINT
  8
2
 10
-4.8689
 20
13.2822
  0
POLYLINE
  8
1
 66
1
 70
0
  0
VERTEX
  8
1
 10
-4.8689
 20
13.2822
  0
VERTEX
  8
1
 10
-17.4602
 20
13.2822
  0
SEQEND
  8
1
  0
POLYLINE
  8
84
 66
1
 70
0
  0
VERTEX
  8
84
 10
-4.8689
 20
13.2822
  0
VERTEX
  8
84
 10
-17.4602
 20
13.2822
  0
SEQEND
  8
84
  0
POINT
  8
2
 10
-4.8689
 20
13.2822
  0
POINT
  8
2
 10
-17.4602
 20
13.2822
  0
LINE
  8
7
 10
-14.1155
 20
17.6166
 11
-8.2137
 21
17.6166
  0
LINE
  8
5
 10
-14.1155
 20
17.6166
 11
-8.2137
 21
17.6166
  0
POINT
  8
2
 10
-14.1155
 20
17.6166
  0
POINT
  8
2
 10
-8.2137
 20
17.6166
  0
POLYLINE
  8
14
 66
1
 70
0
  0
VERTEX
  8
14
 10
-17.0665
 20
13.6759
  0
VERTEX
  8
14
 10
-17.0665
 20
21.5573
  0
SEQEND
  8
14
  0
POLYLINE
  8
87
 66
1
 70
0
  0
VERTEX
  8
87
 10
-17.0665
 20
13.6759
  0
VERTEX
  8
87
 10
-17.0665
 20
21.5573
  0
SEQEND
  8
87
  0
POINT
  8
2
 10
-17.0665
 20
13.6759
  0
POINT
  8
2
 10
-17.0665
 20
21.5573
  0
POLYLINE
  8
14
 66
1
 70
0
  0
VERTEX
  8
14
 10
-17.0665
 20
21.5573
  0
VERTEX
  8
14
 10
-5.2627
 20
21.5573
  0
SEQEND
  8
14
  0
POLYLINE
  8
87
 66
1
 70
0
  0
VERTEX
  8
87
 10
-17.0665
 20
21.5573
  0
VERTEX
  8
87
 10
-5.2627
 20
21.5573
  0
SEQEND
  8
87
  0
POINT
  8
2
 10
-17.0665
 20
21.5573
  0
POINT
  8
2
 10
-5.2627
 20
21.5573
  0
POLYLINE
  8
14
 66
1
 70
0
  0
VERTEX
  8
14
 10
-5.2627
 20
21.5573
  0
VERTEX
  8
14
 10
-5.2627
 20
13.6759
  0
SEQEND
  8
14
  0
POLYLINE
  8
87
 66
1
 70
0
  0
VERTEX
  8
87
 10
-5.2627
 20
21.5573
  0
VERTEX
  8
87
 10
-5.2627
 20
13.6759
  0
SEQEND
  8
87
  0
POINT
  8
2
 10
-5.2627
 20
21.5573
  0
POINT
  8
2
 10
-5.2627
 20
13.6759
  0
POLYLINE
  8
14
 66
1
 70
0
  0
VERTEX
  8
14
 10
-5.2627
 20
13.6759
  0
VERTEX
  8
14
 10
-17.0665
 20
13.6759
  0
SEQEND
  8
14
  0
POLYLINE
  8
87
 66
1
 70
0
  0
VERTEX
  8
87
 10
-5.2627
 20
13.6759
  0
VERTEX
  8
87
 10
-17.0665
 20
13.6759
  0
SEQEND
  8
87
  0
POINT
  8
2
 10
-5.2627
 20
13.6759
  0
POINT
  8
2
 10
-17.0665
 20
13.6759
  0
ENDBLK
  0
ENDSEC
  0
SECTION
  2
ENTITIES
  0
TEXT
  8
1
 10
0.0000
 20
0.0000
 40
0.250
 50
0.0000
  1
Style Name: TASK2-SEAM1CM
  7
STANDARD
  0
TEXT
  8
1
 10
0.0000
 20
0.1400
 40
0.250
 50
0.0000
  1
Creation Date:  7-09-2026
  7
STANDARD
  0
TEXT
  8
1
 10
0.0000
 20
0.2800
 40
0.250
 50
0.0000
  1
Creation Time:  3:14
  7
STANDARD
  0
TEXT
  8
1
 10
0.0000
 20
0.4200
 40
0.250
 50
0.0000
  1
Author: GERBER TECHNOLOGY ; ACCUMARK ; 17.1.0
  7
STANDARD
  0
TEXT
  8
1
 10
0.0000
 20
0.5600
 40
0.250
 50
0.0000
  1
Grade Rule Table: A1-LADIES
  7
STANDARD
  0
TEXT
  8
1
 10
0.0000
 20
0.7000
 40
0.250
 50
0.0000
  1
Sample Size: 12
  7
STANDARD
  0
TEXT
  8
1
 10
0.0000
 20
0.8400
 40
0.250
 50
0.0000
  1
Units: ENGLISH
  7
STANDARD
  0
TEXT
  8
1
 10
0.0000
 20
0.9800
 40
0.250
 50
0.0000
  1
Curve Tolerance: .006
  7
STANDARD
  0
TEXT
  8
1
 10
0.0000
 20
1.1200
 40
0.250
 50
0.0000
  1
ASTM/D13Proposal 1 Version: D 6673-04
  7
STANDARD
  0
INSERT
  8
1
  2
TASK2-SEAM1CM_12
 10
0.0000
 20
0.0000
  0
ENDSEC
  0
EOF
