  0
SECTION
  2
HEADER
  0
ENDSEC
  0
SECTION
  2
BLOCKS
  0
BLOCK
  8
0
  2
CAP-C10-PENT_12
 70
64
 10
0.0000
 20
0.0000
  0
TEXT
  8
1
 10
71.2017
 20
50.5763
 40
0.250
 50
0.0000
  1
Piece Name: CAP-C10-PENT
  7
STANDARD
  0
TEXT
  8
1
 10
71.2017
 20
50.7163
 40
0.250
 50
0.0000
  1
Quantity: 1,0
  7
STANDARD
  0
TEXT
  8
1
 10
71.2017
 20
50.8563
 40
0.250
 50
0.0000
  1
ANNOTATION: RECTANGLE
  7
STANDARD
  0
TEXT
  8
1
 10
71.2017
 20
50.9963
 40
0.250
 50
0.0000
  1
CATEGORY: CAP-C10-PENT
  7
STANDARD
  0
TEXT
  8
1
 10
71.2017
 20
51.1363
 40
0.250
 50
0.0000
  1
SIZE: 12
  7
STANDARD
  0
POLYLINE
  8
1
 66
1
 70
0
  0
VERTEX
  8
1
 10
65.3071
 20
45.0776
  0
VERTEX
  8
1
 10
65.3071
 20
52.9958
  0
SEQEND
  8
1
  0
POLYLINE
  8
84
 66
1
 70
0
  0
VERTEX
  8
84
 10
65.3071
 20
45.0776
  0
VERTEX
  8
84
 10
65.3071
 20
52.9958
  0
SEQEND
  8
84
  0
POINT
  8
2
 10
65.3071
 20
45.0776
  0
POINT
  8
2
 10
65.3071
 20
52.9958
  0
POLYLINE
  8
1
 66
1
 70
0
  0
VERTEX
  8
1
 10
65.3071
 20
52.9958
  0
VERTEX
  8
1
 10
71.2017
 20
56.0751
  0
SEQEND
  8
1
  0
POLYLINE
  8
84
 66
1
 70
0
  0
VERTEX
  8
84
 10
65.3071
 20
52.9958
  0
VERTEX
  8
84
 10
71.2017
 20
56.0751
  0
SEQEND
  8
84
  0
POINT
  8
2
 10
65.3071
 20
52.9958
  0
POINT
  8
2
 10
71.2017
 20
56.0751
  0
POLYLINE
  8
1
 66
1
 70
0
  0
VERTEX
  8
1
 10
71.2017
 20
56.0751
  0
VERTEX
  8
1
 10
77.0964
 20
52.9958
  0
SEQEND
  8
1
  0
POLYLINE
  8
84
 66
1
 70
0
  0
VERTEX
  8
84
 10
71.2017
 20
56.0751
  0
VERTEX
  8
84
 10
77.0964
 20
52.9958
  0
SEQEND
  8
84
  0
POINT
  8
2
 10
71.2017
 20
56.0751
  0
POINT
  8
2
 10
77.0964
 20
52.9958
  0
POLYLINE
  8
1
 66
1
 70
0
  0
VERTEX
  8
1
 10
77.0964
 20
52.9958
  0
VERTEX
  8
1
 10
77.0964
 20
45.0776
  0
SEQEND
  8
1
  0
POLYLINE
  8
84
 66
1
 70
0
  0
VERTEX
  8
84
 10
77.0964
 20
52.9958
  0
VERTEX
  8
84
 10
77.0964
 20
45.0776
  0
SEQEND
  8
84
  0
POINT
  8
2
 10
77.0964
 20
52.9958
  0
POINT
  8
2
 10
77.0964
 20
45.0776
  0
POLYLINE
  8
1
 66
1
 70
0
  0
VERTEX
  8
1
 10
77.0964
 20
45.0776
  0
VERTEX
  8
1
 10
65.3071
 20
45.0776
  0
SEQEND
  8
1
  0
POLYLINE
  8
84
 66
1
 70
0
  0
VERTEX
  8
84
 10
77.0964
 20
45.0776
  0
VERTEX
  8
84
 10
65.3071
 20
45.0776
  0
SEQEND
  8
84
  0
POINT
  8
2
 10
77.0964
 20
45.0776
  0
POINT
  8
2
 10
65.3071
 20
45.0776
  0
LINE
  8
7
 10
68.2544
 20
49.0367
 11
74.1491
 21
49.0367
  0
LINE
  8
5
 10
68.2544
 20
49.0367
 11
74.1491
 21
49.0367
  0
POINT
  8
2
 10
68.2544
 20
49.0367
  0
POINT
  8
2
 10
74.1491
 20
49.0367
  0
ENDBLK
  0
ENDSEC
  0
SECTION
  2
ENTITIES
  0
TEXT
  8
1
 10
0.0000
 20
0.0000
 40
0.250
 50
0.0000
  1
Style Name: CAP-C10-PENT
  7
STANDARD
  0
TEXT
  8
1
 10
0.0000
 20
0.1400
 40
0.250
 50
0.0000
  1
Creation Date:  7-09-2026
  7
STANDARD
  0
TEXT
  8
1
 10
0.0000
 20
0.2800
 40
0.250
 50
0.0000
  1
Creation Time: 13:30
  7
STANDARD
  0
TEXT
  8
1
 10
0.0000
 20
0.4200
 40
0.250
 50
0.0000
  1
Author: GERBER TECHNOLOGY ; ACCUMARK ; 17.1.0
  7
STANDARD
  0
TEXT
  8
1
 10
0.0000
 20
0.5600
 40
0.250
 50
0.0000
  1
Grade Rule Table: A1-LADIES
  7
STANDARD
  0
TEXT
  8
1
 10
0.0000
 20
0.7000
 40
0.250
 50
0.0000
  1
Sample Size: 12
  7
STANDARD
  0
TEXT
  8
1
 10
0.0000
 20
0.8400
 40
0.250
 50
0.0000
  1
Units: ENGLISH
  7
STANDARD
  0
TEXT
  8
1
 10
0.0000
 20
0.9800
 40
0.250
 50
0.0000
  1
Curve Tolerance: .006
  7
STANDARD
  0
TEXT
  8
1
 10
0.0000
 20
1.1200
 40
0.250
 50
0.0000
  1
ASTM/D13Proposal 1 Version: D 6673-04
  7
STANDARD
  0
INSERT
  8
1
  2
CAP-C10-PENT_12
 10
0.0000
 20
0.0000
  0
ENDSEC
  0
EOF
